<mxfile host="app.diagrams.net" modified="2023-06-01T12:01:40.890Z" agent="Mozilla/5.0 (Macintosh; Intel Mac OS X 10_15_7) AppleWebKit/537.36 (KHTML, like Gecko) Chrome/113.0.0.0 Safari/537.36" etag="hybbXRJCBHP8UXjnuWcz" version="21.3.2" type="device">
  <diagram name="第 1 页" id="TpYd-cNh5Yrh4a172Ncx">
    <mxGraphModel dx="1247" dy="698" grid="1" gridSize="10" guides="1" tooltips="1" connect="1" arrows="1" fold="1" page="1" pageScale="1" pageWidth="4681" pageHeight="3300" math="0" shadow="0">
      <root>
        <mxCell id="0" />
        <mxCell id="1" parent="0" />
        <mxCell id="r685xKDaXecrk-LamKXd-4" value="" style="endArrow=none;html=1;rounded=0;strokeWidth=4;strokeColor=#000000;" edge="1" parent="1">
          <mxGeometry width="50" height="50" relative="1" as="geometry">
            <mxPoint x="890" y="919.13" as="sourcePoint" />
            <mxPoint x="1200" y="919" as="targetPoint" />
          </mxGeometry>
        </mxCell>
        <mxCell id="r685xKDaXecrk-LamKXd-6" value="" style="shape=image;verticalLabelPosition=bottom;labelBackgroundColor=default;verticalAlign=top;aspect=fixed;imageAspect=0;image=data:image/png,iVBORw0KGgoAAAANSUhEUgAAATwAAAE8CAYAAABdBQ0GAAAACXBIWXMAAAsTAAALEwEAmpwYAAEAAElEQVR4nOx9d5wV1fn+c87MLdsrS1tg6b0uvYOAIIhYFsGGomIv2PuqiRpLNBob1kRjyWosSdQYo1hiicHYeyGiWBGpu3tnzpnn98eZmZ27e3dZFP1qfvt+PvMBLveeOXNm5j1ved7nFWiTNgHAmhoLF18s8dJLAAABuNv8kRCg5+3tPPtknvXAnxTuexj6v2stK2kJ1GtYlgdAAxoALGjPBSRgef7vJQAPgJRpw+pYDIAFK6bhpDyNSZNo7bGHxM5T1Iu9Bt0zXog6CAGQLV8TYAMQWLYMWLFCCyG8Fn/QJv/zIv6vJ9AmP56QFLjnHol77gHuuQfCV0VNREps0bqjteSwbPHUk7HU+s+9xIUX7pJYv3p3fc0farFxYzalB6E1rEkTJmNTLfDVV8A33wCOA3gS0AoQBAjzlEkB6EDfCPMZ/f8MFF/wf5bl/84z3ykoBMrKgKICqPc/fAMbN64Xti2U0soZNTyV2P9gO/6PR89KPfX8t4AgTz1eJU86CSIRXw2nqd6mPyNUVQE1NWxThP//SJvC+x8WBve3qkriq68EnnpKC6NKjFUVjwOplLHUXnlxgXv2BYNj//ibjVgiS48cfZB4++1Sue5rwNNG8QgASvsjGwtLEZ4APAGjPaUURk8Jpuk7BAaZEAgfO5pxCEJErDUhBBj82z+P/wshAQtCmjmA/ieWUaaxGEDA7d5Vy8kThPXkM9dtXrv+i+zTjtfW2cc/KGTBW5AWELeB+vpgJUAghilTiKlTPZx3HoPp/lD3pU3+76RN4f2PCUmJqVMlnnqKTSy44iI4/3xqXGz/Q3PdLuU9UVx0hLjnj560rFKZlSxHbR2wZbNRRB4DlRK8+P4/jQRGmbCkZf6H23QxQxHBY8fWqZXg+0KA9Dyw6a8kILT/TWlsS/NwSwsoLYXWagu13CBKStZj8a4brHfX3LSlIGtt7o23rhVCvNt4PAIWqqsFzj1XCyHalN//iLQpvJ+5sLpa4q23BO65J7BMjHsWj4Gpl3Mx9bSku3DOYn3XvZXxTeu7MyYnWx+tATZuMJabNPaZNj9TAAAhKKSwhUeRpsR8Uy1QbYLmr2EoDoCOPFPNPVyZtEfj7wbfsQBG/U0JwBNCSAKegBCAAI0GFML8kFJCSAlPKUX/MxuwIWTDaPEsoKwYqrzLN/KrL1Zi0viv5a573IP77nsFd9xRJ2KxeigVzMUEGaurgXPPZZsC/PlKm8L7mQpraiwsXChEg5ICSKSYGoEDDxoS/+i/g9SGDbuKL7+usLZsjcNVgOvAA0DAuLZCyNDPNGE1YTzXILYmQFJLYUFDEJ5L34KKhROREn5AzrfygIgzjQZN5Pu0ySSQn2cUbcoBNm4CGtuSjVViYOGFtibDf2rAlRCgZUtQQwgKQSHhNahJmt+TJIQQpBCA53mWmaUFywJiNpDIgpeMf+v17vOBXdTukdoZI1/PPvaMlUKIb6JJEt/6ozjvvLbY389M2hTez0RICpx7roXzzvNCK85kSctw5EldoDfs4r322i5Y981AuXFLHr79FlBuoEo8CXgeICClFIxYbkIEqoYgPT9fKhFYNVEpKAZKi6E/W/utKCgQcNz1ktYGr2cXok8fASHX6vsefMQbMTaR6NudqfL2AGwgmWTi8suewbqNHtqVAYP6mHjbV18B770nUOsSi3fvoAcOGaI2bUpJiyL20aeo/8+L2vJQYM2aNh+rP7Xx0afAmg/hlZZ24aZNwrKtAllUGMPaz0xMLrpeCFWoBwBSSuEZVZd+7UIQnqfhK7/wopNZQGkhVDL/Y3br+qLca97Lau3Ge2t/cfZXxZbcCC+i/GpqIBYuzJwAapOflLQpvJ+w+HaSwJQpUjz1lLHkEnGwPhXHFVfMx4P3z/S21M6Un33RHV+sNQF8z4MCtBCClLCkZ+LvJswvQApKeFRSAp5HX7NZAIB4DLBjAAkvK0fL3r0U3n77cWfkKAnpvR+vV+9gj7kenn/2aVz0K4me/dcIITa1BiKyI6WO7CmuvF4mPvlvR+TnDcKKq6knTpuhX3geMh7vaWdn99fvvh23PM9Yh44TrCcIKEgp/MUAhFkU460b5e9JSWjt+fli845kZUGXta8VXbu9r3r2ezo+e8IN2Hv/t4WU2nepLVRVAQMGEOedx7akx09T2hTeT1BICghhhe6q+SwPF162s/fUY9Pkl18txEerS+HUA6kUPASeKgTCuJb/OyEAaXmeVpqAFQNkqKASCaB9B2gL37Kg4DOZSL6Fvv02cPCI/1iJ7EcxffxGOXTYemRngVoDtbVN5wpY9wCoauF6/P9vVXriHv8vVQ2/a/qlTHCawiKgdiuYSiVxzz3ZsKxh7h1397K+/WqIrNcD9daNffD110WWQBY++6JhJBAaUMKyJegJ4XlBhsQY0GG6GAw3huwceMlEPceOX2PVu1fVn3fam1nTZjxpMtj+l6urbXHeeQoAqkl5Xhv05SchbQrvJyIhNgxg4LKSFDj++LEQ7mnefY/0lFmJgXj3HQCANi+rEsZFlQ1umgRBz8d1CBm4pvEEkExA2/ZGiPhHevK4z+Pdu/1dbfz2Vb377C8Tcxd9LoTY0ML8JCorLcybZ9zEcwEgcwCf1dUSAwcKLFzY8GFNDVBV5W1PwD8SCUyDiZCUOPdc4K23BIqKJG64oWWgdFERuH59BU47oQBvfVC2tUfP+YnX3xgn33unHTdv6GQpbWNrHQDAa4hEUggh0zcPkFLS05qxQPnl5UN1LYfMznlSLpj/77oBw/6SvWTfZ7BpU3gNwsQPRVuyo03+vxcCglOm2OEHsRhqP/qom3vQ/heorl0fYV4BGY+TABXgKiGVFtLTQtKDoAdQA56yLE8DjgsoAqRlk4kk3c7lbt3Mma+xZ/fz6qr2PmLDG1/2ghAmhibT9ztWVsY4ZYrNqiqLBtoRHtu8DjL4rrWN7zWNDTa3LoAkIKsBySlTbFZXy23NJZxzdbVkVZXFKVPsJr+J+a67HYN7+ZkznMGDT9bLDn/TGTHqS+YVmLWTsmHNpVRaSk8LQS1ALQQVLE9Zcc8FXAIeLYuMx+l0rlB62uT71VlnHUjSQjKJT8kuBCRXrrSbmXabtMn/rpCUrK62G31WxH2XzuIxRz+nS9utY2Eh6SszDSgtoD1hFJwHUAvhacDVgKYwLyelRfboQd239/vuHlVPbjzr/Pm1S5d2+5AsSDtXgyKzWFVlsbpakvz+1n4y4WPlWMKnHp/MLt0nEfZkApN43x1TSMZWk4VcvTrZqvGys43bnZOd9jEBq/H6tSQkGxSgUeZNFCfJ/C1vfdWRg0f2SC099pe614CnnIEDtrCwKEAY0odfO1pKzxNouBdSmnsEqPoAkdiujBwx9iOedsrV7p/+NBv5+Q3nmjLFbq3ib5M2+dlKYHmE/yYl//F8+9TRx1/LAYNeY/sO4cvlAK6SQgUvlScElRAehdBK+FYcQObkUgNfuHNmfMABAw6tv+BXe5AszXDuGKdMsavTz28UQXB8B6UXXA/JdlsnTb1TA/erPr3e4qSJZHY2TQ2FIEePZGrq1Md44229Gq9DkzUiYxsuqu6xuUePPzM//yGnuPgvPO6Iu9wHa6aTzEfS6Mtqo7isbVmVLc6/qspaVVkZy/R/W8nRasyYRe7Oc69SAwZs9AoLyKzswPJTWgithEjbiFwp6EihNKAJkALUPXsqPX7sw7zyiqUkE5FrtZgpG94mbfJzl6jbSrIL7793AZcueZxdutcyNzdQdK4WQmsDIUmzIFzAUf4LRCGoOnbewrKOv1MHHHoSt7w7lGQsWoTvu3KSQEZFximZLSQCsfBYtixG1lj+nDMqQ06ZYsOy4Ow69xQWFDGwNjXgKt/qoRCOBlLMySMvvnxfwCiaJmPV+Od6/PHxHDsxFSp1gCzMZ21WFvVO07aq8WPPSV10zQHIzd3Ou9C8kBS+Wy59K7BhfbKywDVrstTKlYu50843qRnTvggtPymozH1zPWmxYYMCtRBaC6E04FEIMj+fHDr4dY4afwjJEZE1t5rbANqkTX424r9AVuA+kUzymsvnuvsv+oR9+oZukgMoJWW6y2rcJDe0FAry6XTvkXKnzXyTl156Lped0A/JRHCeUgAgYLO62t6WpRZaRCXFqP/vugH827P9+Nm6/qFlKJp8P7M15p+HZJ7eafrnGlDajjlaCu1JGcYXCSjacepTT3yQpN3seIAFIcChvQ7y16ZeAy6ldI1SMWtDgOzVj1vzclcR4gVn2NgnNt53X0l0Ts2KD2JmEBf0lWzG+dTUZIwBkuzB0YPH8txzHmVB8Tvs1jXq9noaUNF7qaSkElIpsxZkYSE5YMBG5/ij7tx06QUDYFsNc8qwEbRJm/ykhaRYGYkxkRRqvyUHc8Kkf7KkJFByOmXbWskg8SBMXE5aniugNEAmEmR+AfXMme9z0uiTuXnzTAgJ2GZoAnZgObYmseB/T0JKqL0POZmjxj/MXXYlx08m58yjnjP7o5SwLtkqii/bmldyIXfb8xK+8dS+ALBl9eoOwbWEY/lWyZa5C4cykUsH8LRlhckUz1yTZm4OOWrUoUgkgzk0N1cBy4I7ZvQaSuFpCN1gMUm6UlBb0lMi5vrJAhJgfdcedV9ccGP7IHGyzUVIJk3iomFNbFY3JEUyWsSAYE2Nxaj7a1lATg54xaXHslf3S/TgYZ6xcAUV4GhLaiWFp4Sg5yc8HMtY6yaxZJE9e5Gjx1zH6uohsCL3tQ1B0SY/dSGZlnFdRcY4f+5eTvfubzEvnxTGmnOFNC6O/8J6QtC35sxnWTmsHz74W1bt9Rc+9Y/DSYYR79BNbRSLa9X8fOvB7d//tywz8UIX0L5VEsacKCwyljSWyJQJVDfffASkhUyJgmpArl27NvurfavOYTKL2ra1FsYl15alCVAtP+LfKC42rlvLcxWwLKQGD/qSxg3UUdc+7RCCWgiXQqj6Lr038uDqYn99Mo9vkimCZEytuPVRLl58Tv3kybs45CjDvpJ5rTKuIxnEDhuSH4k4eNOdnTh83E56yPB/sV8///7697bRtWghjOULaNoxqoKire7A4Xdy6dJxkQ1NtGSBtkmb/J8IARF9Qb4kc+suvvyXumu3f7G4mIRlFIsllZIWtQhfWE8BxtWxbbK0hHrX2Z/y9JPPITko7RyVlTGSGR/+IPnQ4hwDZbfTTr9ifg7rgZQjpfIsi5606FkWtbS1FtLxY26OAzgpQHH4CKobrz8IQBOlFyqwZBK6U6cLCHgaJtmiJFxCMFXR89DAvd/GOkpYFtRhB51CyyaFcJtVeMbt1wSoF+z12FfkpM83bh3jz6nJWrCmxoIQqHvhhVm6S4VRRiXt6Ywdm1LJ7PvUUYf+iY/+Y1cefnhZsMG0Nq7GZcti0WsjadVfdNFu6oRjHtYV3b5mu9Ig0aE1hPYz7KHlqgJr1RLU7crojBx2H484okcQo2yL8bXJT0b83T6IZeXw5BOXuWNGv8ai4sCCchtbKtqKMXTJLEm3R3eP8+f90X30gb1IWogbrynExDVyI1ldbRMw8aWIi0VSVjcDdwgsTz124qO0YlRCOGxBmYRZR9v26gHNUZVMvfrcEqCp9RPEuZyrr57M7t2pAeVJSQ04LOtE7rnvftE5NLuWQdLi1bf7ctTIzRrQWkov47ykrQl47pRxH6wj80nGoxnQJmP7rqpeesgzlIJaypSOuMXMSpL5+azv3LWOSxa/y19cOllI0epQQXiOaHwyOxskc/QF5/1SD+i/itm5JAQdwHOt9OxusFFo/5nQHTt6eu7cP7LmwZlIxM34ZtNrc3Xb5McXP95jHu7sbPCss+bpyZM/YHG4mytHSsV07JwOg+65OdTdu3/F/Q/8A++rGb2GzArHBmRNBlemuWD/G2Qua2r6BpnGjPMNsHeHnNCHPXpuou9WbUvhaYDKspUGtFM57DOSHTK51L5CyVGDBzxLE8tTCnA4ZCh542/38ddsm9g5AjZJS7Vrfx99V7/JvKSkAhT79CHv+f28ltYGaFDQWx5/fhd26UENeF4QV2tIDrkK8Fz//uip0+v5zIs9WoLQNHs+Y3GnxeFI5vGccw5SQ0e9wA4dggSHNptDU3ylCubRs5d2585ZUf+XJ3tH1qjN2muTH0dINrivyQT4z6dmcf78h1heHiq6MOMqQFeAWlpeQwWERTV9Zi3POuUq1n/VO4CSbCteE7w8m8khmy//7XEp4BA9cadL9cRJK9SAAS/p00/5d5g1bcYqCTFzK64Zz04dvyGgt6X0NEAtQFdKRduis3Dh35GIBRgyEZmfBcuCTiR+T+NuuhpwOGkC+Z9njMJrRaUBly2LAYB7ytm3Mj8vjG02in8pWjGq8ZNWkszygbzNWj6BFexOm3UdE3GtAJXxeoWkJwVdo6y9urKyGf61tc61bVD8InovVt96awPQOisLPPuMuandFjzG7t1IKagB5UqpdXqWnkr4Fh8k1cChW9QRR5xDMhe2hcabTpu0yQ6XqEJKkYP0SSfc5lZ014wlTDJCCk3RxBJxPYDMzqEeMXK123vo7iSLgyxhEJ9p6YWtrq6WiMeh7rmtSg0ZuolFhQbvlp1D5hsMn3vQ/k8FsauW3LAg1sQB/d4IrIxtWXnBkQI0c3LIU884AEBajIuABVI4JSV3pim8wYPI3/++1RZeAIzmHff207GE6wnJaFWDr4QV8/KozznjPKBBSTZ7zf553QvPP4/5eXSbU3gwsVXHsjxWdGftvAUT/WtrOT7auDww+CwCEWJQ2eKPtYos4BvP7aP23/cJDhwUbJYehUiDtNBYfGazzMkhJ49fw1/++gBkZwfn2TFVMm3SJoFErbo1ZHHdJZdc5o4bv56JJF2AWkhXW5aBlph/GywWQOYXUo8ft5G//e0NJDuFY7Zyhw6U19pVa7NTvQat818MVwn4ro+opxCqfs7cJ7dl4YXnJSUnTfhgexWea1leSgjFadNrU+TQqFVKwEIigfri4jt8d9lVgMPyruTCpYsAbDOGF507gTwVz0m50mKa5eODsllcUscP3uxNcpsB/QhesFz16LU+iJk1sWYFqKVUOh6nPuSQ60lmB3XF25q3P77lHzEU5jd8XlVlNdDaN1qH4mK4f6mZr6r2ep6dOofJDfoVHNpXwkpKLxXEHONJ1xk35WHnxmsrw3hvo1hvm7TJd5I0K+a++2Zx9ux/s6gotDTSwcKCjpQmTpdI0h09pp5nnruC5OAIuHS7YAYRBVDgAluVZXvRl9WHN9Dt3vc/JOPR3zQznoQQUH36/p0GJ6dUKxVeaF0BdHab9zhyskOoSaDw6nyFR8B1YbmMx6iGDzkcUrbq2sPrHTCgWGVlpzwIKiGja2zAu8NGbGF1dXJb15smlg1n9LgaA78RqtF1UVlSE9Bq+JBXEGuAhjQ716A07+GH83nCCWdw7pzH9JDBj6mxo1bqObNqeOIZyzaQRc3+1mwWZvzsbGyuuX9vPXOnJ1naEAd2pZ1edSOEpyFM3XTfvuRJy39HMoTktCm9NvlOEpQZ+X8v4mGH/sLt19cl/DpXSzZ+ELUKXI8evbdy+Yk3kuyDePjiyMZwCa6stmlAplY0DhXNtIYK4PYX8lWvPqGb01jh6b59tvLq6tzobzJeFyAhAN2u+DoKSVe07N7pJu6foBbCYVExnUOPOAeAyR4uWxZDIgE3sPCM9ekSgio36wifXLP1Cq9r1yKdTKYISZVm4QlNgG5R8TPNwXQyjuuvL6fsdAxz8qgBJ3pdFJJaSJc9e1Jd+qtFQeJhG3O1AUANH76UJcUNZXAACYssbce6/gNeUyuu3YdknD7JXtoYvvcQyfTHeNX1e7tz560Jytd8HF94z10hPGXijJp5+XQrR7+vfnf7woiF3xbba5PWS5iUyMkFL7poMsePe40lJXQATwlTNuW7P1TRhETXCqqDDvkHH3hoZDhWI0UXQBfSXv54vOHckWxt5DNJ0tbXXnUpBw2mEkIpIRkE8wlQZWc7/MUvuvnfb1nhSQnnwANvN7E2kVHhudKmyVgKOoBWlhVR7tIjoFTHTkr9qeaw6HUwNzdUeFpKw+Ry4D7P+CVl26yEaFB4g4t0MjcVWM7RjYUA2an87wFAtzUSKK/aX/xiMXv11Bpw07OjUhHQum/v50mWchsgadJUZXxLDlfHHP2hBpSOxVwtpVJSKldAhc9F797khRfPgxAtA5ojMeJvyC7qlLNPckeO2cR40r8nUmkpqaWp2ghixATI/gOpd97191vJciSTqGnD7rVJayQM6pP5zp4LV7BvWPOqPL86wgPoWZJOUB2RlUU1cdy/nT/84fD3AtCqz9+WNnajeBBfeHqBGjP+BHf48PN5xGFHkuz6dd230z8j+/tziGZBJQA4f7rjMLegRGs00EUpQDErm1y4zwUAwGbYP8JxhACPOHYZITyTCRRNLTtpsa5HV+2Om/Ec8woMcFpGXUtpXMtB/ej864lT3yS7kbTcgoI/BgqPRjHS7TdAcdWqAv/8rVN4lZWlKpGV8pVcE4Wn+vb7B+LNwu6ajuvfi/rba/rq4uKvTZyxIX6pAId5OVQHHlgDoDWJEAkAG/75eE8nv1j7EJo0q59mjbYS0O6+C29DIrHtBEgUBWCqQ3ro3Rb+RnWpSPmVOtqRlsfoecyauASoZkyrdy76xVHIygrm2cbB1yZNJVRGloXU764/iGPHfEAgSEqoBuVi4l4uoJmdTTVxah1/e9mVX5K5DWOlw0vSIBzJJHjwwRPUuHH/ZP++JtMKkB070J055526Dez5NdmpMaYuwP2RzHJnzniHUlJZUhGgEnAZi1EPHPAwyQSjTB8ZrhMAOHLkKHbqbDKWkRiZr1RcQtLtWn4hyYS+4KLfsaxDYLWZxIyv9BSgOGAg3XPPvAKWhM7NvSW08CA8CnhOLFbnPHj3hOA6WrwPDTFLm9KqpxCMxhiD6gpn0uTHgkxlq+5vQ51se11evtpPrOiI0vCYjDu8447KVlWu+IqEp5x0AfPyFAO8oF9Fo+DHGmNxun0HeFy07+5pymxb8zUWpPmuJZG6++6hXLDXP1kQxo9dJSKxXGlRWT6MJSvL4YL5d9fVra4I1rQtttcmAJBW/0rS1suPXaFKTTxGN4IIaCFYbyonyIru5D77XF9Ljg/GWtmYqcTErUwPCdsGf3neHI4ceT87dKBvEWhtCCXrCDhq3MSHSDYbiGflshhJoWbvfhJzchrwZJY0Ftjw4Yp/fXQYkO4epY0RxCX3WNJPtytbpwBPIRKPNFasw549WHv5L/aHlPiazHP+/si97NqFCtDKiihIwwysGLPIAQN+X9t74Kvatzr8F9NhWRn1ZVf8jqTgihUtW05B1vfhh5cyJ0c1ziIr29YEmNrv4KdRmDEf0PzYgfXevec/2Sg+SQi6QqQIbDMOau6FsaL1iDG/ZzIZxgSVJehYUtOK0x0+bB2nzzrny9/fuzPQsrJvDjSeVpInJequ/90yPW16LRNJOjFBtxGOUkvL08IPcwzt/wFvuXHvKBvLdi1Ym/xvSZRdw/3qw7l6yuQ3mZtHBXiOZWkirfTH4OlKSqjHjlvFp58+Ig1L19wOKiU2xrPnsE/fJ3VBsUejnJQOQL++K8SCfPKGm/eCFNiWUljz3JosXVr2rW9JeRqCjpAus7Kp9lp4iD+nzCVm/ku3eTPb6559/+vH8XTkOhUB6rz810lm+0kVsYqM1f/uxqtYUmyqHyIbQWjRxONkVk7ADBwkGYyrVVR2L3JywoqPZu+J70ry5NPuY15+k0oLJY1V6yxefDNyc7frJQ4V3h67/4vGUlVBhpYQVFKmOKxXO/+7LSu86mpbAOAll13Hdu2MYgeoLEs7gKtmzNmUIofBstLWvbmxGuaYGbrD6mrJlSuTiFnYTJbpJfv/Xmfl1Ybhlki4IWUJz7FNlQ/btac+9aS7A0hUS9Z/m/wPC6sbrDoedcwFHDQgmhHzsU+gMnQ+LpMJsn27FPdccHiQWPAVXXPcbvJDsoDlnU5mJPbXBMoSZFl79PyWZDt/Ti0lHQTicdRXVT1BKelallYC1MIvpJ848aMgQZD59xQ05VtJdu31AGV6kX4AO3Ht5H8i12iUVDKB1MKDf8O8IqYklIrGNE021fXZV9ItDkBzp+lfkexp1r6Flx+IkRRuVtbvG5eWaQG6QIq5+WTnrvsDAAcMiDc3VpOxfXdSH3XM47TtRgoPJGL1RNeicJ1bkLUrqrMRi0E//Y872KkjtTCbAAHFju25+cCjp4fX01IFTRBiIHPXktn+b5rFaEYVPE+9aLLeeZdPKQRdQKcsqemTkPqQI20yuXnUk6d/xOoL+yARBwHryy/fyF3Hdfn+udvc3f9lCXb6T/92Sxe1/6KVzCugX6jeUNAtQNe2tZY2mZNPDht2F597eko4xjZoewhY1aSkbd9PAce1RD0zgl19hTdp8peBNdDyuL6inj59ks7LdxVg5mjIJbUqLVVc8bs5AJoNWAfuGGfOvJF5uWkQjVDhJXNeCWiQgIhrZcehR4x9iLEYU5ZUjasg2Oj6AmgLy8vpnl+9YJuZSsCUgQF/CDagaEhBAYplZVQHHlEFoFVg5ug9AQCVlXU4DVtNJIYHamnVM7+8RZopkuK9K69MfEqWuH9+4FccOJjKJzzVlq3YrpT68kvvR3ZWq+dWd9O1S/U+i97Vi6te2VIxsKGKojmlF4RhBIBkFvSBe1/O4YNNxY2VTiQbrj9A1aOn1ieffCEsC5s3f162qf6zAf54ba7u/6KwpsY0f8lKwnnt+dP0iGFf0pZ0AOVZMkS1e9JkYI0rVrSW1155fZARzNgFK9O5/NrSzRU9LqAl6EjhNBAJZLDwJoz/qrW4MgL2GzU1cdWp61O0LE/DWGhaCJd2jKwceq1v5WVWeD7yv263eYcxkSQjcbLg5dAC/w6vI/idXxBfv2ltP6d/v29dQLty2wQEhFAEvNTAPvu3hMeL1KKWcsTQVwh4jRILmhDU3bp+tfHDt/pwOwv7g/M6ffseTinpCIT1qxSgI0WKnTqV+N/NrPBWrIjBsuD844HDOXI4FeC6lqDfZ0Rv6lLxF5JWi2GOyPWmUqmB9X36NvQoiSepDzrg9XrW9/Pn0WydcLiO+XngtZcN16Mnvc2spKGhirDMUJi4ogI0c/PIIZU3kOwCwIQQRJuB9z8n4YshBHjU8SdxQL8I3CRicZkYjGIySU6Y8K/aE8/sBoQP3vaxZpisatwpLbuNACmk40rJNJfWp/3WXbt83RK9UaNrsSEk3F+efzFzchpqQ/1SJNW/P/nmS93Srjv6+4Ab74kn9mRurqfTKze0Bjz27L6O5EhfAaXXzAJQe+9TxYLCJi56pkMJoSkFuWjx3WEiJ9N1BfNasWIWR44w1l0UCgMoSousHPVMdC7bcT8sAKibM+9wCkklhG6gjRdUsFPs0KHZGF6N//v6487qq4vaf64BT0npeVaMqbhFzppGfvFuj+bWPdNc6g8+5hrGElpLmdKWpTXg0rKoR49dy+XnDw5jgIDNqsx118F6biB78ZzqJ9m+IzVAV0qdZoEb19dlzKaeM+sL/uoX44Pfk20My/8zEkIIyD7uLrveyMJivx41SiHeYPqzUzndk074I8kCCLTogrV43uDBzM6Brhz9B8bivnJKz/wS8Fhc6Ll/v3M+WsFyG0I3yGLVf+A6bSwhzwPoQihPWEydcNI1QGaXL/z9+vUF7Duwzs9Ie5F1cNijO3neeSdApCdRgpIokjG9/+JnmUxSS9kiUacS0BQghw77sEWF5ysBN7tiFhH3GicsjMKzydFjnmUreuA2N75aVHU4hWVc0QYrlC5EikBOdI3C3wY4vv+8MEB17fFhQ7LHX6/cHIcXnrs3M7TgzLT+vgWYx2GD/+Lfv2jG2IQVevWtU2dWn7GJLN2WOgqz26TkJb/eU48du7FhQ08DWNO1bGPFl1fU8ZeXHLiSDN6PNtf25y7Bw+e8/uQoZ6/dPmFermmxZ1n0hDRxIWkyp5QW3f4DPlUrbjkMWcng99/rISARuGmx1Pz5f2FWNt3GhKCAy+xscre5F8G2W1tkL2FZcHfa+TImkwwgKkpYipbl6cLSF/nnVWGWNeO8SMsdMOh5X+FF3VqHEl4tcIB/rrSscUgzteGLHrpHz400UJVmXdsALKzzcj8h2b65dQ3jhcAYSrtJhlYDilaMnL3zs9Hvt/peBC7tySceTss2FlDD2Frl5njq1t8eDgCsadjkIuQDST1lpw8oJV0plJaWqXQoyKe7xx4XtHZOQaE/r7puKHv3ohvw80Wu1RWGHp95BdTlXT9gcelKvdfud/KeO8esJO3q6mr5+Suv5KRhNaN/f/XVvnrnne9nUSE1oB1h6KeUT8agLUsrgOzeg6r6xPtWkbFgbtuzpm3yE5LwBbrstzPVuNFbCfixOb9xjmG+9RzAZUkp9V57PrH13Xc7+7/dYbQ7IW0TWeGWd/ssilMz8zBQCz1wwBv0m2ZvM/7jK4xNDz88QBeXbPZphDwPhk2F7dpRLVu2D6Rs3spLJqEnTbjdV3gqMh9NAer5sx8mmZVpLYLzO+eee5guLTWF981w64UKr6Dwq7oXXuge/X2jOUnEYuB51Vf7SYXGBf6Klk3utZdReNv5coYK78ILj6SUrBdSB1UmCnBZWEB90S/uBwCu8OExQec5Mt9ZvGglY/FwXq5lKy9mkUuXvkyyPac0H29rJAYKVbXnbwipA0r8JrHPKDWUEGQsRtW5XG09/OhHvyRz15H5vPLhJmGQcF2ysqCOWHqS7tLNJSQdK6aiGEpXWp4DOMzOplqw61MhCUGb0vt5SVj4n52EOvnkpazoqRXAlGWpaBY2aDLDim7kIYf/koFpjx1/wwM3ri47/20a+qiIlSeoIDRzszVPO3nv6Pe3Oaa04Ezd6U8EqGAohZTll3Qt3f+9FmAzFuIxcNqU0zyz6zdYU0JQQ5Dde5LV1R387ze1Epf5xJqnnHQds7MbID2NFR6gCUmVzP2y9swzm48tAgKJJHjk8euMEpaNLWFj4e3x/RRe3S/OPYjSogsRQmgU4DKRJEdMuhNAQyZ7yhQbtg199tm3MD+frjA1uDQwIC/Vu/+XrHnOKIo1a7JaTDz5yvBzMof19X11r97rlJSeytisyNwD3wvRhiRUmP4nUlIPHfb65hUrBofX1bi1pqkckpASfOCBRRw6fA0RthwwsV4pqC3bGAHxJDmy8nm+8VyvcMw2uMpPX0Lq9bxcpE5dfik7dqALUPlZKy1A17LoChMn0b17r0tdccXeyA5rD3+QOIZvJUln9Njb/R1bRfFqSkhFKamnTF/lw0G2rfACDNc1v57Giq6eApRf+uVRSKrs/E1c80ZxpixcGNdccvj+LO9GBTjRBAFljC5Qvx4o8OffXBWAJJmj9tr9vwYWYTd5eaMKj9tQeCSlHjAgI1efBhTtGLn7Hr5Lu90Kz1jaAwcOpbSpIKO1tEYR2Nl/9K8rFq7R1dftpcu7KgIpLaXnGhoppcvLXfe+e+bAtgKCh2RLCo+kWPfeC/lryVJ332UXM7eArhBuY2iPJwSVkNqxrHTSBoOto5IGzO1WdPtM/fayZX6NbkaygEDJr1u3boCz886vMSeHKcB1bMsLFKtnWJddQpDDhn/t/v3+nYPfrzbX1GqsY5v8iBI+0GSW3mX2b5ibYzjFbMsLHiotBV0Il/EE64ePfG3TBZdtM/2/Q+YWKKfXXuvHPn23shF0QBnXWrFLJ6r7b9qfpFxZvY2mNw0Kx9YDB/2DsXjDywA4LC7wUvseeDmAJsXw4XyOWT5Wl5RtMYHzhmwtITxmJbV77x2G5ryZjaCmxtQgp754Z4gePXJT4MI2VXigLij4ko8/3pLCM4kBK/aRD9PIYOHZ5LBh3zVLGzBC96EwXdrS4qhm3f7ofydGVkuHzgQ9bZoX3CMPginAZW4+9Smnned/t1V4Oz+hIes2fz1VV45yU4CnhcXGG4TyNwi/v61uXNmihaBjx7QHi+zdm+7xx/82DJtkSJhwSpi0K+ehh97Odu2pAGor/dzaNwKc7t028fzq+TVkQFvWlsz4qUnwAq0j87lk/6eMywKlpOVpCXODpeUpQDMrh1x2yN9JmnjdNpgxdtgczcNjuUsP/D0TcSoh3CBjqwIXWwiqhXu+haxsENtWwEF8Th13wlIvngytIjO2pNO+471hiViGJtqsPrlTKjvnE+NCWqECcACXxYXUt1x9P0nR0hqFcJLzLtqV3bq72tBoOUqaihVXCk0ptM7P/6yWzKjwCIg1xiUsc5N5a5UPpG4U01KEpC4ueZ1kws8Wb09XMXPNlZX9WFRCN8I4o4VQWgpPd6/4B8n46iVTkgCg5+76lOe7gp4QdKSlGbPJQ5Y9huzc7WIaZnV1HJYFd37V9bRt42UIwTBrHwCr8/LpnnDsU86smX9jr170y+AM5k8K7UqLSoggsaGYSHDLmAnXkQzDD2yEAww9BiGglh10rOrR1dP+cxINQygT5vF0l25O6srrr4FlbffG0iY/sIQp+QceyOOE8S8yO4sK6YX/jp00yYnOXckF+1SHdbBVVRarq5tQOf0g8/TPkfrk3aGqW1cvU3aOgGb7TuTz/9w7em3NjtkAUSl1hg7d4LvLXtjZa9BQ8uyzxwTXGv6uIZHS1amoWGsUXiwo+KcrpEvbJju2u9s/T8vWZnW1vYqM8Yij5+ou3RxKExtKmXKzFAHqAUO/IJnMBPkwluqWDtx9j490Th6dRvE7P5lCAkpXdFfuHb/fJTjv9q4/lxzdjxU9qAAduPGUkvWWpdijgvoPN975GVlZ/+urrmU8i65te0pKuralCHhq6rR/kezA6tYntsJzX3rpAKdDp02uEE2SPK5lKcYT1PN2+yvicaAgD+qvDy50R4z4lR46lMwtIAE6EooRGBEBl/E4OXPmGp5yxs7Iy8s8hwhRhnrnhYPdadNIS1DZUkXrxv1Obh47daRaMO80QIADquJt/Ho/AQkzsRdfnKe7dX2asZgplfKti3D3BjQH9GPdYYcdCNNvNBaY+j/qfKurJWwbetdd7qcUnmpEwEkhXMZidOfu9uRqMrmtjlwADE7OtpDaec55TCSphXA1BJVxUTwHGAk0dQF9q0/Sij9LKc0m0fDQaw14ekDf10kWMVI33Nx8Nq1dWwoAzqVXTOaIykfYuTOZTJIlxVSTxn6pr7wigG404QmEENDHH/sIpWQKUJmSH54AlZQus7JYP2/3FV+SPbfTwjLzv/Ga/j6wOVR42nfx6gCPhYXUu8/fyO7dDOmrZdG1DNU6587m1q3OWGDbm1F4XlKsNPcxoaZOfYaQdKUVJWygFgiITf/kV2o00EMlE/h2y1fD9Xnn36LLK96gtAI2Hy/4fSqAJZWVeXq3BU+4u8+fT9OrN51mLCxLE6hd89lkt2uvV2lbBoqUjtfTLuCwsICqsvKsyO/blN7/iUQAsbXffLqQAwe/Sds2XcJCRSdNe0HLIqdPZe2/Hz1hDVnM6up4mIU74/iOXHHN3/jYY8OB5l/mHSVBeZa7aNFsvyO9TiOOFJIu4LldK+rrTz6/L4BtZiP5xhtxCIDPPjtPDxrkGoVvGziIFNQHHfInIIOi8a02lrU3IYAo3btfuM+OnagOOugI8/2QcKF5coNgrrYN7rvvTiwq2pmTxs/aEBAHNANvIdnL7dj+KwJaGQsjXdlJSU9KammZEsBefbnuzTfHRMdoxdqbc730Ri9OnFznAtqT6XEsSkE3qH7xFa8fX/V0h/ItG29fMXclmdxWp7lG5zVW1WlnL2NxiclmWyJUtI5teRogF+5BBuvkK9O1q1ZlRwldN5BFvOyS29iz90Y/3qeUsKiEpLKEFxIhlHcllyydm3ZPonMKDIWq6ty68ROfYTKLLuDqCDeikpKE0IzH6By57MGwHG07qPXbZAdJSCPE1H7O9JmGStwPukZ2TodSsK60/fN8443ZVaT15bp1ewIAbAvsP7wbKyreZl4e1V57vr2KjPEHJksMEg11ZA/Vv/+axkXsfvxN0bKplx93cQix2da4JnmRqJ8x7T+07QarFqDu0O1D2HbT6oFA4fXp+zQtm06G/hYElC7tsMk9eNls/zfbjitGm5Snf940oB5kQi+7bF8OHkwlZb0WwtGAo4VQNMpPacCJHPWMxTz1r38dA2yHpRXMXQgoO/ZXCosZMXB+g25PCEMMCjhs15HuiWftFax1a84HICSW5TffDNL5JR8RwvOt53BTVlIoPX3iFnfdu7sDAJmhCXt1dUMFRyIBPvZYHx6//CPm5rNe2irKRp2yLZeA1tNnPMeWmHP8dfuazOPiA59gbn6awRBY1Q6EYm4O9XlnvVlHVgCt7ZrUJjtEgobO33zyyaGcNZMO4LnSUlFrwFQvJJkaOeJftz36Ss47pk9BYKH01fsc+muWtPvKzwa6OpZYtdI8HD98LM/fXfW8eb9vTEQZuBME6A4bvmZ7x+SifRcSgikpvEDh1QFvIZ5ooqxWAjZIofv2eoZ+zK9RVpTatjwFuDonV+t77vkrAKxsJQuI/7LbLWX6gnvJlU8fxBHDjHViSQaUWuYQZL8B5ODBZPvOZHk3cvq0dXzrrY5A663y8Pqzk3DKOz5Mf3NpovCiyghwmZdHt7r6ljB509rzheSdAmrf/Z6ibRsuxIDF2ShUl106c+uDfzwXAL5846VerRgzsIpL6ztXHMd4PJ1VxjKurpq0Uy0bqMxabs5OWvpXFzzI4hK6gBOtnFHSYr2UDmMx6qOOea+W7PLcGmaxeqXdRjzwQ0rEja1b/dJSb9pE4xJKKwKngJeSwmV2Fjl//jMki0ja6z/8cAgAcPGBO6s9FmyilQxeKMdQA4kXADQpo/ohJHCHeOft81lcpFwgveu86UtKAu+R7M517+UD23Alq6tNr4o33u/FiVNUnYAX0qFL621Iq3kLr2PZSkpLa2E5AchVCamUJVTAGsNeFeQVvziUgKjZgUh8P8YkSXZXt1y7iov3e0DF5BLK2IHu7vNu1jOnbnUXLr6Vv12xhH+8fSn3OuQALjt+iUt3Lraz4D1cv5JiqMrKP9O4bZmrHOBDe8rKqE447lEa67/18UL/e2vILP2Li87Vlu1oAZUWvgCoBbw6QOk589Zz3adLPye789Zbk9uKlaW1D21XchKzkmEFiLJtj0JoNX7CBrbAoB2Za0B/n1S33Hgfy7syFanPbvA8YBJZyw//aCM5pjXr0CbfQ4IM07dfrD2EUybQBbSy7TR6cg1o2hadyRNvZTpRZ5y/+tVFqqidiZtYQmkITwvhaQFP5+Zt4K+v2wWW/MFLayKZ1Txn7LhPzENqpREZEHBZXq4333338QDAmpptgj8D6AlLi672Y1AmOypkE4UXWApryWydyHqZiFpUvlUFQY4bTc6Z9Zy69bZF/jx+sLUhaaVlGLOzQG4uQ36zWcfttsZZWRmDEOC8XX/DgoIm7RobXm7DIM29Fj0RuIWtjhX6iYLVZOG3r727e6pXrzoPwiQ+GoOMATox2/S/mDKRvOS3+0THafE8K1fa/rNdxhkzNhJwtG07CqgnwPrx45+tbuUakaGlF9c3Xn8D8/Ic/xmK9M0QdGxLEYL6mGP+myKHfvnll7ltiYwfQALXR2358kA1a6aJLVkNyk4J4ZnyoATd5Uc/FWYUfb6vupNPPYTlnakBpSzLS8Me+UFyDhyylatemAYAfO65Ju0Sd+j1mP4Xcffwg29iXq7BzUVpqoTwKKSn+gz8pK7mwV7+b1re9a+8MkFA8uILzmJFOTVQb2KEGRVe8ID3dsaN+orxvI/0koPe0aeceF8qP2ehGjlyEbt3n8EH755An7bqB1Z2UQqqoF9vFDdos7ra9rvBfWcYUYgZPOCAOU5+Tj0hvMZWlwrYRCpHrQotpO14qf3NRKwj81NVCz/UgKOlpbWQzKTwPEM+aqihevQi919yWrhZt5ClN5ZxjYWYDd57UzW7lZvNqqwD2avvF6mFSxdtk3C1ulrWNLAuS/hrrg446AC2K3MVoFUEImTakwqX0mLtice/t6mhw17D/WsrSft+Erxo9ZvW7eFNm2HQ55aV/pACillZ1HtXXRNgvYIHD1JAdy//iICrTP9Rj2kccGDKspWyJPWosW+T7LTuhRfyf8idK7im1D33DNEdO9UrvzdFursjNO0Y9S5z3yHZzYdgBNUCIjyqq2VIEGDb0Ccccxk7lPoWnqCS8m1YdhMLDwD43HPFfPn1WSRtWBbCXq+NG0b/gMquJdnRL08Ys3r00e5uMrmVJnygfV5CT0tpGqpXdHmXrDMbTdX2XXsQKtC7734uE1nUMgOmEPB05DkkDCymHtAsKSSPOPQ51tZ2CcecMsWuCRIg0fttzifWktn1ey84xxk+/AYedORpJDtmSlQ1mqds/HeSgrNnmw3uoEPm6d69lMrk3lqWom3RPfHYN7aQHZmh0XybfAcJS6CuuLXQ7d//HQNbsCJ4MZ/HLjub7mGHXY1c0y0xfKH9bu/Mzf/Ej8t4gdvmWRa1AJUQxly3pGI8TmeXuf/4liwEtm1Vfa9rAySEhDti1F1BAF0LhA22fWS/om3TPXTpyygqavhdBtlMttf7LDyfdmyrBrQSQlNAa8g3EWv54ffHDZuEh0dN63FuPwcJ1uBLMlcfc9j7QVbfd9/MczFuDFOvPjcCwPYTFLDGggD4zDMHsG9fukGzptATAZWQYejA39iU8ptru6aHiqIl6QweupZ7Vu1HMifzudiJfCMOAG/4IY/1PttO9FpbnO+Hn/apf+CBAQDw6cav+/o/DAHK7imn7KH79HS0uY4GxW3F6ArpMJGku9Ps3/gNmiySMjqHNtkOCXedW+8vZNeuLxIN9X6B2+cKuMxKMrVs2bWZXkwCErYFffRht+iCfJUqKnRSBYVaFRQoB9ApYUp1GixFU2fLpQddzwayyx/khQ+V+dmXVeqyjsoFlCOlp0UTa8ClsMgZs88nGX+PTIAUXLWqgKef3s65+eYpqf2XXK5HjvqAyQQpJV3b9lIQDiGpd57zZnQ90+bgX+N3mn9AyV5dLf2MrFUTUZb+3+V3OKyaRmP5FTFBcP173481ZBaf/Ht/Vu35hO7YeVOquNStLS52OXFUHd/55/JqUm5PvwzAWMEExNdkpTN63DdspCRM7Fh6LkCdyNqqcvO+qc/L8ygEU4DWAXWTabNoaKEKC8kBA//j7jTnV7W/++N+BNq5v/3VTL3bXle7u857mWQ8sMYZZOqXmXaezc7TX0f3n4/v4g4b9o0eM3qTeuT+Az8ju3HFijALHSq9U0/dkz0Nb1+GOmmXWXnk+OnnAwAHDIhv2LBh+/pntknDTSFZysmTX2A8RiUbKIx8fJRidhb13ntdF1h23377beFqP+4C+JaeAEjm17/z8gK++q+d+MKq6Xz//WnOkoM+pWWFdZImnieYEnBZXMq6o08wxeFVVT8IWwRJwdWrk0gm4e695/WUNlOAItIbY3tCsF4Ijx060j1oyYu1Y0Y9puzYI+w/8HPds4diMkEmskwvUsDVwrQMZE4OudOMd/jQn+dsD1C22flWV0vW1FhctizG5krNmsAUBFqN2toOiAMrK2Nctiy2PZUWGSWRAD/+uKf78uuz6v79/ExuTgWUS62v0TWNu8165OdDH7Dkz4xZ1I2qaIL+JezfX/HOO4eQzN9yyYpZesK0e9ijmwERh6w+glr4HfMAMp4gk1nUQirt/90F1jXJvLdiLVahMgYBbO4+8HeUptm86tf7G/757lHm2tPcZUMBdtAhu7OsvevjRiOJDGnIOIpKyIOPOhcx01vof8kr+MGFpOAxxyRIxtR++/7Lb0zSUEEhJV1LuIzZTC0/+pmVQRbNZMeSAXtrK87Tk/P3eIB5eVSA49qWpyGpDIbN1WUdHV548b5AU+toe16IFuewalXMj3/kO8OGvk6AyrJdZVlUMg2qQtfH1TU+NIRygJQTWAXJJHXf/l/z5OXXkiwJ1nS75uXHidhc4bhtg2TWG2Sczz7bj2dUj+Aus6apiy49R1XteqoaNuz0etgn60WL/snFi17Rkya9wklTXuGYsa+we7dX2KXLK+zb7xVOmfQKx096hdOnv8xDD31FT5h0e33cPr5++uQznCOPPktdcP5x7NlzBO+4o5JPPdXlPTLRUqyIgMXqVjZaaq4rWOuzsbLRv7OcE447gXn5KtorRcNwFLoCSrdrp3ji8ftDRqZXkA9ed9NxHDnKlIkJqYKKB6NgoJQBXxueQwiPgOuMHf/19sbNQkPitZeG6DFj1mkhXW3bLgE6/fp94/7nxTkQDdYigDAmqRYvPoDxxFYXcFWE6UdLaRKGvfpQXXDxcgCtYu1uEzTEkZCTDb3r3GsYizHgeQtiLcpniHAmT7jdhwzItIB8BrcndL9YLUnKSA+AQnfp0t+xvJymC1fMlBUF5URjx3jq3f8sFra9XYXq23XN1X4i4r7He3LMuM8Jw1biWlY6uYCh5lZaSlcL4ShTdaBCC6C4iHUDBrzFww7/df07q/uF47eCgMBH8ssmXdksK4BZxFMPPjhQXXHVofrUE69l164365EjX1D5+U/rkSNTHNCfjNlGCQs0/CkECR9IHHwOQQrp/ylIGfl/EQEdB9/PyydHjWKqX78v3PLyZ/Wwof/QQyuv5WUXXeGuWDFn3XMvd6apG7UgZfS6Ale7Res2cOtrTFe77cvGBjx4t93ySw4a9C+vuIgeBLVlhbFYLfwWAtk55EmnXObPzU4LJ9g23Mcfn6/Hjv+QsXgTLsA0fKC0FRMJ8uSjrwi48Fo954AEtaTHdCIW6UNsnnvOnEr3sb9MjX4X8L0cKaBPO+1XfjN2p3F/ZRfQqqRoIy+/clbj37dJBmEQLM3NhnvK8ZcwJ6ehy70QVEIwBeEwN4dcsOsqkjnBywpkjlG1eD4f6oJ4HPqySy7XhaXKz0B5Wpg4mAtozplFptYPBRDQAdn8+uvM4LDveu1vmOAzf/e7nrVz5r3F4pKwq5qv2BwVKLfgyM0l+w4gK4e/pMdOuob3/mHvNWQWkn4/jhbcvTA+mannRTIJvvxuZy49fFHtwMGn6H32fokjh3+jkslaFhaQpSWkJSJ4PbMJmdpTKA1h/i6FUhJaCWgFER5aCO1CaFcIrSC1K6BNy0RoJf0xpFBKSKUhlYJQTa49mUW2K6XOzaWbm7eZc+Z94y4//nWOG3ccL6yeTTILWenIIgL2tuJb23XP/HXTu+x8Nzt2DIr4PSUlVSQOq6RUTCap5u/yHMnsxlAThhUZAMlSd+zEq72SUpPJFdHwhghIHVzVvfs3rK7uRUBsT2IlSCy4Y0bOockUK+1bodqyjQs9bIjiH28+CvBDB4GxEBAgXP6rGhYVBi44I5aeqRDq02eT+/zzUyHE/1l2/2chfPjhBCwLrD59P3YoM8XMAUsFQEcKRcuiGjnyeZosqgirFnyaa/eaaxbw4vPO2vruu53pM0OEQW+TgGjshjSU6hx/8v5ufkmtA2gtY57vUigCni4qeoYfflgAAKypifPzzzNmzr7X9TfgocrqzzjleD1p8lp260bGk2QsRpaUUpeWrHd79P0otf+Sezh7xi68bMXExlk8NtO5nqQIqb+jkpsLXn1Tt9TlV+6vTz/nMZWV/Yxb1n4NO3fO4D7D8+tZXS2lr9hkE5qrHX5ISQMSF8qvE3YC0s60w7LIHt3o5OW+rPsPetZZsOAEzp49hGQpbCu6RiJ4Lr7TvQpK4p75+0k+CUS9lrJJy0p/vbTq1kNx9dsG49mMEoh6EGrCzLOYn09XSsOZKEBl2UwBDkvLuOXCc6tbGqvZefv3Xo8c86h/P9MsScf2OSMHDyCPPvqw8HfpCjqhTz31fubmmPg30kIvZmMaMvT9EEvYRivVVMIi8gsunqJ79KpTgHKl5akG5hNFwKstLv33qhNOKPVdCRF9SHjE8oM5eAgZs6kXLf6EYSyvEaYMiPkA1tAVZmVlDFLAOeX0U1heTkeIhkSGZSkKcGvHDs+u/vbbwh94HaIAzhx1b81xLOtQzbyC89SRJ55IshukBOLpeZTG1xMZw8Q2owSe8Ti2kp35wguzOHe3i9yB/f/AocONS5qVFVVujrIsV0updaRJUEbwrP95gC9LO4yi8iilRym9KJV84+RM498S8Dw0o0yj35fScyzpOdJyFfy2kMImbYvMyqEaP/Ezt7DgV7zkkvNqyW6wbQRxNPp07tuVqPAZTNSCPe9hIunQsuoyzTFoYOQuXPQM4vFtxlJXrVgRI2A7b706Vg0eYjYX2/K0EJ5jCYc5eUztvvAvJOMrp1RvVy1rGMZxtlaya9dNNHW9jUrdBB3b9hTgsawd9UEH/ZpkHgC89957iQCI/R6ZSM3Y+Qlm5ZgG8IgC+YVizCYnTnyWa9Zk7ajM+v+MhC7pc/8YwXGjU0qIsIWeBujaWaZmdtIkblm3zsQHfHAkAPCNNzpw+NBTvcICKkClAIfZWdQL5t5LG1OYsKZz57mT+NF7U+izPTSZQ1VVnFOmJEkm1J57PcSYldZoRwvhUgim+vRf+SWZC/i75Q9QPO0rrm3H3QLLNRMcx4yRFnMkmeRBB03Ry4+6WI8f95Xu0MFhXn6IQdOGqsq4lEJoz7CJNH2JAWrbMnTywnJcIV3f7XaDQHsYm2tsgcGwT7tSUPvZaC1MptDE7WRDLM///3rjzjtKCldBOsqymtA6BfMyilDSuNWGMUZHsJfs2pWqqGCdWrDb+5w7s4q33z4WVqO4XytitSHl0901p3PI0OC6PAUfU+crZOUjCbaeffaxJOU2qb7CWDPtzUef8gBz8gO2Y9KyySGj/s6aN+LVjeLWrZGAxME5YJ97mZNDSitjP+Eghq0Bxfx88uhj/sbgma+piZMUAsCa55jl9ujznEm0WQ3s0QjgKll0Rgy7mWSOn4RsU3qsqbFYBYtkV2f33T42rqvpJubBoM9dwGGvHs7mfz104tdkngmgSkNrs3z5qezR4wNmZ5sKDCnpSEElLPOQS2HYN9p3JGfPpJqx0xcOxB84Z86dqerqIew1Op9kKZJGfxIQqSsu3NsnRdSNHgSH0uLWXgOfCcCVPygwmRR+vWQstEK2FXxvpCzXkfl8oGaA3n/RH9w+vZ5jz56NXVRHC6E8kdnqojAuWeRQflxRhwrKskxiobwD3bi9hZa9kXZyoxaxb3Vu/jq3T59v6odVfqPmzVnv7LHnaneXnV2VnaQLk6hQAnSScaYGDK6rk7HPGLM3qZi9sd6KbXSTWfXs0MG49dI2R4Pr5McNRTi/4KVjo+vwX2BXw4fsCD/+OHQY2aHLHTz3rPN4THU+EsngOTD4vxbubw1pkRTu8cfspQ8++EUzzzgdQCnfctKAYk4u3cOOONdPMGyb0NX3XEgWOdddebfaff5GPWDoBn3AAX9jzXNZptfx9j13gaLdev75lezd0/TCbc7STts44NCy6c7Y6akPP3y+fTBWWI62dm2pGjbsc2V4DBswstJnmiksojrz7HNgyR8s6fezksAK0ZOn3sCcbDoBx74APUPG6LJrBTf++oqLPidzvvzykz0BoO7wQ6Y78+d8wexsn9lCKK+hrR21kNTC1lpIlyLm+i+pifkIi8xOMmXbSicLtuozztzCBfPPcp54eAqEgLruikNNpqxp+zxHwKVlMTV00NOfRiAfJC2uWfOD1t+2uI6NYjkkC9WR+x3rHH3YBp2d7TInJ2AAcbWUWvluZvr1GbS/Z9k+azIcU5kiIxlWkLE4OWES6/r0ecixxY2uJW7iHotu1A88cikfvLE9gSx2rMxeg/IsTlmSXPPcc1lryewa0nLvvn8BBwzZqIXwQqUghEchtDtu8ldOv8GVBGIc0C53DZBV/9cn+/OGG27UFb1vdK2sW2rtrBv12EnvsFdf3yIUTRS4gnAc29Yq0wstBB0hPCUs7VjSKG7LInNzqbv22Mox4y5U5567dzThsQqIZYJ/fO4nzfz1tty/PLC7HjP2Ueb5VpmUJoEBeGzXnrXVJ5+FrETG+xWValK+EsRls5MgmcU1zAo35dYytviF/RFEQtmWUaPfpyH6zJgFbmIxm5adLgWYqhz+DvfdvRwwSo81NRYsC1u2rDmIY8dSA16ILPBjrgRcXVrmcO8DJwH4/xiuIgRW+XEzddRxp7KwOOwc5QF0LUkHcFhQTL3ksF99SpYQsGDZcE487l43Fqv1X2DVGP3dbLzHsrS2be3v9G7kJSFjNlVFN6XKuz9X36//58rvzZrJ3CfgUgq6w0a/QLIdEJj67zVpivxDSpCsCV66alLy8l8NTPUder7u2P4DlhY1uCimZ2yToHqgcPwNQWkZUSC5uWTX7nSFfFNVjnxLX3zhnwmMYZcuE/nss6NQWBjey9aIc911o71BQ/2XKV3ZEibWxeKir9WLT52UcdygooAs4Ulnj3OAsdx1lz30sce/7cRy31U5WR+zc7mx6s2zQc9kkV3VzLUH3Ik6mgXu1pW6U7cXedo5p9d/+GGfcL2DjGjjOuPoS2zHoKvPulYXFn7rP8dKSct4H3m51Afsf9cbfttDbsMtDdzbtM+2DxCdDErOSObrpQe+yuzsNPczbbOLWvIRnF3Ifg2Q3Xp8tGX3ZYaHsKoqTPqomrsP0eUdlSuEdiPd0JRlaSUldf++m50P/mlaDfz/mMQIdh3n9RdO4qC+TAFuSDpoagoVYwmqE457cR2ZDwDryM767NOeYmkpHWlR2ZaXUbll2q2EieMoU+6jfBfHBONNBylzQy2DD9Oy+awjAaaEYYxQI8a+zID6+kckgk17aBIJ8DfXVnH+7g9zQL8wdqYAR5seH5kebs93BRsynYkYlbDo7TyL9SOGXM+BQ0/m73+/B4QApIUoxi243tDdXrYs5gfcRdoRVGd8+3mFO3H8OhPUzmxdUAjNWIycOHGAP74pJ1uxIsbKytgq/1xNFiMWA+IJkMzjcWecTOBkPXv2C6pbT2ppGYsUIWW78i2Pps+OqSJwFaAoLOOqT51Cd+Hel9du/HQ8EvHodTfFehqYj4lHjxw5SI0a/QUBOoCTsi0qCMVEkmrIwKe3/ulP85HwLTafFCBtrCDZRL+++TsoiWAum8hSfdhBrzIv1++DK5pedxTP6T8/jVlkXCEUrRhVn77v8ZTq8uA5XFVp7snW0WMPY04unQhGTwOst23DvL3XHh+QzP2u1/OzlSCbuPW31Z3U4IFfMbDShN9o2JIm/jZj9rv1ZG/APADu7Tfv7uN/XC1k65Wd75a5uflr2b9f4wC61uaBVK4V85SQSgnRhLmk6dGw66nKUa/Qbz/YWjbg77x2UYYLsogXX75MjR/3EouKA6tGB8QBxr1vKIpXQniOJZXjxyYJkNm5dHr13syydo/rpfteXjdxZA9+8kl50JjcP2egwBqIBVpRYxz8Djk5cI4/aRUBupH4bIaNxFMi4dUiGWwgzVZCBLW7UQs37Ttkgr+4qjv3WTJBT5v5iCpr9x+Wd4m6vsa9t21PC+Fbg42THgajxpxc6m7d6vV+ix9wHn9qcsDZFyj0Juf2n4ENde5sXVX1EguKmAKUa3Buipak7tKVTvX5D/O9z9pF1stmZWWMlZWx5q69tRL2H1m5slAtWvQiE3FTrRR184WgI0EFoZmVTY4c/ZY6rfok54Zb/6QmTnZNcirWWDG6tCzqCZP/RbJ9wOATxNX1vPm3MpGkgnC0cWuNpSeES8uiO2nGCv9a///A5wUB2ffIhHtA1XO0LWrLZz/xG6YQ8HSvnus2H3ysCZIec0wCANT++z5Cy3IIkdKtdGW1Ca57TlnJ+7WfftqF1984W++36Dx3+dFfqGTWl2zX3rhuDcovCMxnMPszWY4mJa+HDH4rtfrlYYD/wP8AtEb0s8Ik4/Unn7WLnjnrLZa2j+LjlNfYMvVrH8OXFyBzcqiLijbpnWY8pXbZ9WA+++LwmkaNWQhIVlbGvk+gmTXG3Uk9+feFXvuO9APbzYYcPIBOaXtv/YyqrsEctut8PvymiRUofLKAgw+cqQ9Z8js1ovIrXVhEZmcFa6eVbNo2MXB56ZOEEiD79qPeZ/+ajb//fQkKCoK1amqhRTCVnL37hazoYWpW/QSLC3i0bbJXz3edBXOP48MP56fNOTvbWKxr1mRx/6NKSBamlaO1tAZTptgQAN/5YCe376CXacfS6sUbrk3QlcLEd8dP+52PbcWfyewNq16e5Wblfq5lI5YUs9GnmJNLvdPMXwEIyQpoKlo6c9iIlwkwZds69JTMpqLYqSN589UnkrT+v0hihH0xDz3sdGbl0o30UfDdTEd37KDd3/wm7Dsa/uagA1cyr8APVJs4jRbwyTwzKydtYkM61aPbGr7+fhcAQCLuK95bk+qOWw7htIlX66EDn+bQISbr6MeA/LiXq4WltWh4KRtbeo7lm+yTxin11EOmn+wOgqxUR7OuQmDz6afP5LSd/snsUEm7bpqLGDxgkkpYOsxKWoIqr2ALe/f+M3fb/Xi+vqpn4FL58zXZ8m2UYW2PBFg1Z8iwP9DvjdEshi9wo6ZNc2s//dRYeN/D7QnhHdF2hwCQTIBkDq+5Zg+OGXd9asLEDUwkIrASuG7oPTQoZ1danmu48jRtSbdj52+cY5c/WPf88xXhOdeuyk6bQ9g0COB11x3ndum2KbhnWkrPlVCEILOzqbtVvK+GjjiZu+12Inv2PEGPn3i1u6jqI7ei26u6fceN3H/hB9xGjXj0vtX/4dYTOWqkKRuTQnuNCSkAKr81pJoy+SmS2QBAPywBAO5FF1/BohITGhENbU9D5ZVXQves6nnmWqtDyE3qkUdG6MrhWw2WtoGk17UsTwEORw0nX31mrH+P/3eVHmtqLEgJ983XFnDgQNdH64cNhRWgWFJKd9mRv0QigaB/ZhAv4UcfdePYnWa4w0b+goOH/dstLFpLSCoBz7Wad3GVEC5jCeoF836FWAwEmmRTSSZ4772TnVOXn6hnzlypi0v+yx49TR0ofOyY6fWQ0fKjEKY3xbAhHo876UAy7EX6HZWHaHgYLInUk48N5vTpf3Tz8upDi84PA0RcQroxSUfIsNCcncrJYcO/4R57XM89FvdGbnqBCL9HtUFLQr9PwlayXFcOeY9mQ2veIrdtcw3HLGcd2R34fgovw3xEk1iZlCDZSx193GFq8LBn2LMXmTDZbEcYFzT9XosG/kWAtG3qXr2/5EGHnrKFNIH8Ruvpr4OBhNx++1g9fae3mJ9PB/Ac2/Ycy9I6gPhkZZElJaaXb2BRIghHYCvbt8/xz9HUha+psTZ8/HHRK2SOWlx1Bnv08OPVTTvRhcaFEJozpm4itwwH0FA9QkquXGlvIIvqR4/+B2MxukLoqDtMy1KMWZ4zasxLJIuDjZLV1TYsC+qmaw5nUZExaCKKMngG1O4L/kMye0dusD8pCXdbMqanTfmQMGn78EHyWxNy0b5BD4GWgZUxG3xmVVe964LLWVxqsrWyGaUnBF0BTw/q521duMTsLPBrBCOB5lCM21jGS3+1hJMmXal793mdJcUhBZM2loDBf0XJHU2MxmO7jnTPP38Fyawg+LxdaxVpc/gV2UeffsZt7qCBij5YN5MrT18BOoAmBNm+A/Xgyid4yFHLSA5MG/97KeJWXoP/kjuDRo1kx85+Z7bmQwTax3Bx1qwH/cB2xtjcDppbWEccfFZDWu5dD+7Gil6nuh3Kv2BWdjTR0aQXhRbCq/ep4JmXT06e/D7vuO1U5JgNpUm97DK/DzLZjkcd+Xu3XUftb6KuEkL7TMuOBlIaSGkpXFpSudIyvSV69Kpl9YrsYP7huKQMGlt9SeZyr6qHWFpKB3BVLJbR89EGyqPri4qcLbfefNoaMqtx9jmsfHr++SFOp05f0MSFG94vw1jksEsFuey4vSEEVgWtU6dMsZFIwD39hFvYrow6KI8Lzg+hmJtLfeLJv4aU/5v1tpwyxYZlwT3uiBuZnU0dZIsEwiRFqnfvtfzqK7NTZgoG+4ogCFYDAEpL4F5+xTXs2t24JLadsRTJkSYzR9tezeXL9wzHJK3VZDJiATSMDZgMKJngIzVz9e57X6bHjXuHXbuSVjyEPigIV1mWdgEdFrkXtWP9zvuaRtrbARINIQ75eUiddfpCp1vF68zN83drS2nIdPZcKem7WsYa6NOPepfZT7u/uWRPRuJybCDj/FF202DnVkceeSKF9ChERlR/w0vgu97ASf7vf/DucQAyVrXwilsL9f6Lf6HGjP48qERxALdxLxTt968NLb6yDqwf0O9m/v3vI6PjN/l7PI7aIw4dXz954hvs2CmaQPP8hJnnRKjAVOXIzTzllMPS6r59Zbpp7TulJAVffHGQGjroEfrJNGWZVpCZEkS+wmOquL36hBzCFSsyEiqE5XO7zH6Y8bh5ZyPjKMuUe+pZM65Gbi7eqK4OIDCi2qc805MmvWDev4YmVT4TkcuBA8nnn5nTeJ1+9hKgstXvbjhAF+SnVKQtIYXw6gCXxe1S6vLfLgHQalrtwDojmVSXXHEghw0zCkg27TXqu1TGzRsyiDz6sKP9xtty9erVySZjB2j3RtbfZrKMJx43Rs2ceawaOfY9r0MHk8oHyNx8H8PV6Wu989wnefPN7YKxtnktEauO335bwWXLng6K9xXg6MbBfiGopHGjCVB17uLpg5b83X3k7ztHQbI+Yv9Hf5gICAgJPX7SfwmL2wK6asChEGROzrn+i/2jKLyGCYf3u6E2m6zgWWctV6PGrGFRSQMrTIbkRgjxsWzqYUNqefHF569uaJGY1uAmorQ6pqovWFg3btyfVZ++dWxXZmBRMZvs2oVuz16f8bjj/uKsWzcG8XhaHxN/XJMYeeyxUXreLhtpx+lYVma8YdP1Vl4ii1x+7KWQMqPVHzRL4rnn/I3ZOWm9b31LzaMQ5PAx9WwotzRzC+J5NTXDdN++2rVkGrZPS6EJeHrI0DdDqMr/gmsbqQ3MckeNNH0lLKmCRIOCcJidTX3wIbd9l/KTKDiT/1i5lx4/odZ3l1WmALkKduSOnVh/yrmPBpmpkCoq0zkyNE7x3d4k731ogTtj+lVq0d6vqMmTl6VWPbXvOrIclt0Et9bs+MHuFouBV15xOvv2X0dhGatCCq2lNPQ9ISuzfw1Skh07Ux+w5AXe99AcZDfo7R+61WSLYtZGkF/npQQ+pilR2rbCk5LMzj4H+PEsvExCNPR0gABqyS48u/pyZ/zYbxmPRRVfOsZRCLpCKhcg84vIubs+6zz0xAQ/Dp3O2Ri1aAzn4Bh10a/3S2XlVtUXF+/Fh+9bQrIsbKoEGLyhbfu4w7h5Xn53x2g9Zep6DwYn58rofNCQpQ/jaA0KmhBad6lYV/uHv3YL55W+WcYBQC854C9MJjMoPBMndoANtXfd1cX/ffo1Sgs88uijmZXDACmgAXqWpJLSNDlfvPfFEOJ/I4HBqioLObmoX7jvDRrQlELRWCd0fECiO27Mm5vI0u+q5QM4AgC4q99coCZPWk0IOgLNVBaYukrGsujMmnlbUEbUmhNHXd/ww1gMAaFA+L3WMO6m86D117NnPMySBh68AGKiYbgAlc+FRoAsLSP3XPiceuofB7Oh/6783pTnO0ACV6hucM9lzM/VBJyW4nehwrMssrDw/1zhBdLY3SXZKXXSkde4fftuZCJBF2CqcdWCMPE9B1C0bLqdK+rdiy68aWNQhhjtNsbqIDzTUmcxi4Bw779/Jx5z1Ptqlzkf6d3mfaR3nfdf7rnnR+7QEXWeAJW0tBdtAAVQS8tzDMzK5+mz0vCGSkhNIalnzn6bZOdXyDLA3L+IFZrN8k6rtICnmvazMAovHtvE5b/s7M+3Mc+fRG4O9CGHvMJEgo5t6yh0SgHazS+s58P3GlTG/+VG/X0lZEE57rgx7N2HjohYKZalKaVKlRR9ztOqewDppv93Op//MNWTvTly/FO0wrKhjKh6JaUJ8O+791N15MyXyUKiuvVwEp/gMFRaU6bYXLmyVQmBAKOGWAxcsmSuGjd+Q9BfQ1sxr/Fc3SBOlJtDd87Mz9SvLtkHebmR8X4agd8IHqud3n3+W0qAKma3Bi/pUEqq3OyzgZ+GwgskujEBQOq//x3BWbOu0527pvw4rqIfWojes3pLag2QhcXUE6Y+suZvfyuGFAEJZ+PKCum71CaOvNIQRbCqKk4yxsnT72UslpF9xrXspo2fhA8uLyxgqlsPzZISasBzrEaJB0jF3Bw6Y0a9veXV16/fSlZCAKvJ5FZn6yi9eI9HWVps2IsahVVChRezN/I3v+karFXadQWU8rW1XTlwxBcKcAxMxoyRsqRmIkZn5xkf15Hdfwob9neSyM0q1ePGrqLhwdcRze4ynkXn6ituBLDDzFlTAVBXQVKqAxY9xM4dTZlYJsCrFKSwXSYT1Acf8nn9J5+Yqg6/n8b2Xm+rv+vHiT4nc7hn1U1efoGPKRQqYMs1L4+gljHTy8KS1B07rlaL9zz7vaAxtl/b+VN6QAIrve646gq260QXoLMtVg6jNFzG4mRJpx81abE9EoJ6AbNR/fqq0c7ivT5guw4kwHoZhGpAv9kNXSk8wpQt1ld0X8vDj9k/Ot42z1ldFf+ULNEjxtzM7CythEhRSE0ZHob1JLLGymce1uPGKufyC077ipySuuqqQzliuG8BRiwsIaiknyApKqUaM/6ROmQdnho7/jKOHO1RSjoCAfNLmkLXgEcpqbLytnLln0ubu6YQhF3zhxPZo4J1QmiG/Wn8lg0yxi2/+/0LrWkn+pOUoMTKXbL/BSwpIYV0w4sUwmUyi2rosL/wS+ZywID4jr5I/8WL8brf3q3txEZTjpa5MsMBHEKSY8Z9wl/f2MuPJ4QMmzsMiEsKrlgWgxTglv/O48Qp7zErmykIz7UMnVV091TGOiULCshjD3+B/KZL5PqaFLH/FCRQCM4eu9xAITWRGQeWbo34rDgd25OnnGYUXpSw9CcmUav+Q7K9c8ppR6s+vd/zQxFNWWhEhAk4O5f6hKMfYOA+Rp6zjOeCSSboqr3uZyKh2SiO1mQtA2XXt88bDreOiY7l/PL8U5mVVcvMxJ8hszgtK1qCl9k6N2QcHgGtdp7z5rYSY6sqK2OwLeiBg6/ye9SEzwVNnbvW3Sq28qrrhgYb+fe9Tz+aBO6V+9e/ztC9e9X6GbgGKiDAZWnRRuf1F8cD2OEp6UBBhXGI085YFmQ8Myk9JUHXx4Hpzl2/rHvy8aWwZJrrEc2OfZ85AQAXL1zEYYNrCdAR0lXSYrR3gU+XRCYSVLNmKN5606EhU8hPmF7HB9lKh6xUo0Z9pXyShm0pPM/nTvMG9qd6/7UTAYCrVv1kFV4gaZCTKx9OcMG8h9guEoNtTPcuhZcCNHNyqffa9d1vL7quAkCzdaXGoqy2SRarymEf0Q/DtKTsNKBVu3av1q5f2xUwiua9995LfH7ppTmwbTCn7MlwfhmUmGusVMeV0m2JL89XdnWsHEbeefterUg6hP06VYfyT9ioQTmFdCklnYqe98CO/XxieZEYTokza9abtCxDkQ4TfK8DXBbmU82ZczTww77AQeyFpJX69a/PZ167DQRIKZWKdJUKdmG/fwXZsxed668/ATHzzq3xkwJAuONuX42nvwF8QbbnhAknMbfAZ4VtaCruQdC1Bd2gp6xtb3D33uvmLWQHSNlsn4qfkoS4rRm7LGSnTlRAiq2ASNCnZFd52R/76PufnunajEQrOKpJWTt16hRWDvualkUHUK5fQdLIFXQJ0C3q+EH9r3+9i08MKjJddlCxoh6+/yRdUvK5BpSbgTjDtQzOtHbYYJ26586BABrAwwZyE2d1teRBy/6aKePamkMJ0I3Z1DB4PHbvQffqS39DMsGqmm16HAH0hSccdyArKqhs6XqRWlsNKB2Le/XLl58afH/H37EdLCGz6kUX/5r5eawXUMFOoYVQFEK7Y0e/Tm4o2pEdpFqcE2CacV9x0zhOmrSBAFO2pXSGl1HZUmtAeWUdWXvgAadvIHt+ddddfdYCpXzssZLtPrePgl/HrZ3dQw54naXFVAJay0YuRbD7ZyXIMaM3cOrU0B35vsmcH0v8jS6pe/R6Vps+E9vmKURA8CBYG0u+5Y/zs1F4gaTh4z58pY/u0/96FhezHtBuBgxiCBYfMpi87MLLYdtGIWSwbIIXnycct5Rl7dPolzyADEgARg8nn3/kWABNrC3fDRe87OK/ht0AGyli+sQG9BMevhIKyTS0AdZ7zMmhGjx4C++962pYVqvvV8QAKdbTZzyqAaUs49r6hKmaQnqqV68vNz39cLuf/CbvZ5rkOnKAGj/xG/qd1LXPgKoAxfIuVM++sBTAj5JZDBTq1k9eLV9LZvOdh4foQ5Z8acxo4agIvi2IJylLehog8/Opp+28KdWu3ReOEOs4aNDXer/9L9joOOMCrFmL5w6yt8vO7Fk/fsL7NPXCKd0IxqCkZYrSi4vICWPvJD8bEMQRf0oJiZYkDEzfevOxbNeODqBaY91F407OCce8FsVV/hwl3JwsC+rCc6vZr0/Aw9iERl8JqRWQYlkZa2fNXwHbeBQZ2KuF3y5Rqhk7P0KASgilfEXhSUkHcDl+InnPX8cQkE3GCJTm2LEP0HAkulFlp3wXN8z8Aq4TMoTDcOQlsujuMltz8cIb+N57A3x84XYlzQIFVvfI/RUcPiwoCPCrVgSVEIrJbDp7L7oF8fhP27VldbWEJeEeefRdTCSo/YoHLSVT0lJMxulWLVzhf/f/zFzdQnbUw0bczbxc1pmG103dLEOpFJb30LjAHqdNpkvuQgOmzszXRgo+91wWsrLAm64fp8q7rAlKftKVgGTKz+B53buTp5+4HNLc3+biOj9FoQFm2ySTavCgx2lJta1SsjSFJ4RiPEl10GELfff9Z3PtmYQ1fitMy0LqmmuG6DET3mVuHl0It0nFjJSmZ0teHnX37teTrNjw8WtFbFqdIT5+6Z+dHHIcd5650ZWCTiIebirKMt5TavzE/RqvYQT830737fVWgAiIWHFkaQnrunb5xM0veMspK/uK2UmyQyeqwpIPOXDwv7n0wIudMRPHkOwdtLv8rp6H/6zEa6v2OEHHYo5pbylD5esAmr36kk88O9es508DcpUmAa6M/3lxiu5a4fomsJ8UsDwFKHfSpPoUOZSmxeKPaqqSFMYqM4u3hezg7jTzNmbn+ISizVofnhbC0Nrk5tI567R7AYCrHisIx210HgI2hIDzx7vO4NBBZscUjSicglhOVpIc0P9dXnvtDB+j9dM24zNIaN0dvGQ227fLGLBvwbozNc7DR9Tz3dX9gZ/oA/4dJIAfkSzXixfex5xs6kZF+ASoYjZTPixHV1V9sfWzrw0Vuk/PHhlPfEl24IXnjWFF1zrfcnR9pp56AnQmTTossLzC31VPsQkI97c3zuTgIZH7Y0g7vNwc8tAlfybZiWQO33q6j5o9+0x12LFH8vPNZU1agm6juVGrxbZRN2jwWwQ8J4LNc6yYSwG9ddpOTyCIkf6UPB02dCWPOQt2e4yJuN9A2I9XQGgmktQ3/uZSoKG29v9svoGyzc2Bc+4v/8h27egCyjX9DRoH1OnYpvDZrej5LsmOAW15xrGrqiwkElA3XnMKK7pRB5RSkTEd2zbF4bZN7r7gabLO0CEB29Ub9acgEeuhWE+d/kFIW9Va685v58cDDriLpPVThqN8F4kQgVruySdeyy5d/CRDpJg+sLSENMmMaVM+rSXHMcKEEo7nN4riilsXcer0dSwuMfyQXbuTs3d5beubby5gdXXapklAQkq4S/a5heb+KBNHjHsK8HR5l00kO6dNPFIWyQbCjh22GQeJntorrtibZR3oRAl3A8r50lKqi3+xOLqOPwkJY1WnnTmDHTtQAUr5fUP9zKd2xox+qdqHLdT4OCYClt9A2hQp/4hanKT8/NJLc1aRBXV7V13I/HwqIVVjane/yJluRbdvtvzp7hEAmoXRsLIyBstGffXZZ7BzZ7MOtt0E7+QAigWF1IccdBd9RpOfax1h0OuUF1xwCQsL6Vi2zpQMasaVNezWHTqk6l/4h+lj8TOzblsjQaYV8Rh4zfWHc+CgLX7sKn1jEIIpO2YQDaNGfZx6/PGhQJrSFADwyfr1Q6tJWffxez05ceIUtWTJ4e6yY6ZtIHuuImMrI3XhYaUD2U0PHJTyCXM9o3SlphDkyac9a2iajCUVlNT90DRivmsbc2bOfISxWBobS8BUrseMfJerVmXzR2T6aXnSDTCUXD1+8rsNWLcIWWKXrkzdVXMgpMDK6IttNVXaAa14eKN+gIsMbuKaDRuK3zvmygTJDuzT4ytPSLpRfjvpw2l69t5ad99dsyBExp2GZCygoa8//uTlLGtvgMOWlVby41rSdHRv35k86bTzQmX3f8BmsiMk8jKVc8oUv02f3SplF1F41CWltfRJWX8SD/UPINHytA2XXVtZP3T4Zyb50ADA9aQfuPeTOBw69L+pBx8ZCACrIpZeUIYWDt4cSYVf+oisJNyTjr2T2dmeEg2elxLSpbTotivauXH53I8hwXPP198ez+49XR1tAWDq7V1m51Ifddz5iMV+GjCVcPdZfuzBLCzxTDu8wBe3FONxqoMOfnw9WcCqKsu35Iqdk089mbNnH8lZc2a699+/M7ds6di4r0J4joamyAbHswN3nSDw6sza6W8EtJaW0kJ6Aa+dnr5Tbeqtfy9uFlgphLkRto360844lcUlVIBmxK3zH2zTx2DgIKrjT1kSnPsnFZvYTgkJGw499E4aqqDtwnY1KLySes6dWwT87yq8QIJnaOvWdWOdufM20LZJ0bTfhOuTi6phQ1bXr1zZj2ScD1+ZaDRWQzOjDHEuwvy7/sOv+jjFHdaaDSlC0QTLpbDpdm4/FxA7LFkUvKM+XXzDYWqFm9TaAoC7x8KrGYvTlVboZbnS9jRANWjwNyG5yP/l8xFYYOvJAndU5WtEQws+LaWnhNC6e69N/PuTJhg9e3YCAJzlxx0WVD6wQ3ty7GiqiorVbufO/+SEqffoq666xT3ppFm84YbuJHNh20ijyUGoBGVNMze7VfOPBETrb7ruJObmN6Tn4wnqcRP+mXrr1RHBtWb8vZ+gqL/04sCy024slkZCqv1OXapf/1pefuVu/nj2T7E0rLUSbnQP/2mRLimuVVJoLTKQNLRC4akOHbZy32Pygf99hQegASJCDtKjRj9GaRmYSBN4lPEw1KhRa1Jr1gwGkO4hbes8y5bFkEhAL1l2M6VFR4q0kI2JGVpkj25zGic6vvO1tYYlKBILZE2NMYI2sR+Hj9qoAK39BIaGYEoKzWSSqQOPPA8C/7exvGC3qrvk8vNYXEI3Qsek/R6W7jHH3gopQ2uAZK7q2+dLAkqZ7vZpTbEZT5D5BWQsRnZor/Sucz9JlZZeyDGjzuUVly3lxywimfGm+0F/22dwlf5nLWPljMUpSXbi8uWv1hcUa929+1bnmKNuZ0Dg2MwiExCwJHjXLSewaxcD0mxUSqWsuGGtGD9+w6fX37UTgLAi4ecqpFnTWrKLWrDrJgrBlM9a3VplRwg6UmoK0C0qfpvHXBkSIvxg827cM/cHOgD/uVq1IsYVqzJ2fotyILqdu9zFrCwqCKdxwkxZ/mY5fcp/6VP1tybOGc6HzHOLij4ghMdG5WQa0qUUpG1P8X/zvZRJoMirSZtkPm+97ShmlRxF4EiWdzpKnXbmvitJOwhl0cfwBX0wOGfeIczN8et3Qz2iCWjds/fHfGVzWeOEzI8pQewuh+Vdn9eAdgKmYZPt9PSQ4SmSvQCAlYjBkkiVVVzoI6zdwFf3DPDQNMj2FaArGm46AUOp3qMHUzm5q1VB0dv6qEP/45558rlO78GTeOVNw0nakBLbLG8x87YjR3iT15MF9aOnD+CFF/YKW/A1QwzK6mp7FRmr/+eTp7B3D6YA7VpWo+oJvz53xnSH77xklN3/QBaSgA3bBg897BZl2dQiA76sNRaeZWJV7qypbzHCALNdc/Hb/TV3T38qwgwZzoAOSkgJ3an89z5ztpP+DAmmLJPIcPfY7TOHHBlYRS2eLzAwzv3F/rpbN+02wYD6Cs8w83xvhRf8lmRXddhh9+uCkg84YCAZj5sscjJJlpdTJZJvqWOPeEU98/jCJmO8wTg7lr9MQ1ja0M0QcBlP0pk2K2DS+fEVHqcYbA/nzFvA4uKw76UrfDaU3Hzqk8+6CVlJsKrGYmVlDEJAj5t8LQsLmLKlw2jrN4BagEpIupbtKUtq15Ja2VIpKV1HSteNWoLSR4AD5JARZO8+K7Vt38jSgqt59c1X8cX/TDHWXk2Bzy1mk7SRk930WkgB0XQNA0umyed+AJn33DOclcNMv1XLxBvCa7HjmgC3Ltq3to7cOfq7n7OwqsqCbYNXXXEgK7pTCdG0F26rDkHtE8A6y496e3VgTWeiFwoSY9U+wal59tLo2AE0bHaGQTi856yutrlkSZIrVhSwujqf++5rjtmz8zl6dNOjV698ojifQOQoNp/3avTd4uL073brVkggziuuGMO/P3QVH330Kv7hvsNDq8agEoJkT5ARlRASukOFAewDTsjW7b8jSpjNU+214D9hhUPLxKHmGe3Q6XAms6gaKVLfynaZjHssLPzOCi+a7OBTfz2YvXt/RNtqaE0g4GhIRwGOiYtbpCWp+vQmq0+9hWTxJxvre/PllwsRs7H5/EsvMLXmDe63j2zwnN69N5PsHazd9s71+0ssBlXR821GKHF8+nHtjBldnyIHsqFDVGBiFzCvwxPMgNdybUnHsumGlp0I2iS62vR1cLUdtrVT9Gv8VFARIQQpLbJTZ+rCAuVK8bVrWetZWvK13mnnL7n8uK/1YQf+1QX2ZCy2vwIWMTvvAP760nedR++dDJidsSWITIC/476nlLOswzuG6jsdXuCXSnl61ozNW7ZsNGjxFijkfy4SXIPz9ccj1bChdYy22dzOgxBUfj9fLtj1dZJBM+coRbjN5njx/MwkyQm89rw92aHzXiwp2Y8W9nQqh53Is0//Wu+x59d66JCv3aLCrx0p17m2vd6V1npXWuvrpVyvpLVeC9HkUFKuVwLrlcR6CnNogfXakuuVFf2etV4JsV6LtO99qwXWMTvLYbeuZLduZPfu1LvM+y2fW9kr47oCcXbrloRlwW3f8XYmkqRo2pfFkZarhPD04FGmWqmFrGWo8ICDKUElGik8U07msndv8ohjpgFoErrxEyIm4WBYkDMrGSHh3HrjmRw8wPACQigtMjSyD2pzTVmcYkkheerxr9Z9uaEnALCmyvqQLFAVPf9DBP10/dAQhMPcXKr5e1VDiB/XUzIkm5RbTzrleJ2b62kBk5kVfiejnBy6F110C4DGXZtMsPabtRM4by4JpHRa1giem5tL57Kz31F77PaCjuV96iYSn7NLOQO2Vw14PtOqF6DFfZdYucLU/+mgU7xMZ4YNDxGxDv0OTvU9+5xAMlbTwi4XKMGPX3qpkzNuwhrG40w1wlIFkIL6sWO38o1Xpkev++cswcP+OZnD0eNf9WwrBGR/10P5VRa6Y4dv+dozQZa2aSaPTPAXl3XhJWdP4F23HcEl+/3NEeIRJyb+5kwc73FwH+M6WTBH4/stg/tskbBJIf1nQIb3v8n3gw1X+ofwx44+U1ZQZyrSD8O0TddYNY4LKCaS1J07reWYyr+ps07aZytQzltvrWgMSWI1pduuyx3KGARu6DUIMCUlHcvSzC8k99r76ubWC0DITKL2X3yCzs2lgqhnNOxgW9QCDufsuoXkWH+dQ7zfNt1GYTZAklm88ZpzWFFBBSjHimlXRshCfcp70+5SekGnQh2P04FIMZ6gPnLpW7VkN07x9cPUXXdjQWFaTsAxkC7NLj1Wc3l18Y9WfRGcZBPZbuvifbZSCOqYiV1pKTSFUBw7YS3JLqTp+5r2+yqjLNWf/nokO3c3vWlDllipaUnFcRPfYS27+ecrdG655XSWlV2oe3S/gQfuS2YVUcUtKttO45FriA1ZnrYsT0upKYTWwiQTtCU9nzPM8etaHS1EioBSA4aeSjK/OXOZpPQLuNur/fd+lfFYSOoYfYFdwNP9B238/Nb7pwL/I5ad30WMZI7abf4DjCe22ZSn1XE8KTWzktRnnvg0yXzYVuCSCnXRBctVPPt07jb/OQ4cSG1ZZCJhlJuvdPyN0tGAqwJPAHD9++/5L1uTgxk+29FH4I4yqBwASNsiYzG6gMdhw8jZM/9GyFO5aNFZrPt6GqQAbBvuvF3XEqbhVfQZC2tvO3eivuW3FyMr2WwpHkl705tvTk4NGfgJIVkPpFwhXVdI1wFqKUGnW/caCBEm0qJj8cRTp7N9+9MVcCr7Dz6Tl60wrMaAYLVP8Pu7i6excrBR7j7IPjpfF9CeAJmV9PkopVIRSigHwmFWgu4ZJz3jFyZYJHPcfgP+Tdtio1ieYjJBddzRJwNNLdIf5uEPSDV/ecauzM6mI6CVsPwJCU0IOvvsdxSA5isSfCuqfuik47VpPOyEAVo7pmlb5Jx5n5BMD7hlZYFk//q8Hr3rzj31LpaW+On8aCA2UvCffrj+g97gVhmzXrOwkLzwnH2jc2syZ9+EViNGnsy8fPPQpcMIDLHpgEGKF148H0DYmPjnLgRsWBLOxRfexexsKsgmuLHvfPhuDotKqE489kH+7pbzOGvGuyqefJ9dupCWHb5A9YY5WPuJLZPgCijOd8RcfuAjaOWoAY+G5dm3KAXZrj1Vz+6OM2bsP+oefGg6yUq189RviKakta6UngJcDh5E97EnTMgkA2Fq+K5eddVojhn7toGC+X0xCgqoenT/tH7//fsDEFHkAMlsfemlv2Hnzg4T/ubSqyfrTzihH4DA1ZUkO9f36/+qC2hlQk2N76tiUTHdA/b5JW+67s/ugCHfMplgndXQ/0PHbCrAYacOtc7Vv5kYWKucvduujMVDJuZw/QSUO3zEJ/weTb+27+E3pqTlzJj6CgU8FwZorC3bYKomTU2R7LitwCKrp9iwLajlx/6bsSRdCKWETGtYo3fd+R6SeayuTvo08AF+Ka5Hjn1DRxlghaDyufL1Hrtv1Ucfu1nvtmCz7tN3i47HU8zJNc2HLalTUnhaCM81QXOlevV+m2RRs9adHytJLdh1sZeVaxodhy+8CGpjFcs6kIcdsxDAzx56EkjQQN3Zb8kyN5k0MCLZtC/r9zt8hgwIUjQ0qlGA60I4yvIbyOwoJfuTOAS1tOhYUrlCOL5laq59+AiqC07fp/6rD/vo7j2/IeApS6bV3vqUYooVvT/gXfd3AZC5eb1vsX1J5vLgZfuxe5/lzrBhp3HChKXc+B/Tw6V6SRIAVpI2H31wP73zzv9iaalxywVSlDK1JTu5dkvXrh0BhHhatfzos1jenq4QjookrgzkSGhKydr+Q8JWqClyIBct+TOLiukIoZSpxAqbaTl7zn08KMMjmcVddtmoAaqY39RK+AS5HcvIc05fzmiPkR/k4Q9icPfevYAVXZQKWBcMh5zLwny6p590DZLJbZqbrK4OXMQBat4uq2nbdH3MkRZgSgqX+YV0ly9fAQArgZAcsf7o089gXj5dIVSA1yGgaNtUs2Y+SLKMZC7JHK5cWciaB/rq05b/hgXFm00iBHRNz4haFheS+yy6BsispEK6+k9f2dUZ0FexMdZOCLoQigUF5Nlnnwv5IwdUf0AJHiZ3+vzd2b4jlbFMdrCy81+SKNmkT0T5v6Xgmrnu9DXwtJQuAdcdOmQdyXz3/Avnc+AA082uEcuKFlIxZlPvs/hFkmVshsWkcQ/cgMk7kPVkgTp4WZXebcE/2bmTIcwAlLYsTwWEBgMHfRwoLgI2yaQePOhumiREer9aASohPFVYXMu5+5iOhFVVcQAgmZUaMvI5D2BKCq3hdz8ToFtcspWrP6/wvyd5yilns10JU0KEhKe+YeW5c+eu+a5QptY9/AyzrHG1ZN9nKCVdaSn/RmkNaKeiYh1r13c1328FONK/Eak//WkEe/ZdFzzsHgRdQ5Ht6oLCVOqwYw+GEHhjwIA4uaHYHTR8nV93p3VgOsdidGbOfCAAC2cS97IrFqjOXT92sxJfsl0Z2a073alT3iDr+9Jvtt14fgxaDk6d/omJ+0SyZyFdt6A+5JA7SMb8h+FnXy0QVlLsc2CV7lCu3BaaILUdO/AQglpKl3nF5NIjjgMAnnPqUexcbsI3UUvXeEMO83KpF+11PoBmPQsG/TEiOEWuerZf6qijLknlZj3Bjh1CQ8C1pHIsaTY4gBw65Bv14F1Hf0gWhCiFlc/14qRJVECTkEKQuHOHjvg3yezgfQgaFtVd/Jud2LGzE5KiBu9RhzKXF5xvrtm8dz1SQwZ9RQjtA5CphOVpKTwnnlQ8+IghwXd3/AsQ+NYPryx3O1d4rgnGGiiKHzfT++xfAzu2XRMIsGnqwTsXs18fOoByLNtPgviWVN8B5FXXTQAAd/7s85mVrTWM1q+3LM1YjM6oMY9+TuYAaChKDqAwvjXp/1927aVnduPp1XvwmpuO43M1GYvWGXSfj8ehF+x+G2MxpqTV0HkNwvw7J5t6wfxnSca35cb/XCRQ/PX//c8ANWyoeRGk9YNYdm1H08NnGPJSc2aeS9JaRcbcZUfcSTtO12/lGXxXB0ziHbqw7rILZgJo0btiTZUFIZC67bqDOXigG3Qo04adXCsp6EqLCiALi+gsWHDPli1bhgEIaKLMs4F4PwKeQlOLX0M4tGNkn0GXIhYLeQED8g2Stho+8mnG7AZKLMBhXj45esIvAYBTpiQBwD3xhDsoLWrRUCWiAJeJODl58v1IJn8YUoGV1dU2LAn3mOXXMZmt6wIz1ndF3E7l9bz33sm+kml99sQvvicp3UsuvpJFJXQidYWuqUP1dP9+77vv/Wue26HjNyo4r5+BU717r+Xbb1cA27jZzSjiltwAnnjKQp2TS9cQC0R2MROk1QMGfkTWmXP/TFlPosKgEoWMq/ET/uoH2Le74Uvb8d0Pv/cLnckTz/B7RkiStho74QnaNh2ZnrkNKdi6VLzEz5ljFFOzCUMJIcGpMw2zEYQTJWzVhi5es6jY0+ed+cuw4ihIgAR/5ub2pwRdYWdQeHBYVEg9e/YvAKRZnWFY6uSz5lHY1ICP3zVkCXrqpD+HQHNS8JlHBqrBA1Ma0CHAPVDyw4bU8bE/j4qOu2NeAvPyC5Ilbt9Bpv+mNNxxWgiXiQRTO+300DoyPyD2267xfVcQAPSeu99quOmEa5SpZMo2PVtV106blCWoLT/dDzhs347qyGOrkZ3dKk1PUlSbejzbZ3PIDEEBROqjd4dy5KjNhtfO0lpIamGyZBpQbkWF515//Wx/jX5Q+EljUO4Pdh4fwV9/3TXHsWMHUuzAjGzb0TqF5yft6vv3PzMKGan7/J3uHDjwswC8G/2NK6ViPIv6kCP/jqys5jd3QEIIqF3mvk1AaUvqaKWM67uOHDXqvTcCr6UxmSiA+ni8P6Wgi0aWvzGAHJaVkcsOMdZaJKbNkHmceWrGzE1+ltpzhaUoQKe45K+IxRueRdJydtnlIcbjVAJRaitTyXTG2bcFXf123Evgg/y45MjZLOsQMjtocyhdmF/Pv95TBeA703OT1XL1rbcmvyQ76Gk7Pa8BpixLa8vn7G8EKQnJIzt23MLV742tboGFeLvnAkjE43Amjn+Mwt9xg/Na0mSR8/PonHLsKbCsHWpSM6DWCfpELFsWI2AHmo6AnYlmZ4edH5CQAk7PPq8R0Gl8bW3Hj6fwhKDq1v1Mv4xMBhZM6q7bDmanztTS0k4Eg6pMLwjFohLWHX/MMbDtzJ6L38Cd1157Ktt1pGtCSA3jQGgKkFOn/Sf8fuPnA77CM7CuzAqvXTty6dImCi8Yk6TUEyacF/R6UVJqTwg6vfu9zfXrCwA0JEn/et9uul2J5wpjdPjvv6YQVJUjPyPZYjPz7/ISCEgJfehhz0VxQVpaHgFPzZ7xKazv/85z1aoYSYvvvddTVY78RgNaWVYD8DCKyfHjhm4s9nFQh7kj6JZYU2PBknAuu+Q0lpZSC+mkNcmWwmEsTj1rpwdJWmxcz9mac/gEjgx4/ra1O9k2kJ8PZGU3UXMMmGl3AMA5eMDUihv3YUWnOkdK15GtJ/RsO3bMofwYnpo376zApQXQkDXffc9fE9CpSKhBCUHHjnkaUGr8mPr6+o29o9ZZmDgADCVaFa3UsSdfoXv20MpPFKYpvMlTX81UcZHm0gpJp7HCQ+DSFpELFlwAoEkiJVCAdWf+4ih2raABivtJkpGjyBVX9vSfR8N/Z9lwp0x+iYAXUEf5CRuXnTs7/POdhwPYMbXq4YK9+mq5KirdQEga3jNBVwjF7Dymjlt+fqvKUVpzviCDdPf9e7LfgIYsUGOmB1/56XYlW51//G00M7Sm+87Xum5rZ9Wz73oNeFrGQtZiLYVHIagnT9yc4pahALaZjQ7jEYD0i94b5iiFUdLxOEjGWVMT58qVFTz/5N51Xdt3VzeuOJuHHXGtLiu7KVXR9aFUu7K/cuyEW3n9NYfz1qs7kLSjGw2XLYsFJKvf6fp9FpS68opfEoKuFE0Kzls82lzf73X4+DoTlK/oSveGG3ZrzAFnvI8EuMu8D2jZDfyTQtIT0ihLIelOn/1HWHYAIUlLpoXeQWEh3OUnrCNMdVIjhfdKeL70Z8S8IyV5fRmLeU4GDkQFOMzKJisqqoGmCm8lzeZcT+7GwYMd+lAvJeDpZMJj5cCewbl8a1ConWYuYU4+FeCGyllKl7ZNPWzYXX4z8+9PEGoylTG4B+1/AYuL6EjhRhIGWvXq8Vn96tf6mQzljmvwASngHL38RC1s5ZeBZdpJXObkUE+aYnaSAQO+s2nrM1cYfNHBS5+hnWxc1uJpIZSK2eu4yy6m2LoFBR+UojX5DymRIgfzhpsXqsEjlqmSoiM4Y8Y16shD17vl5euceHKLG4/VKiG2sl07sqjI1HzCr+2MJ8miIuqsnE1q0T4f1/fvfyzPPGFfkh3Tzg9YzQWum7t+/89iLjtoAwF6GdpXtvCyBlUE/3cxPyHoCUlPSjN3U3qofFDvj39YlvZsm00OyzJzjBy0LLpS6pSAQ4B6/u4PIAhvRJWVv6Ftvf32sbq07BttKn4a4EJS0BXSYUUP8sbfLTO9KpoaAgRs1tBi566H0tC5Oa1SeP5muvGBR/pywkSTdGgES9FSuISkHjDotlUmPp/p/BIANPC6gZtAKyE0LYs8/fSDw2sNgcipoe6ggeuUafDuJzosOgDZu6/mAw/0jc7vO0moLe0YVPuyRwjQsUTQKdxlPO45e+zxDwA7PDVMwIaUcA49+C/MzTE0RE1fMk8DWidy1m08/IR54e+CMbaDDj6MFxxz/G6eQZk70ZI117zMdPbf70b/+02Ua0CVE91lSGZzj6XdamfPmMj58/+hpFypB/bfwMGDDbMLMpXBmWJ1ZcqnHFcI15VSKUilhHTdoCoh+H7PXlQ9en7EGTMeq//lGXN5660VQWs9ArI1XeKCOfOoC0vYrZeJWbZGcRnXwjSDKS8nYwmf0v57Kj0h6FmS9Jk1lID50z98BWtCKiKsjU3rOhfiyILDr2s1rDryux/RcaJHhnup/HllsuaiRzjXWILq0CVfrCenBM9Uk3sVVP786vwLWFqcxpasATqGlIF1I8eu30T288dpbKmZ8IWUi2jZocJzYWJjnDzlleD5afSMB5UQXXnIYes9iNA6jCg8Q/s1cuwbX5K5Ta7Dj1F/TeYxK+tdcw+FVgKKtsXUTnMuZQTtEVi4zuSpdzJmawbXKy2mBBRjFt0zzrgpujbNyTbZgHHuucQRR4zB7Xc8z9ot5jaahfBkXoHEn+89FlNnXA1ACCG8lsbbHiEpnhTCmkoWYuLUx9WzTw0UUgrpeeENEAC0ZdHyPFGfl7dV3nzzsYm9F93Cs88y8zYxPQESLc2N1dUS551HkD3rO5c/kPhs7UAthSc9SgHAs2IU8ET9uLH12c/8swuEWA+SQgiGY9TUWFi40BMAYVmgUpWYN38XoH5XvPL+KP35GliWBbguAMADXATrL4SAFBI6fYpCmEYDGecMEFJCetQeSAnEEIsBWoDDBkEkEr9B+dDrxZ9ueBeeBy6rjGHFKhWdc6PxhAC4Ef1K8uWaT+HVJps5dWR+gi6oYrYd8/JKXtLnnn6fuOHuIq59e7n8dqMlbBtCqW2M0ngeAp4lPGhPCwAWEIMQPt2sBIQE4jFAu77Kk4AlAQXoknYQZSVgWTFUaRkS7Urgvv7qw9Y/n39J2paABOEBgISybXjwYHvfwSDwFOABkB4kAHOFElK5RjtIITyP5KJFC6z8osG6vh6WZYECEHSBz76CV5+CtAEQUB5hx2PAhvWvul+6121Y/cqf33zyya+nTZuWefEEsGpEZaxy1SrLGTHkb/FX35riCaGFVg2ur5SUgHB23eu6+AN/PBrnngtx/vle5P21BaBqc5L7ZaXc26G0SyDmCeFZgPQmjn1NPv3cMAghhLnayD1CTACutmK/lJ4406PjigiNF6UkPA/oUfGVXH7iCHHMMZ8FzxcArFq1IjZy5GGu8/w/j4gdevi13htvKCGlTc/T0rIsDBy8Urz2ynROmWKLp55SoR66/PJROPu8f7Fuc4MeEtDSsiyvvNsrcvWHEyBEfeN3s9UScu8fe9SfGIubBr5oAATryZPeJ5n8ocC2YUzt2pt7cNCggEsrbTdxLRmWpKmpk2tJdgkHyM0Dsg3/QMt1vdU2kgnok0+5nQUFdH0GXx1YMEI4zMur5dVXHEi/D0b4W7/1JACgoAB1J5+8k5o65XHdqeNmlrQLynRI08xbaUBpKXZswbsJMWgFKMeQJWrKOFV2zrdu1z53vV99+Yhwvs0xOAcW3ntPt+O0SaSUHjPNUYR8f46xSGLk6InPsLomFwAggG8XLjqenTqRQjjR3h6tdY0JkGWl5PQZVO3avaohn6yX8qlUt85Pcp8DHtcP3vlk6qYr961LoGd9aWlvJvJ71qGgBydVdeelV3Wve+eV7p+T3Un2RHFxyw+ZlAiZsr/zU+zHYi0rLXH2NZlHsifNXBqOb7/tzlfe6c53/muO1asr+N7HPelbQ62R4D66zz85R/Xo4WoglWaRS0kN4XLIYPLF5+c0eW59C29zac5CxiyPMJAPU49uke07vOR/L1OmNwYAqZzEBVHrMHpuF/DYvRtZOaBr43FWBTCbGTOOZkFBFPWhNeCp8s5f8YGavvRZokPUAlms5+xieh8HRQnCuON6QD/FW24wRLvfBSIWAf+VqvKKtyisYEJUQIrFhVRjh59CUnyf2Nk25+G3mdN/qrmIPXtRS+l6lkx7AT3TH0G5tu1x9uyPeeBhvfnQXX3U5El/0ZOmPbyx9pvx4ViNpMaH3NQ+99wE3adXLU2K3DThEZIpv2G2u2zp80D6jQtd11gM9U88saczbae/s6xD6M64gKOlrT0/oPyDx7AAKglSSioIww4tBTd17Krd8866bQPpc84126PDIplQc2Y8QKN86rU0LqUWUI6USsFAdJiVRfbsk3LOPvOOABbAFSuyCdi85cY9OGSgeRFaq9gD1zgWoztw+EvcdefF/Ozr/Ukay6G5VoTben4AyW7dkgQyHt9p0JbPF/s+YxOt7wUbKLDahQuvZm5Wk7CPj6nzVNXeTZQXq43CVHffdgCHDQvL1lwhPApJnZu/li+v6cwM1UNh1dLUqeczJ7epwgPoCmjGk576w60HR+carBEAOMBhtKyG3wu/sVBRId3zz7gasViD0ROcc9bkU1lWSg2R8nxOS1dIl3aMnDX7At8A2f7kZRjTqr54Pvv0M1z7hpHE00KoVNfydfzsqzn0GY23+wTbMxfAggBSleOvNHGRpvE8Twi6fhZVJbIcN6fApWWT2Umm9t79IZLZGXvKBsHTiVPvo5TUEdyZIy3tSstT7dv/t27l33oF9NwAAvJDWUf2Si3e7zr27RPynikhtM5QcvNjH2FsBNBsV0I9YfqL33743l6wROYubL5F70zbbbyev+vXLComheWTXFqGxqi0jBw7Zq07ceJ1/Par4WllfIFHcPLJi9mjp6/wWmPhCaakrSkFnaHD3tn4r7dKGt2jAMJjB43bawKKouCoqrJYVRUPr6uV1ppDTkm98tL+qauvXrhh6X6LUn2G751CbLEqLz+E5R0PYXl506Nj+SHsWn4IYzmLU7Hk3rVTpi+qPffCvVMvPL2Y0VajzcCkCEjOnp0I25YGx/YC9qurpV+l1EkPr/xAS6ldK9bAqiKE50jp6dxsr/7ma0+k6f8RwFSCOvFReswYA2aW0qPw4+IlJdo96JB50fsanteHlejzqs9nhw5+vDtynwWopNC0Yqxbtuw3QBOFZ5HMdieNu4M+lrfxxqcHDazj/2PvvePjKs6o4TNz7+5q1SWr2rJsy13ulnsT7gYbjDHCgOnFdDCdAEF0CCQQCJBAenhJsSGBhJpAjIEQIKb3kpgWurst7d47c8/3x8xdrZotyTKQ9/3m9xsXafeWKc885Tzn+f1fhqfeM2RN37B5garo9ZUvrKUEY3ESoD9z5obQd93pFkp2f+7c2wiRKhhMQNNBsGP6rPfCyevaHTrxLGEwgCzgIQdtZTRK5TiBQpOTWhm2ZSalLQIO0I9GPR/wvOMP/SKMYqZHkllfL+E48I87Yz6zsj1PiEClmcw+4DMaCRL7LzKEg+GGtu+85fWXJqp9F7/DeJxJQIf1HZQRfN+osGuu9VnOMQiy7hBu3LhlkR3Xtg8qIdBI9uXBB89NDBq0Px1nPzrR/fyhQ/fn8uWzSVaEH11XsyKShvEyNVfjhQcylkMlZIdgLSY5XGr2KPt0+6pVZQDA6uqoPVQ6VPav2Vp55pl+LBo6kKNHV3sjRtQkfvWrX+oTT/lzQ//+f/RLSh5nWdkzOjv7GcrIM/6oEYo1NWS//mRpKZmV3VR0JpZh/m7V46ZLx/S8fLJ3H3LUCDI751Udiz2jS4qeVYWljzYsO+zhbXfccT0HVFZz5LRB/OyDKhT1aPbsqUOjK6VGQ57GX95yNnsUMZHGLGJJOAIFUC1e7G0ixxIQ9aHQC7ObgL+Fh7WhrZKGjGPp/g/VN5FyNgXibl8RgRDwr7zkCpaXppShZgJPuJqOoC4qudney7F/m0yLCQty2XeADSYZ95GWgmE9aFb1Ix+592AATWUV7Dwnp838jxHMFg9shHTgZ+f4jT/+0VzAWG6dHUuQlGrkyM00DA6BPTUUpSSvu+6yLquPXWipl/75r6f5eTmbNeB5jtNuBMxoo/BZWEzuV3cGgOY5faHPipTca9ZztO/WJCSk0RbnzvmUpKgP8Uf19ZKsl8nf3zPWnzxlm43E/Q+kXwlqx5TFVHP3WU9r3ta3jcbfNdONofZqSbhgMFP771NPgAmnYzm4lgkj2Hb19U/CdTt8iKYK4EQiINlPnXn2+Zw5635//LhGPyNLMb/ACqW06CpaR1IN402qRkrYOwI9US17q+tLSToRMjuXKqtAqWlTEpw59X5dt/Rqvv9+ebN36WIuNkmB7CyovRe8RDTVhk7bD5qxGP05Mw8AkNK21tgcdm/hfo/RdQMFky5q0zYDlpfTX3nBHADNop+hSZooKqq37NetDjYNKDqSnDzhyfTvp7K2br55GR3H18IwZ/vSCRISHl2H7F35sX/77Utb0lgxzNC44doraMs6hPtdAx6zsshZ82+FQOco2kLhkrj2qgOZlasVEARChulcmuW9vtpeWVOePnhfRwtN28R+dWewoAeVG2lX0NiEaqoB/deSjLc0F1L0R9dct4TZOYZ/LcWtZzj4Gc/c4p99/sLQ4WuxenIdGWk47NjXCTDhRtW3X9iFJ6+k5zqKsQyqRfutIZnf8vROjQ/rJZsyQZr3nWCd6kmpluz7BYU5NHb5TCY4pDl4KLff/af5LZ3rba4DUrLOHrSZcegr6i/VtTM3s7AwFGCGkw3QCkK3JZhSPWRMblFBr3PjKprKjYacfmndlyKMKdv1BTI/j2rAoA08bsXFpC1n0FXAeF2dAynh3XbzdF1YskMJaDbPSlKBFPT79nue9b/MSFUctAeLf9mVC+lG6UPqEIqlhAgSgNaDh27ctvpve9n7RFlPybq6KEnHGzb2F4TDlnx4KYEnJdl/8FoAKW2SMEqHHjT4j8zIoIZoZBioysok91nwCtesGW2/0+aefX/69HLdp3ID04KYqfq9I4a/vY0sseukYxpzir2ktvZnjMetBLc5clJSF5fdhXhGM8xbs+/X10u29LE09S4X37CTFCFZxIEjHlFCBn6LimEBQN9xDN1Mdg63LV+2V/pgpV3L5TvvxPSgofdbx6lPu1E8IczptHDRP2xicjM8UMO11x/E/B60Fcu+eUHW4S7CqJbP7GwmTj7p9nTHcJfmxM7l5g8+KFhHRvjb3w5TbixBINBtoPBbbQwhVCAEObT6cZLZnVkfm9a/PVrvPXdNWBbQNxRHRog18ax94+Nuc87NQeo4gS+ESpUczcund2DdOyT7A100xQCzRt0IvIUL7yUkPdFU5jCADWBk5ZCXXvld+/lUndwdP/tZT7+6utE3zMqpOQuFSHLosM+Y3Diy2f0+/7y/P2q07wNtRvO1zQdmccnj9n5uyg/35Xvj9Mjqjw2hrGtqlIweuVGdctIlYaS6vUgrARfxOPzi0t+mA6ZTpQLKy+mtXDk1NSa7HLgmxH2+HjrsdSMEbPoKoJmVRXXUMWcxrZBH+nebVf1q6bRN+7/VFNww5LzLBwu/F3K13Xjj4GRRiWYbzLge4DMSoTr88LtJOi0rHKVqgy47ci+WlNGHVNqaO0pIU3ikRwnVYw8cwZBPr75esg4OyZ569Oh3KaD4P0qISZslo6v6a65aVW3nY7d8sSEQmzNn/IyZ8TbNnDaFAeDTkdS52b+0z7FTU2QV4HxMDvLOPG+SN2DAJ5QuCaFawpX+F7rNVvIIUI0a9Sr/83qfrqZo2iCO4BN/r2VVXyZb0ZlJ7QGBmjBuA8nyEJTP+nqJ7Gx4M2f/km6UvjTR/QAhq7KNyg8d8qFaecqJO276VQ3pjWtcfuDdBOi1sweMhifIIUOetPPqErUuIKB6VdexVz/qioov2K/fI2rWnDM8euMgRbiW2s9gssQZ6sijz2ZWVrNiUtYtEfhHHHWNveeuxzFl6p1w5iiW9kqEpp4GApvi9AW3fTSSZDGAJgEZnkyuC3J7OVesmOkfc8xlXtWAS7zcoku8IdXfbTz6yCu2fuc7B2wi8+G2FuApDbC+3t1lbdiMDHjnXfh7ZmXTF0JpIRgIx7DFOpL+Pvu8RbI4FFjp3w/9Vrpm9KMmZ7Sp3KB2HEUpA/+AA54j6RJp7+e6SJx+5k+ZnUMl5f+OKdtG90J68EOW/p5kdHcyZVJr5p5fjGevii3aMFd3SAAZgeeQpaV32TXQrsBjfb2LSASJRx74LocO3UGAnnT/t9lchKCyRds5ffrbJAsgRJdYh1hfLxGLgUsP/R1d15ZAsPeRkklAMTuPPOr4U8PxTLGO/3b1GFVa3hiaienaoXIMFRMLCqjyCrbp3hXbg6hLJUUqz7wNYa7oOAGnTnkIAEIz2s5xNqurq3n++ZVM0UWtcbmLojxNyti2Em7/aJQGvrQBj8CuJU0BquFj/2HziDsg8OxN1dFHXmRVRmVfOiAk1cK5b5EMo5UifBn7QBX+0cfcpYZVv8+e5W2nTRUU0K/s/bJeuPC36tprz0quWjWCIQ20G0FYoT3teZyUeRxGl4yz2tlB9lLjJ32gAeUJmfRDMOyUKR83/uaOfrz99kgr2vYw+PGzO2eztEwRtqYujObjA5p9+rHh8afraMtMpgb6pjsrGopKEwrQ3V/I5uvtvg34+MMGbW147clKO3+d1izSQKFC1Yz/h9GSO17CUZs8aery0tXcCftMKr3ouuumsqoqaaJ7bcCT/ke7trhJf5/FP19Dul3xjYdrvfHu56pUr8rtukUNEi2l1lLQnzzxFZLZrDNpkCFaQZ14ymo6kknp+OnaoRVgQYugTLvrX0PQl9LgV88+4dL0+WvzuTsR+AxlzjoyohbN+3cAwdAM1ybFkF5Fz+3Jt18bDXRgTYdSkSNGPEZTFk9ps4g9upGAw4YdZxd5E0RDSjReedl8jhn7MeOZTUVAWjpwhUgDrmaQ+fn0M+KNes7Mzf7hhz7jj6q5nAv3PZvXXLmU99xZTjLW0iym4YNr4gf7wQ+OYEUlmZlB9qqgN3HiS3z08ZkAsK4FXYx57lp3M1moD1r2GKNRo6mlJtU4T9XSA/9utDuEKG9JMu7NWfCYBgLPcf/nC8xoKegLKObmBslLLjkcUnY+ACUEiFoXmZnQN9zwaxb2oHI6RxiqDZlqwJoaj8++OAwAWNeiljEpSQqPHKdHjPg4AOjL1r7b/+luMK5JDhnC5E03HQchupQxQEBCAHpUzTWGGr35oaABzR7FVHf96ggz1mlYQLKvN3fuF4RJLmg1jyFpyC60d+04AQGlRo/y+MFnpohPcxLRJgahLuS3MGSAGTToOEon0KLJj6cAj2Wl5LIDTgKw82gtQ6Zfcow/YMD2ACZaw1C6961i4jv1B9gXcGlp39Wf771IV1YoO1CelkLr9gCnoqk+Zyo6k97dCDmgiio/d73Kz39R77foCXXed87jtIkjSVbAkU2DtsIItB37HTaRvUpncumyvVLZBG2BjK2Z3Pib3wxg//6GekoIBhBUrmOIPQcOIh94YG9zjVVOyly7/urD2aucVnB/8xukG3ron1HLlv2x06yxlpofjgR/9INDOaDK+FO6kDKnbREmLl68vyW8TE/dSx2uasHCp6xf6f9KynlbkUtz+SH/IZkVas4dnpNwzQJi0+9/P1YPGRooQCnHYRoCQVFCq70XvmW0vCb0AQB8+eBfZ6uJ4zczK8tW9hNKC+sn38W696UMlJS+Anz27EnvzHMvQSTa7UiOFG/juZfUsaqKqWJAAJVxSVEdesB9VmlpfwxD07Rh2bJDWVxsLgRL+CkEWT1kfSPZn4AMc/mSxxw2XOcXbNQmwtNpv5YGAi1kQCk1hcWJpavOrmt6PJNq7zk7OGL89bz2lmHIyTLP3Fau3y4KgDcMGf5dK2xt1TXQk8Z3p+bMfoZkVrNJcl2o6iFv0LCC7EEzSoQMMM2r1++pDWZ9Hhw8/B1Eo21mX7S76OxY7njkwSWqpGQHd6NerRZSU0g2ztrrlfDQbXYz1wHPP/PiAJI6jazy/7auLb0Vc/OZuPzaoTtby+3OSxOEKttftN9TlE6QlFIpu59SRX+q+gSJu25fCgBcY7OqrLtnK78coo88/EfBsGFkLBYqI56tEthsfWohAy2ECoNUdF1y4EAmT15xvT28uj3PPi1LZCCrB6236XBaw7hqAoDesCFf8PPPTcS3vWewqqLkuLHfYywWqJCbC1B0XG5ZtOgxACneuc8OOLRK5+b/1/htRPeZeQZUqO1AKl9A+xCGPieWQZWZtZXHH/0WH3twH+TlYhXgsKYm0jIa22ohAHL79nXlqrLXB76BB+jU/SAClpaSl313MQCj6j91b86HZJxLDz1du1Hfl9Lvrs2mhF18Rsh7vqE9CihagWI9BXgawteOw0Aa6IwFW+7uBjMYph7FPu9YNcu8966d5SHuK3n/n0arwQM2BQA9Rzaj4O/Uc1h6KR94O32BEhD/JvN45z0VetjgBi2wS3NqjwmjPXx9AvTDsglSBg0nnjgdQJcgQ+Ec8me3L2XP3gZ1EFKjA6Tj+hSC/qxZN1ktqEmjDu8nJfjHB/t7y4+8VxUVv87cvHaozGzPzGRy1Ch6NRMf9h/5075wXexsP3alsb7eTcu6MMrZtBlr6ESaiE1gqygWFpOPrTFmbVsBoHCRfcpPs/zh1W8ToHKEtpzzmrEM7rjwssVpJ0ief8RR79ONUDvRr8V5TEemwvgEyOHDyVuuvoukxC4GljU1ETgOvJOWn8ayYnpSeKFpqoRrykwOHbnGsg+bkP1rq7KT5Nhk/4GbmSYgdusdLJuJZ3jejBCXDpmZRRYXUQtnoy/dTb7jbvRj0W2sqCDjsVTN0KQrlJZS+5bIoRs2ss+MONXI8WeTu6jkHpqxAHj+NX05bORGOy675U+zfiHFnuXb/bvv3jdcpAQiT5Px5Pgpt9KN0BNO501Zc3gG1p/cka5s1TDLwydtN5x84SHc3ve749CnlPTGDJ9s92XXsy8yMqBnzXyGjkOdFs22CQT0qkeTZI4tqpPG4VjfLIPqSzKnYeS4Zeqis/+upk/c6CPyhZ8Z3egDn3P2rI08cNlN7Nt32ZdvvT67pTzprpZ+PQKOJVmQm848Zwmj0dbwFNcNGhfsex3byAVudkHWzMnTJcUJOzBMCYVevRMcObkk/Lz3lz+ewR4lVIZdpOUm0hrwdEeQ9l3oPhD4rqs1kGRGJvWM+Y+TzGxvkFM/J4U+YMnrBALlWCiKsGkppeXkscefEKalGP+kA6/+wt8yK8P4jXZrMQtjugGa0hJG9u5Hlpf9wRc5tyZvuu0p/utfpxGIsU9txjsYEOOaNWX64Qd+okeNuM0vyP8F990n3cRonbTdFWHjSK0F6M/a63OSuTtLYg83QeLccwezvOLfYYGj3Z9TQR/CY04O1bBRFwEAa2szWF8vk0+tPYr9BhjhIzvOwGwXvt/sgOxoTycJFa7tjmGebic9LW1Odv9QlJLesNFT7Jh3TeDV1rogxfZptYu8eGZjS9+zBrSOOLrxgjNPBtA2K7IlJ0j9IC8XJGNEdZQLBsQIREnGkJHR7L67xTrc1rvY9bj1vt8d4P151eRmv8sqKVWFRY1mL6dIUH26Ltmv8nfm+20wj4fqp/eTW08LMrNIQCukuM/YOGf2y5vJQuMEXOVwxYmvE9BamChuOJAKIiCEyR80N6dvF58Px/ccoXwbtW2rVkWHN6oAA8cx2KJ4nDz0mBnhJLV6N7uJ+cCqETonV9sgTBCYxa0poL1RYzaTHE5AhOUbk9u2DVfDRm5TgGZXhbeh3NapkH7vCnoDRz3v77X30u1HnzkKWXEAwKpdVV7KiIHkyMTKlQvVQYc9y9y8T5md1apebqc3l5kfxdwCqp/ddD7cCDZs3WqQ6mlJ7QQkXBe87rrRuqLXJzQkCd2m2SshfAoEevjgW14joxwwIAYA+vgV/2xKbO+4APUEzBocNYr+gP4NWuAVuvItJfCmirhveocc8Kq66cZX+MObX+ONN73Gm3/0uv7hDx9ijx570XWnecAMZmRMZ0b2dGZkT/fc7OleRnYtgUk85JCT9M03v8FTTn+dU6a8ymj0ZS3k60rgdVb1YTIjmnI7fGMCz8KFdpC9ktVDv2ypiWshfDoO9dBBf7cZLu0SNexK87fRVndPsCaFcsm/6Jx5rJ1B3bO8wZ8z83cb5h88bFVdnbOVLErOmf8xASrXNazXttSkN3rkZ1vIQWwDi5tKrE+Mn/ZzRqIk4FuacS/IyCArKy6xL5cBAAriyZYLUUNoRmNUo8Y/rwYMWOnP23t9kJlL7bpkbk4apblMJW236CokAezoSakBRTei9dx9vh8OUKtBC9/toCV/sFkAKdOINslZL1z4E/t+TqjJcGD1IYxmMCmRQp93qgth6oUCZEUfcr8lT6if33IQZBNRpF0shuuryT8RZrsY4VtTk6rbC8D4V95+uxcX7FMfDB1Kf3fyQAH6TkQpKQI9cdKnZGKw5QhMF3YupIR67bWzOGwEW26ebunWSuCUSdz4339XAgA3b67Rvas+Nc7xTtxPSjZmx+nHsi7ns/86yyOnpMZOAIhEgIjbZY49cx1L+pmZCeTkAFmZgOvCf2ntlcGcGaZkYidqgjQXeA698TN2y6S133UAQB9+2E8pJZl+aJi963PQUHoX1c8A2t47qWuF8KzuKJTTmXewgOVE5YCldKJaAYqO4LaisuDTM87oi8xMcNqMnzISoZLS1yL1blqXl3Pr3LlTw+u0fBmHZKYePvoJOjKV46gAzewcNu6zJFR9ow3cMEUX5L9no4ranNDS1Bcoq/g0sZVDIQVI5vGUswY1nn76bH31FX9kn4q/qKKiJ5kRX6Ozsp7jtKlkZV9Dw4PW5oExlx1tqjG1DXfQUviUDnVZ2T8tcLU5hquJ/6tEDRv6ojKRJW0Wlo04ZeVu4oR9+6X8k4DYTBYkRo5YTxhur84uWiVMsW66Eaop0971fv7LlbRkllaoNqs10RHn7irj10phEFHUA3pZ3R8D6VDLrtWPNZkmMvABsqiYyWt/eGhq3EKfnSvhPfnXczhqFBWgPcfdIxg4G6gK9FUXP0JSNEza60iWFtMXHUtTC4WdAgI1dYJK2HoOALC+tjZj46pVeS3HNEEO9n/96zmNPUpncdy4A9in6gD26XMAi4sPYF5e+724+EACB3grz/ytOufM9/WgIa/rwh5faEd+lIzHqbo0Bib3l67Lhu9+t8tBi9SassKyceaC/jond7MGAtWs6LZJxVLzpq8MI5/tXKfZ2qz/GijhUveurXXhOuBJR53DjCwmHcfzBZLMzNA867SfERA7Ro450SoyWjeRH/iMZ1KddPQKW+qySS6kNIsPP52QHDvW1pyVgYYx45ifv6nh9Y19aIG4jaecdjnzetiSabD8V47H3Dx6C+Zdgoib0gSbNSmB/DybfsYIn3p8Hx57wj6s7LeINWNOVP36n62XLXtZlxV/5mVmbWdubqgJak86uq3CMCG1kOpR+N7nn683XGrpDtgQR7eorpb9quhD+AxtfUf4dCS9wQMfQnYWQnMWQiDxm9+czrJyO4idO6nD4Ab79iP3XfLjbWRp6nm6Qj/d1kI47bQYAYcrTjqRPXvtlj8vLGrOygpuO/fMmQyLgKPWhRTgEw+dxf4DDAbR2TN+WbOOBJXrBCwtYfK8M/6SPHzps8oRged27p4KIlAC2q8Zs0nVHXyYLWmZi3jcrLs/rRqtr7z8N6qi8s+JKZO/4NChxjean09mZpoeixlMaGQnvR1/XpcFPhz6AtTRDJ8rTq8EWgubTq0Ra9bWk9IbUf03Skklm+o8UwhNRzA5pP/7u7oNyTwOnNSLR55c1jIbqjuacTulSEdC4hGzdx98sNifMG47BYKkKwOG2TlZWX8EgG1vv3cwe/f2fVO3llZ+GeKDY456plW+vknqBbyyilrmFzRxzFu4gO5R8rz5nCEr5IwZtxAIlDRRszDtRPXrt5VrH5sBAClmhJCX3iT9NktJa9bC2gKxGEjGt/3o9hH6iKNu4sQJL7Cs1GgibUXBQsaE0aPJ//NrA4peU5/O3SVJSn3y8TfSaHfp4Wulc7KoltWdFSLbCUhkxqHHTf41pRP4UvidYUSxkVfNwh4fqp/+dAVcszi6278RamCNb79dpQp7fMU0QdvpjWYYYwM9rqbBI8fZ60cRi0I99+K5HFJNrwWTxp7qyhRkNoD07Ewqx+28uS4EQ02GmRn0Bw3YxroDnmBxwTlq77mPs1eFoai3LCsK0D4MAsC6VnbJhafCz1l2ls66Ytp8d1tHhfsv1kzR8e+e+cjaWlcIAXXwQWfrnEwqSJUCIQsZKCm0LizYyBeeqAUArqprBVHhgw/213MXve/l5Gvds5fnHXv0SYhnpNZgp57HAoGtfHCsu6aNcqbG7cMXX+zFyqoXFKB96WoD2xGagNbDRr7Frz6qgJTQVYM+MnsAlujEIkyKy9a39RAOHAdcevDxdCPGoQnQFzZgse/i+5sSd5njH3O45wOp8mzaLlA/K/Mtprjn2sH6hbmXoRZhbPSQwru1/43M5vevXqSX7PsC8wqMuSLSNp6wtFUFheTIMfuGk9zsIkJCDx78hfU5hswvQQDBZEFBks89V5U2GS7Jcn/KpI8CgCriBunlGncqOEJNKTcv6f3qpzUA8OW99+aEucfd3QhICAE1b+7zAUBfdg2Ua2EYVEOqX3qJzNr0p1/mA8CWe++d6A0ZaQJYjvO1pHJpu/F9S03f1awWLUDfFE4y2jZARmOhgKMt9+hrR2otHbOmvuEMGiWFYfsYPuyOMLVxt9dIKLSeeqq/ystPhOD2cIw8wGN2Njl58nUQaE6SW1fnwHGhRw67jwCTgJ8AAvYdSNadXZ36TLP7MaSrl2n7e5d+v61k8Y76ayt4xtkTuffes/RZp9zgDx92F6uqPqDj0hcySAWCQv9jSTE5b94iSInkXjPWEhYPDKt4CAQ6P/9zkj0BNFl+BARiGdDHHvd8ukNaCaGYkUl12mmnhWosH3wwV40a0WAnKBR4itIhZ9eus9fbLW0mjKqkO+pJOuqQw08OelfQk6LZ4tTCmKlq5uzTLGOuYyfbaJRvPLtEl5VuNUGRcLKNKaz32uuJMMsgXGD87mUTWVTCzmY6WDU6UJMmvwzX7fZavW2Mk0NCqIOXn0bp0kszV7oi8FjV/8VGsv9rZDYfeGAQq4f/h4Zj7n86b5VCBFpKA5XqToB8N3clhMfcPOrpsy+1WQrd4/4ABFwXenrtUzSEAk3RWrtm9cTJ/ySZk9LAwr3zz39OVEOHNGgpPe06QdJxFeFQHXPSOdZnbgD/RrC1ve/jcSAjA5aZOpMvvdRP3XffUX5l5YGct+AmPWDAr/zpk99WJaUfsf9gMju3JdSn1fqj9T8mTz39NpJCn37ytXTc9Owwgz4o70n1szvOB9Jy6430pVC52S9R2hvYCCx7V5LzZ6ewL1x+Wq4q7tlgJyhN4EkmFy+9NNyI3TFRAFKpMvbfucGcBcYhnIb9C3NCk4cddTNiGU0ECDU1EUgBPaf2e8zPbcbRpoXwmZlNb/4+J4QknyGXX7J2Wh2tadqZBesLKMZzyGNPPDsMBHXXOLQ5Nqk835uq1cDBSeNv7IrZaf0eboT+GWe9vuPf7yz1Fy54hrE4fTu2X9vGN9g+U7NEOs1oiv5v7mG+uqqq2sL//rfr5QbbWicWcqL2P+AkZmU1z0W2JKmsrCRPPnmA/bwJYEgBffQJ1zKWSS2Mm0vBKAr+qDFvtbqREWjlDX/+W2Xjsv378/rrj+SYcYf7+y++wZs8+feqd+WDesL4rbpHfiPzCkjHAu7dSHqlP+WHgG/DVt3mHjRwMkE1e9b7kBL+xKl7sajE5tUKux8dw4tZWPwdAmJdM9NZSui83E8opMHSWSyL369yS+LeO6sBWHaMwlwFp0E5Jh3LCjzz2bmz9k1htrqxpTIfnn+9D+fMMS/dhsDTs+bcgEgkRXFlv5vhTZ+2JgBIG8kMGTrUgIFb+af7RwMAV61y1liNTJ900u8YizQP4++ih5qD7l/1AcnyUEvtznFoc1zMiZztDxr0DCFI2XVsnLaZH8nyUt8DktpiMTt1DSmCpIDSwumSiajDco32/4mIDDT+l1iluyjwbE0Nb8yo1+F0r2EQIg94z4Pj/aqqrdrmwKbNu6ZAoK69+vRU4M6sr2p/6IgtxvctUmawhgh0cXFD8pJLricyDuLRR6zS++3zhC4tecrv0/cDv0fRx348/hkHD2YYeGzZU2Z1CEmTjjZ7SJIdwDCGa9WLRr8gmcll+w/SxcVbQ2FoP+PRdcmikqsBGK7F0JnuP/X4fiwpbtTWbxLWhNDV1S9sJPOYqjY0IVfnFjRQSGph6gFoQHPmXiQ5AoDJVOhGrE5KeH30UQXnti/w/GnTbkwJvFDLW3ZSbw4aaoDKMpVPaEy4opJnkJXVmtdv4vgn6DqdAruGZn1y4f43Q+Brq/UR0t9wv/1/wty8DjMNt9ltMWTCgF+7IKy0AgJG3K7l+oalNouLqI897L/JvSZ/SSBVaP2bFkp7quvQDx2J07v66rO63TowATn5IRnXBcXPmNKITWtbWbYaNWPmU3DdlEzYTpYnR4/abEspNrMc6LomUi0FGbEEH4YgOB1W5inAoxC+NiS9KfKBbhozpUrLNE86dhnJLDVmjAlcWBdMGKnlvPmvkMwHAInvfU+SFPrya8egMZERABQkApKIRoBY5N+FQmxBTY0LEth7OYLiYpBBM5EWNOyAf8GFC0nmiDvu8IV56T2Cvm63RTOZ+nddnQAAPaZqFt55kyACBAEAAQJgLIKgbr9nuX27QF2d0cTWriVJiVdeNqKuE00ADnJyEB3Y93YGFFi9unMX6GorL9cAgEjufTqZCKSAKwDu4lttNpIQgNRSMGAHH18ICAABEEhSOtVDRDB/zi1q3txPheNACNHhcRBk4EIIteSgq+TP7hwpfvuTpd7IEdtcraVyHM3dAQp/CxuFQCCEBhnIaCyCfWc93Pid7/xaCMFL6+u7NIdt34jAG2+ISiEa5X6z/8VYBEy7upBCwPeJ9etL6fsV4qCDNAEnOxL5VAwZerf9cLN51EpBKxUoIgh8paG0DkgdCCcIhBtoKQIpZURAREi6gnQEbVJlNyhDgoQSMnA2bZLBg49OFpnxHSLZ+ArcCBAEgfmMtTT/88EIfOfGQgCQeP55CCEY++vDCezYAdn0YgJuBHLUmE0EBGpqzE8n7g3k5AIwapQVIjJ49l+I3PSja/yhw570jz3qAJL5QggVDl6odaX+3c1MCgAg+1ZGUhihL74QEALO55+tQGaGoBUCFISEcJhQ9F9/9RYhBLF6NUlKAejtQLEur+gNEBCyY89nN2LQu5dCz54bhBBEfX3neMzSQvWr0iqEpf+bIftzWkeIVzpg/80UkmDXF5P1AcAUqOz4dwIhAifiSl1c/BquvWKO89fHTouOnbRUCIGAHb2QAAGpS8vY8O9PbhRCbIj2HPVEw+mnLAmqh211tXZ8R2p2EgbxrWtCgEIEgRCBJJVDOrJ6qExOq71A3PvQ3rlCbASAyy67rHsPzNWrzUT8++Mf64RHCOGk1SyXGlBOcf4A3HKT8dfX1kbo+yLi+08iJ9eehk1jLwHIsDw74BB0BOgIU11WyoASQWDVi+5vAoAQkPSSINVgNjTKIKfgHVsXw0ZjAwQAgw/+E+DWq23U1WRY5OpF+/yVUlI5jrLmSMCMDKrv/fBEAGBtfUjjnqsWLmywZk9oh1NJl0nH5otGIvRn7/UpB1afzXvu3Q9CtJvGQyCyDogwvdfURFizIsIVKyK8/fYIX3stSkDsxKT1CVDtvffZ1qQ1/PnZOdDRjGesem1UeJvuw3lzyY8+qrDPINJSqSq9AQP/a9+vQ0GL0IepItHn+IMfFIbX3NWkkRRcU+9yF4VrOtQiUegepZvT/SNfR1fGjFXMzX1zx5z9eoaPo8675Gi6kTYjbG11uq75++CD2UhW2UhhFAC8v/99qp4568swYqe/zVHjNiBM2q7XkDeOsAQF5WXUCxc9pV578Wg4DlhfH+1uJSBsKbfNnx7uzclTmASYDqjXUvoEAq9m/PlwXYS5zLzuh0s4fKRxlXTBzbHr8RIMHFPqcafYxzYwpko6VEIEuqKnx7lzsxrPOO94S66RWh8KCCzesl9qMDaTA3jAfsaZ6EgGsAjywiK/8eab+wFIT9HK1Qv3brC2ctBsUoXZAKFDkW6EQb8BTECs46JFL6nDDz2ciIz2hteO44vrR5M0JdjDvMRdnN784MuenD2bPtIEXuj/yM4J2KtyIQCwri4KAF89+mgvXVT6bwMIFTo1sQJBYuTgO0i6YWQ2TeCVqD59/010Il80zNzo06eBV11VyjAFzCZdtxXEaSkQSTpc//Zo1k4Z7fXoMZ59+kzyevWatKNXr0nJzMyxBEZzYPVoHnfkaB55aFOvHmg+f97px/q9eoWb6WsSeBYPVdaTie9cbEDfixZlksxTE2e8pSPRoCOEqRqgF3E0BTRPOuE/W8PiS2nwCI+cmjzyyGdY1CP0DwUK8JXTteBIqy5NXdnAcVJdG5KLlvneO+1KCF9L4fuA7wGKMCwrAaxvq2cvej17fa6WHfhP/u4Xi0nG7HrY464fuyYj/tBBv1RAM/KHlB98zqzfp/sQGw87rJ/Oyv6ABlTd9YPGcUzlNAnfN2NFLZzmwQwhSBEhnZCdxjGRXBtJTrgyCMLUOAEmHcGkhKYToTr++BP45r9H0BCfpK8tRcehf+7ZdwBh5sPgUTr58XoVA1zowAgeAhjQX2VMmLCh2ahtALBpux3AJvspZGyUMIIjkJJQvgrWv+fGhFODBx6EI4PfQAhE/v0ScPaJUKrxHV84f4WULowpzSQCxqqHwO0zBGpYP8jKKsjRE4gtX1yM/z6fqQO/uaQQ1lvYq5fAIcuzcel3gcxMCSHQ45d3zUTUrdKQvhQiYnWfADk5rqszPxRCKNbURPD881oY0LAjHPkFnciHgKhiR49bEgFA5/PP43jj1Snioov+xAEDYkKIJACFaBRMJt2UQCcDkREPmGjMS/7ulytjJ5xbpMeOrXbKK2bhzXcQ2bgB2LABEQARIQzqXErgs4+BxxoM+RYACAfYtAmRbVuA628DqBBAQOwhLaFZMxxqvsyORzBmzI8yrrvmjxwwIIa//KXRO/7EQ6LvvT7Y8z0/KsQutVchAPhaI54R8Vffc3Puj2//kjU1ESGED0Cxrs4RQvwDmfFJiROOWeK8+OqF7nPPj4PWbpBMgICCMCcmGaSOTQJwBEC7oElQmgPK/Jpp9nZA+42mJruCg6M5ymRmBhDLALZsVToQwN4LoVzeHuvR963IL299WAjxHv5wN3DIMSDpCCF0p+/V2VZbK4WUfqJXn3/HohkIvESAJkErAcD9/Mt5ADIE0AgAXwwbtrnXPfc0wmzxXdunZl0QAKQQBBkEAKg1HMB1Io5EXh6QbITX4CunXxXEzFqNN96+xXvumfcjiMMRDdCCQRBIEXEhdCxToLTse7F3/x3XgO/AYGOkFkhmxXW0bMBlzphxX+HV599G3z4+3ngjkpILAECCDz7ev2n/FfUcFMQyUqYQhWX4yM17IKX5hDJtxbV5fmllg/mc074mIUAlBbUUgS+k8qXUSkBRQPmA9ptXQDJdmmR2xuJkTi5ZVESW9yT79aPvOBuVG9mkoy7TS8NZiIni0GFb+MDfDTNCdXUUjoPEgEHnGU3N9QMIW5VMKPbtt5333LMEQDOsE+0C18NH/J2O2+korZYi0H0GvMaXX55kxplZ/uEnHeAvWXKFnjHrKx/4XEv5VWN5/7f94074BYeM3MjSEhPlstcwkAxDMklLREkLWWjZdVjZ3o6pMtG33crn7Gi3eCyqJYtfp9HIpGVZEWp0GC1zO6RpKgHNaIxecc8/se7MeJsasUXvA8BrZJQ/uWWBHjNmtaqd6rEwrw3ogyAhQ03QI+ATbee+MjubHNifnDiRXDSPXLiI3H8JmZf3Nw38SQF/0cCf2+xSNvVI5M+MRO71pFyt6/a/W//+dz/esaC2gllZJSSLkJONtLUW0pR/fcwjYS2Im39whKqs9NMxa6FVpoRs5MXfGxx+ZytZrHv2fNf8ri2LR1A7LrVwfA3ppUz29B6NkfvuQz2h5l0/P/sPvPPHd/PBB+cR6MGrriom2QPx1qn3qSYleO1353P/fbcxO69JGwSoli59GBGLJ759XURlZz+abp1pK2f83LwnUqVhCVQxGmkSeNJVBOjNnvMgcnLCwQoFX6GCtCkqXTWdrN1u0e9Ms9XZjg0fDl6rzWJDz35+wZsMq5bbFDF9yIEvm42XenlNCCaBN9vysKVgKfsd8BgjkU4JPPMsTkAp6Q8b7jMr62G/d8+X2adyV4SRyvooVODINn1AzcZNtOhfg3BrJdylMGbC0Oq3SfY268O4EdSKY05jZjxgJwrtaMBnTj4JDLbz1z5NUctUJnIsJwybp45bcSFXnvEhc3M+VJHo577jfq6F+ISlZeSQarLfAPqxjA3KzXqfp5/+oT7vjB/6wDx/wIADOWTIPF6wch7vv28Bt6zfmxu27O2T85GZaW6S7nJp5n6xf0tpyotGIoAb2Zm/Whpy2c6Xw+zORjLDi8bfD32iRkERJODrwoJAXVZ/cep5yQJd1f91wtSnbTl3TPubjkv2rqSfEf1CZ2T/1z/o8FeSNaOPYEHxfG7/ah7JknafydKktdltSQmSwzlm0r6JvOwDfQf7JUcPO7bxx9f0palk6CIzC2rChEfNszhhzrwiBJN5uc8w5JxM/vZXl1vslNYAtXR9QlDPnH0jMjPNw1h4yYbf33Owzs5RhNBhmtYe62kbW7eTmG21ICZLi5+mYT2WFqgc56jh26y0D/MpNQXYMHrUe2yjWExK4J15xhOMRZsCHR0XBGy0wjXk/lOAn3QcpSzYWRvShUBJqXxHtlvI+NvabZFmrUvLG70bbpsOAJYwVZIs1BMnvqWlDLTjdDivVwGKmVnBlhtvvBzS2SUHHMPUw7S8T0QiSLGhvPhiPo88Mp9AjA/dV8d/PXkV77/nfN50UwVJiYw4kBEzgknsOdnDSZPirK6Osro6yrq6aMhryNpa1zIDuztjmN4jzwQIkMLPL3ytmcCDBermZFHPnv0zEoKTJsUBgFV9HqbrUAnZ7BAjQF/IYMc+c33dt8+dzMq/nj+4/nKuW1f0GhlFNNZK+BOIWEZxQ8qLjlVmawbiD03TrCysIyMM00Iz49BTa2+lqUJoiE0cJ1BAoGbNYII8EACgLzhlbQpoa0k/mV9Ijhh7PACwri4aZjskamc9RSmVdiN+p4Gle6D7ED4z4uThhz3a7Fn/8shw5UYa7KQ25c8KkNde/ve2yhKG2oO/tO5GewB0OmtBQYRmtm84BZtK5P2v96Q0dT+1EIE+/MhLwzGjgcyI7edfeAwLC1LA7o5cM2SfZnkFG279yTII0SnQNrnGZV1dlEDMagQhBEp0VpCQLNxEjt764KpqnnzcsC3IGZysqRnLxYunc9GCaVw4fzoXLpzO+Qunc+ni6Swsq04Ag1kzeUhixXeGJO6+a0jiy8RgksO2ksWduvfXBVS3daR59aUftBJ4NnDh9el7v8jLb3LxnHLKvcyM008jzrVBHY+jx9J7/InTkRlHyAzU4n5mfaxZ44busS4/e8iwEvabboqF1RNDGncW9TqemVmGuBgI+REVRw1n459/dbQxan9x9w7owF5WAgiAHgXE0cscnPUCUFBACCGFI7WePOUDZGVODbZt9yGFlgHDb6Ra2v8FhPEmN0M6dmMjIBEo+FX9HoUQQHU1hBBUl1xdIzLjGcFWnymgo3Wmqt/e/T1YbGL6tVavXg0ACO5Z/U8IsbLl7zvSJGh4GgAD1Mae90V/HU0AEAGVk58X0fvu94D7h99dyjVrsrHXXjsgBEQsg/6jD63Exk2EObU7dN0AoAAkepW8Gz/5hIdxyolAdXWHvsz6einETLXLDzqOsV2iUbyTTMYGrr41gurJ0/z7/jpO3vYL7ZTlVOODDwI1ccKYrJyCwfzoP0m9cZOIix2B+847ufjsc5NkF46EBCAFgu0bGx3hKPX2a8L9+EPw8Uwg+4dURQXR+I7tH9CJPYOiQiA/lygrFsGOhq18+8P1mDZeoHpwEIwdn4mKsicjM2b9Q5gMF0fs+QVjAPnCud0BrgLSAhFCCJIQxUU1wfvrK4QQHwMA3egf0ZDYFwJO+OkApACcwPc+jdROf7C+oVFeOmBBBOcuCbBihRIWyZl6n5kzd//BDzqo+diccUbT/1fUAHc8DyxbGMV9D0A07DDaexCYF37nI0ROv9aIpWQ8tjaka9e2JoXKyNzA/fYzFDBpJybJArX//qvZt89OfVPpXYU1LaUMAkgGneCX21XXAOlIcv6ssQDABQtiAOCfduqPWVSYIsbUCFNoYvSKy6fZ92p2JKXIAyIZh6VTSf0/3UOXgpQ+Y1HqRfOeIZnHB2+KbeGWwakT9pRDR6h4xlfaJHx3jJ5fCvqAT8clK/r8ys5JhzCJoXZOstirr5/AE05bzkWLjua++x7FM888mrPm7p0ExnDGjPEsKh/Lw5cdyr0XXJGYOPEFNaj/NvYoJHNyjN8pFjXwhzbWrl03Ya3ksG6yr00hebYsq9nMpyWE4dyLRg3/XixqoBaxmEmaLyigLi7WXLDPv7jq17X2vfaoeRuueQJjaau0peZESsMwMnkS+Yvbx6a+89iD/TmuxpCFpAg2hU8InSwofxxSfm0aanutieh3wTQ/O8cUIUvl+gufMkbGMo8DAKh4ZC2lIAGlbAk3v6x0Mz94dxiA9ICFmQxHgrfcMkOffcbl3vDRl/gDR1yqh4251J8//9Lk8mWXJi849bKG2XO/o2fOuFsPGrSZpSWphaDRBFa1Zp/WQnQNSxXmxk6erPnKK6UAwJqaCEnByr4/t2a6FwDUFlfFCRMDPvJIjRmkVW0LvMrK5f+/wAsPK0FDCQSqESNe45tv5qSvBRrguvSX7HenJdXscO1eJSU9QDM/j+ruVZcQELtKRUxhxKQAV16wnGPGvqOLejSwd2+ypJQsLjNlA/LyqYXc6sczd/iOu5VlZc2Emn2/sNyiTWCXWjtOYMtGNi+G3kYPf69tcr02NFSBdpyQjqotrF7L0o7mmYYMVLztmjoRi+4WrfuuWkow3HbHdNaMM0pAWu0NJYRiNB5w9sK97PxGSEZYd8gvCUFlSCWUD3gsLKL63vXnp1/3m2opGVV/VbWfk2fLhzYRFNCRZCRyHCAEVFSuDSOGhNAUDlV+j/dI9mCL0HkzNhQpW0euQuZi2/nJJ9W88Jzvevvss0aPn7CNeXlpiccy/SRNLToKExDZFYBWmwI5gRo7/s+vkdFwE64nM/ToMf+k/YzZXIYzL9m/34MkYwSclmdpCoQ8avhyewD8Py3wAoC+6wQeoNXgQVsS7761P4CmkgAhZOmDz6o4bgI98/mOC1RLMOsPGvDfNABumxpOCEKmrZ6W2HvRWSwpSwkv32henjZFzT0fCAzMyWhaCvCVMOtLfW3A7A50IehFXaUA6oEDdzQ+9VT/PcE41HL/kuzJaVPWWSHdlJkgheG7O/u87wAiRQjKDz/sxQXzN9B1yYwMsriEPPq4R7aQPUI2lj3xvJ14r1DjH6H69t2UHqxUgE8pyMzIsSC5TM+uTWrAD2xlIwpJ5hQ9B6BdiIB9SbmrnvZAEf7jpRIeuayvWrT0FD116v/RPSsf1EOGfOoVlXosK2vGi5VmTihfCN9zZKCEYOC69AR8H/A8YAdzcsjava8EgLTwdcTPyXnSSnlLCCg9CocaCKuTtTKdUhpeSf7/L/BMXdYgkIIcMIj+T366L0Rz0yUV1b6s/kJKJyx23eF7KAiPGVlUgwatZFgdrZ21lvpPQT7UDd9fzso+pMm0UCkLQQgD6xEGMmXYsUWTlvZNj2k7nRAp3kF/4oybw7ziTu75DrdUMAL4MeE0C0ZoAUUpqMqLT7OfdVLa0/evGqLnzl3FuoPu33T9Lee2xOh+081aGxHtZrwcWqwBQBUxaYvq2ss3IPn0o8dxfA2bCTzpUI8b83x30NS0Kubb8vdk/x0nnDfB33ffxaytPVqdfupaNXrEm+xV8bnKzyOzshiq3Co0AYQwPpDsXOpRYz7ix2+PZjqP18svD9YTJ2zWgNaWldkX0qPjMhF1fmEXVCuBF76rApZTfvtM2nRz7OsQeCbaKj112GHn2TFrVmWN9ZAfknE1aeK/bFGbjmPvhAi0QKB6VzZ6f3zIlCRsqxh0E/lrjv7Nz76vJ0xcmywv3WYovL9Fmtpudm0qbgWqsOh9kgV7UojQEoImnOivCWGB+eY5VEisueyQ+9MFb3vQka8TOL2rFq5PXVK8rlkJ2dBkX7GCaDz7lKNZ2dsKPJFiL9YHL3sl/SK7/TAhiWfIlPLUUzmsWdFc6AgBZGWFzKkOH/7jIm/GnEvYZ8Ad/sDBOxjPppo1M9A1Q3/K6uE/5KK67zX+5jf9UtcPTdJjThzDwUMMjs46WZUUHuM59MfPMBpeTetq5CmBJ+W3xIcnaII85t8eROBJGdB2WzzGajGC3Ql/8YQpf6nmz78bAHhLfTbJJoEXCqLf/2aU6t17szYFnzosgEIEvJo796GQcbrVfISm8+MPz+SSxe8zJycl8JU5wb9xQdVt3Raj4rjRmi/+/RQACA/w7m7hYa8r+v2EkQwqIVIciqaAkiQnT33dfrbJSrPKC2tr3W/CjOWaNc3q36R6k6ZpBN74iesI2STwDDSFaspkheSAqqOZk0nPqrW0GKrEQQc/kn6Rdh9iN/nuSMpdcuJHImi85acDGq7+/iFbd+w4AC1OlbSgitkgs2fvRdcJUsnRIcFARS/qP9/7W6DtxZQWwVpOfI0CL2SMaKMweQBJX4BKgGEB81ZdpqLQXcIOtvU8GiCHjVSJrYkhbYFjTeBAQh122MXMyGgFSu2AwNPMK6BXd8g0ptUTSbu+BAD/hJP34YhhigATTcXa/6/R7FqMucfCIrJ2ykkA2jyUu6OlLKGbrvsdS0ubMGuwAk8IMjP+Ok1Brm+chLDVM0QiTdktsRhW2YM4tX8PP/I1Ok0anm+wxfRLemgkZexYRh0qaQSesulXXnbuyekX2dmD7DEH66pVYRm3ZiYxw/JuNiKb/nMA4FXfu9g6LZUV4oEW0Mn8nEb/o3Wzwmu38T7dIvC0/W5b3QRkhGaaYLP/1ikog5DGlM/PY0LKpJ+RnVTZ+Qk/O3uDGlC1ITlw4IbEwIEb/MEDNySLi77yopnbVGZ+QmVmk5nZVLuVASNIU8RY+8eddAOiUaPNtWCyoU3fU5On/NOMb8eLlTeVhZyygV+wHEAz04j19aYc6AOrx3HY8O0mO8VVnvNN+uFa3LutyO1uatgKwidcsmrgxSHNWTdup6a5CzXnJx+fy7zsRgtPMQ5+MzfUlX22JslRdm6+MaFHQEBKEwN44okzOWnKzxM5OXfpWPwuPxa/k5PG38l3X1oAIMWS5O+11y/SfXhh94UIkMzMPo5OlIRIE3hgYuqslfaGbQctLGI7+fTTY1P/7+zLkJLr1kXC2pTtdKPGLlgQs+k47d4nZZIuXXg+pWBaDdqAQtAXcnOzgWzn+10VeMrmuiYlmuhtYAWYaEM7cyKkjJMV/ci951HHY6u8eOz3Orvo13rFSf9HP3jv1QQKWFFdyMppBV8NGJDLO2/K5Z13mv7gnblfLV+eu7l6XiErJhU2rHt5euKsC57wASYd2SWTj8bUDLSMvGHHwm2l3YUmxFvvTWWZiZR2VOvSQlBJ6VNKctr0P9OkBskWB5dAJAo9Z8FaSkHfkbuvtXa2C8HAcakcR2sBT4uIpyE9BeEpGwlWaFan1vzfgaek8LTjqM4ESggw4RheR44ZeR0yYnuMMip9PglsppDp2UhG4BX12Jy8776RAPYoTGaXTUpsOuiAmZxc8xFLS8l4RvPAZjzD5203mhxsqxEn8svPaGv/UkpCRWLHUUoqYTQ8bfNNeczxZ9gBaVsTchz45f0v55BhO7hwyYEQqc3htNObwMudSfuREiEbgr23sHZ7+wJr+MgLiCbzLiXwotGtn9fWpggG2v1+FwWeNjUZQvaI9xXEei3l+0qI9xnJWJ8cOnK9t2jhenXJd99Tc+cexljebN/pOadx2YrZHjm1vaTzzjSSpZw0aXujEEFXCBtD35o+9NDHWgYqUvcI62iceNpK5ucrDXQYexcA9AEvyMklp0+9FEDzWqgho8fv7r6EBUX0Ab9b8o2FTDHrtNVVOqYurZuDyU07vFwyO4csLyN79yL79zMVvyp6kfmF5hCzPG/h9zs8LqHA6191jdXw9qjA4+DBOUo6Wyx6IcSsGYEXi23iogOG2Dn52gUeQUEymjjrqiF+aXmDNs8Wcun52jLgaEd8xEmTQtJds3bm731emz54Ieg6MjDJH2x+w2RFKQBgdasHMekvibGDz3df+vd38WmS+OLzVduOP/MI8csf/R/47WT6uK6xuX3fBCcCDQYchjWPLcX3rmj0H/unG8lwI9ozpZMdmMcSeXkxRCIORw9pcG68+k9i+PRXobW2vFsiTGFJf1b/jXeCiARAw4klAUA6ED51ydp/77nUHSkDV2upl+73RuSRR4Zx+w4grEnuJ4C3XwfeexN49DEgmTRnFLYAf7gD+MMd4YQZQbxiBVBeTlx2Wceft7o6AuCL4NWXb80gzwtIJTphFgkzpkAkApmRcXW76YCbNgUkHYwZNwnbdzgQQnU0dVBIh5JBJPA11cgJr+Kpp4GqqgDPP28+cP/9AlIicf65Y7K2bKQQ0izXTjQBacgVRQAhIgR9TQaUREQIOMYYIQBhru045r+BNmvTdYG+/YAhQxE0Jp/z1jz2iMyIxCTAQGV4GDIC0dljEBSWQRYXA5u2ANu3As++DTz9j1iw5RPNcRMmOBs2zFbr/60dKRzDt7fzJu1rBr63x1Ixm7Wt2drsxVbjG8jMeIbqWdAXwFt4442vNzhBCgiB/4Dxnp+9MtX9/NO4llIL0nXN78FwAqUbwfz5Lp55BqitBdauRZCby/ZOCheBxXo3awKajgCAuvQHsSSAXLKkRK9dezp8TwdCBtj4lZt57+o7vfn7lYgXn3/BhSvgglAKyqHjbtig/ZWnz5A5BUeK39y5SX70Sb5mo9C9youdgsIcfPJfRKCBBgUn7VkMPcsG85/nEvAm732ON2rEp3LI4Iu/vOv3DwohdqSzEtbZR3SWLdkPf/g9aHkVAgAyUEBmToBx/Ym1H+/WhLTXaJ9Eg1uYSJr7B2alExCh3iB8v7kLoK4OqKuDOOigptPijjs6f/94nBAC8pA6jb/9HfxqQ6cwA+Gyp5Twf/GLL9q8hzlkNF96P19v3jTGUT4ppNPR2gU6ABxBICu+ecMlNzyCW2+EWL1aAzC+wtWrVcPPb58W/8EPZiEItJDC7Wh9jdQzwlLTyhikTgpI6WLkCATSgf/SC89CUDgERMQVWkoZGT/Ox4Cqy/H0ix97uRlO9K23GjBvEXD2WUL26/VJXIhtSNpzJ2gE1j1h+s7au2+DZ105Wf7sxn8EH/8nkELIXQkxczRryK/NZ/YJyADp2o4QQgSkkoWFGe6QAUMBPIyCAvNgX1MThqpK9hdiS6K+/kuUlcD57AsyPJDNp8xf0gFGjmz2felG25BptlHK46z612TSQtC76ppTgCYwLmBVRkeCNSPOY0aUnjQ8ddog2Y3qn5lFZmWSWdlkZi6ZkWUIAJHuv5IMyRgtgNhXUrTyi6T8I9Lxw0gS4ZAF+UyOGPkPPvVU/3fIWGjehkKEBx74KoWkEkalDf0SatCgDVyzJsN+tl2TVnXZpDW+EF1SpvyHnpxDQHyd3GepavF/+cuBurzMpym52eEAhoJx7OqsTL2tqmJ4+pimjZEZ48MOGsWSslTR9g6bbWG94zFjnmqDOsgBgAZgsiVg7VTkN80sN5TiQDI5a84nanzN6fzZrw/3P9s8Z/cHmWIjmUcyh987N+erCRNyecghRaytLWJNTZH+7T1X6oOPvbUhr+BHulfvP6q8gg7XGFGQvs3NrU8fj+5uKZMWiHuO08yHl4oW9+pFnrbSgI9XrGiNaDCR+xRTzp54xnoTvMpJLFnyD6Ipa8quVZPzH8v4jPfcUwKgCQh/6cXn2tq2rUxaUEaOY8QxlcVTAk+SeUVj7I2bMx6T2XpG7X81EGjZxHhsmWXbrAGgLFWSklLb3FmtpNTK5BwqJaVSgPKlVJ50lDLFTlTgOCZfVpg6GwasanIUCZB7zfT4zuvmOW3mBwBw2vQXaaukpws8b8SoDSTbFXipTIseJcutUO6cwIOl1orH6U+dfjOAPQYtaKuF7/QlkKMEPgv9SB1+filMbmuPHuS++46012wp8BySIrHPPhcRotN1DrSATyHpz1twOVqkUNGmjfHEUy+jcALdgXoYbXWaPNbAnzTlM5J9WvlGbcT5S7JnYut/9+dfH9zHv+1Hi7avWL4wMWz8Ih9YwIEDD+Zes07giBHHs2//41lUtIKRyPGJZQf+Vh17xAfJKdPe8UqL31GO+29dVLRD52Q3asdpZH4+Gc80ebsWLtThA0dITSGo96p9gGRGy7Hv7nXCVavifv+qzc2CTqHAKyomlxx8OgC0xMu25dOjUTy6VUCHisyGdz/u7Vf1fZkAPaTIfI2vMSPjs23/+EczgZe4rP4cm07Y2oenAx+OVb2aJACBLV+1rcL2GhrTn/6nxLXmWqg4SkMF5Vjb2nSjfwoBhOTt5nPmbcIrOqk83Ja+BN30CAEQmDqTFACkLxw/8viaCA44+Cck50OILairk1i9GpDSFuWwbxTy2/ep6NBAO1UVwKavEASdq3koAEBKB42NlA0N+/O19VdjeL/PWV8vRXeX3dtJawRUAbtgghA6kpnl+CMn/Dpy+Hfe5datrli7tpVTVghBNXL0ZDhSQOuOv5f1uwZ9KrVbPeQJCEHU1jpYuza8BiEdQCdOAbUwdSo630ghA+HAff+DUj2u5m727ftJUFTUW27cooLtW4jGRiG3baPq1aun27O0Alu2wU16cBsagAbPmMP//di4UzzfrEvlA1oj9oe7AaSpXkIAX32VunewebMGgNDzKCBcdNDcl0LIIAggM+L7YMuWuAASbKow0/2togIy0s55LAC4oVx7PvVjAo647DKt/s+Pz3MuvWmxHtT3U/XAvZdg9eq3UVXVraavEIKsr5diYMVHXP/i4mB+3T+cf68vZ6ADmsUEuhLZU6Y0+57Myo+1bcIRUBLH0VQba9LwYnGyuNco+4JGa7LIenX91UfrrLiZfpF+OolAhZpX2CMRQ4kjhfl3NErmFAYcNCjQU6cGPGBpoIuLHyRwlw/8IZGf9/tEYf7vfeB3Oivrbr3kABXMnEMOrQ5o8+ECETHIaSGpHekzP5fJQ+quQCxqtSkB1tS8RKBJw7PYouSSJR3T8BYtOpQGCNx5HF6YkpVTQN7wwyNNBsjXRO5o58j7/X2TdH7edhp8XMe0IqOtBcm+AzY0kiZ7pcVJnmKpJXuqPpUf2pzVjuPvbL6o7lH4CsksoOkUB+ycCMAvzH6vTZOkE9036HoTZZWpEtCmyyaXisVHhhZKYMSbrWqfBjfxAU8J4fmOozwnEijpBkqY7zRjVuni85q9J+kJUEVcn1d9f49FSMO1/+HTT8cTgwa3reEVFJJz51sNzxIIkJL19TL55r9HcEzNJjOmkmpozUOWvMPlqlXNayc3rZnOoTPSn9dqbuqKS05iNGrT8IQmBP3s7M9C6vjwc/4JJyy2mRat1o/rBEjj54dRyvJygGGDgDX/bbrrF18IuA7EY/9YJI3PV4WVvSlMpSxZXu5q39sO6Xwp4pkbZM/yT4NB/TbxX//8q7NfnZscNvSr2DW/eh6HzhVy7lxiwgQ40ehnqXts3950v8ZG8I/3lOLZdyMQ/1XBXQ+txC/vOD/YsUULuFLSF4R09OatgfPFpvOZSN4qhPgsdeKmRzNsc3cV+aqrA1avBsZNi+Chh1KxvM7Njv3Gts3Ud993vHvWyl8TaNIy92SbM0di9WodgbcIJcVZweYtvuhozVsBSkLKoQM/iTnuegBoQyuVAlD+zTcPFzooD0gKITscUZQkEYkQQ4a+LaTcwdpaVwjRXIMkgI3bHcrOR2fTmxMEgBAiAINW1cDD/wohpClXR4FwMROB+YAjhXCavRtprY4WSkw3zatAAIdQMhZz4TZ+F46zHM34dLu5TZ4MVVqE2DtvN/0sfBcvCXzatP/DgOWll14qLlpatxJvvJYPIqkZSOfzDxcMueaqFQK4BQcd1M7LiebXWrHCxZw5AV5/nbj0UqajLVq2S9euDUiK7UL8MRPyNgnIwBQKhK0O3uxQcG+//Z125SqB4yiFSQ2ydi/Lysh581IaHtM54wuK1tCAkxMaULaAr0qMm/gxb7nxEK44agSfeqpnSPfTkZYm9QVanALrSFNJJTsLyb33vpFSMp3OxheSzCsiR9Sm7FVWVr5E0VrD0/vvv1MNL9RmvSOPrKHrdPnEVkIEnpCK5aVb+fvbJu0Jp25bLXUSz517WZCbm+IC7KD2ZaqQ7TXzlVXt+GJYXR2FEOCCecewqNjg6ToRsDBFkSNUp599JNescVuSShAQiETgz17wodE6vsUFt/dQ14BPNxLoYeMehePskWyLNH983N9vX6PhyabglgY8ZmWRQ4emNLzUdz58bYDu18/4hoUw/HmA9ktKX+RDDx2iVv2foxp+/Ysj1W9+cwTvvPMYXn/9DNbWlnHt2nKSEvEMIDurrWcKGZZMIKSpdEBY3EfymstrgohjMqcATSGpItH1lu6tKZc+M29Me0FHUOI4SpPWkhJ4BQXk6NHNTdp6+/ehB5/C3pWWzTVi/i4sJK+44upWLxEmGocv0KJwR6jmtjcpJEVKRQYEX9tc6A8ZtlmbzWBYUKRLikjgnXH2DPNNAT1gwEuUTWXlmgTefh0SeDzhjL4cMpQK6BJ4NwCopFSMxqhqZ90rMjKw7ZVXSvd0io4NKMhkPPs6G+3rsMCzhxi9wuL1XNWOwAMc5ORA77/kZ4ThTuvEIUAN0O9btYNn/qCQZGbL9D7W10u4Evzrn4/WFRXUgJ+U4n+u0FGXhZ0Q9ADFzDjVr35yvh2TPSfwPvww7o8c2dykDQVeTg5ZM75J4NlIrT7luJ8zM0urVARdGFA3hHFZxWLNuxshC3poPXlyoEuLH9WDB93jTZv4Ux595Nm8+eb9+cwz/UhmN68Gl9bCn8ViSB5z2MOMxcKcc21cE8474TuxKXFgeJtBi5TAEyKV/K0ATemQmZmj7ZebsSVACCTOO/sANX/RsxxY/Sf2GfiIvvSsH5PMIeBwlRVs3UwbQ0tpw7LKaw2ljdnMhujRpb/X/IXhAOnpU14iBJXVEJoE3r47F3ghCQHZS8+d+xWBwNDSd2HxGvYLzeJS+iecsE+9IUmIdueYNHv2kC0mOwvepPH3m0Oh4wKJYV3SnNxNLZmgW9wnoiZMeaWzGpjnmFrHatTY+9qN5gkB1te7H5JxfcV3b2BZGX3A087/ZcwobY8/fUdqOg79GdPfpiW03RPWQUrgPf10XA0c0LYPr7iYrKszAs8USZIkc3S/qjUKMvBbHHZsJ1MlfDfzd1p6ZVkZ2bOcXl7u53rwiPe5pO4RNXb0yWrx4kN55gX7+JddO7exquokz42dlBw+4Gjus+hGPy+/MYRB6ZDkAPLd8J1Cgacuv3yFsfDaEngReRwdQV+k5dIaXrxUPYsWg/WN5NWlzLWZC85hQVGgrTmlBDSdCNXIMYcDMH7I6TNeopCpF04FLWbutWH9zjU848zMzEKisMdv7ULoEhYsEIJKCk3AY3nfL/jD3wwP36M7FzFBkYLkOA646q5rObKafifxcSntvqjETz7zzBEAmhEspDbJgAUxDhq4o6VWsKtr+wI+c3O1Ouiw8xBx29VcSLpfvP9+OSDgT5z2c2ZnGlpxExj4xgXTHulmrRgiicKyz3n7L0bYMd+zsJSnn46roUPaF3gHW1hKfb3ZM/9cN43z5jEBKNUJZutACEN/JQwEzXcc5ZlgUBv4XJfsUUL2q2r+OyEZRCR1WNbBWiS6pPRdmwKZEnjeZZdd0KZJKwQlNIAAJmaVGpEAatnSNjEcAghagA6NybmniQBvv938fc1VuehTae5l/JUBoi6cvSYvMz+TgBQBIJB6IvtuzpefoO/7j7d/DxKrAMkd24UcNCgJ10UgAHYlx5WEDCi1lA6+/Kg4+NPP/5783g1jxfPP+zZ8YcgRVqyI8PbbI50dP65Z47KmJiIgKFav1iAj+pRTbsQVV50fvPKG70i5S2R/8wsCBAJIuu7f1w4DADz6aNOL19eb5/vdOaPwyScOAHb0+gQCl3C1kFv8yy5aZdMPg7Y+K4RQJX37fkrQjTz71LGqot/tTmZWNCADuh12C/9vNCFgyG1JJ6ArR4xyccP1p4kTjnmVdXWO2FPBirDduBrBFxvRZoQPAgjsD3/1K/Oj5QfF8Le/MQJAqk6gT0gb+w4cGQSO1NpxhYgIIagNS3Vg6k8EOoDWwYYvdLD+PzowAst0UtMPKELoWrhbigtbmcEyCNqvZBdmWoQ2eciW4l197Tkww/CNFucIWyqs/d+NlTo39yNaSiINW01rwT4PAwCkAI848i1a7S9AE/A40a/3Bq75ZbsaHoAUqlxdcMFKXVrmK0uM2tXT2xeCjZZmnqWl23jr9T/nO4y1VcOz2XOEvs4WveXnviRz/B/fsUQv2Psl5uQardaRnQK8hl0BPstK2HjHbdenjwUAsN4EGLxLzriI2VmdgoxoAU2BQM2Y+UzIjrLruaZgba0L6YC1c37CHkVM2kT/bzNde7tdSpr1miIs0Clygpwc6mkznuXq301BdmabdFzd2VIaHiriHsTmQKYB1I0s8FjVl7yi3siABQtikBLeCcefYwIce5i9JkW3tYs1BVAPHPCuJZBNaXiJc88+tz3yACPwDGapOR/eBRecDjRPLfumWzhRCniLCDFUwmfEoR46/CEA5tScOv1OSlDJNLYUCe6IRDY9XVERT79Wq3uEaWqvrav08vK2GXW6a9FawuLBTDTLLO6MLCZz8p/y83Ku8ovLr+SKoy7jw/efQzLf3l+miiG5LhCN2h4xSe4QgCvB5544mf1rLlPDRz/KklLSzJ3S0pya7DQ3m6ACAl1UvMN757na1LM0jb0LUnDE8OsZjXWKaJS2bEBy0d7H2Wt1aE0REKyDA9eBuv7yM9XwYZq2lKDnuNrSxH/zwixtQymT4RNoxwkoha8hPA2TNmnMM4eMRsiIy6C8lImzTt+gzjnnMDO3X09LCbzymkzfcbdo17E6mKXeBzTz8xt51GH7AkhF59Xs2cekBN5OBFKbvrxuPqRCVIGeMrmVwGuoW3au3Q+tBZ6KxY6jG2mRSwt63zn3DODbJ/BISi3Eu00CDz5dhxw+NCXwEq670vDhiTR6KJCus4W7EHhp93H9efOfpKGW6jI8It3Zrg24V6X8FW7UlBas6kc/FvvMh3ifMvqhJyPvqwH913PhvPU8/LD1PHT5eh6+fD1H1qzXMut9JeX7rOpnSEKRQoftFoQjBUuZvfebbQ1Nyofav/8vLfizQ77NcAOpisoveN0PR9rqYx32EaSCMRkx8I2XBqlFi+7hiBEp347Jf4CnhVCB7IRfaReCK5CSgetQmzRHr0W6ZKt8b20EmucDOlUtLZznzDxyykT6fSvf0BB/5eGH/F09sOq8xsXz+35BS4AKiD2t2aXGNKXhlWf6jrPFakPN6KEUxMYtiA6yn49ACKhhI5fZfdfqsLOCzQvlR8veYtx8DfiB4+xSk2t3X9n1yroD3oXrNo/S1h1wbns+PKhY5nF0Is01PAGqgw9eaV/22yPwrBNdA2+0EniDBz8IABAC3sxJ3zGR3CaBFwBUrrPl05GlBuG/c4HnAIA/ashCFvaggtO1wEW7k+UoLaVnTn+zAIgwI0AaqE8bi6apmwCDD+H5jlR6N0zu1IJ1HE0g8H5008skm+PjbM7rB2SBP3H8cxSigxFgQ0pBIah6VT6CWEYKbtTpuQ/N4Kws+Pfev5Bnn/aAHjRgA4uLTLFruxGt1m847gS0SmObbuff1sQ032ETP55uOpxazIeQhogyHjc9M07GMsiSMrKiF/2szK/881ZubNh37/MUcFByyIhD+PeHl5HMTb1Qml/4695j4dr/vLo4Wzluc4EXEoAW5G9N/ugGQ+5bU2ME3vjxB1lXUrO5T1kvuXlkURE1sFkLsUULsUUDm7Xrbmfv3mRhPimbagOrZuPfVhepeWkZtEoJvCX7tRJ426dNOa89Dc9FBObHLVrwwr98oDUf3jfVuGaNiz+/EEmQfVBcVMCvNpifCwBSIigrd/G2QYxHBo2XePwZpMs0IQSEIste+bxx1zczJEh46c13gxlTPhdPPtNDSBkwCLolakZqR9AucmH+0CRFKiPA/iVSfzT9jIAEYeiGINuau043AUBrjYLCSORP918vTl+pCLgCCJ2/QgAB3/6kVDWq4SCBDgRFaJIlpI5GAowY/QQfuk/AJDd0wuOdesSA9fUSl10mxP6LHkBuzgNctzWGf/3qTKw8s49XWjk4mlc4E/94wmK3AqSP2c7j4ra+MgOAAjK3CKgsAcYMh37prWedV197JciMxgPXBYJAuV6QwMghQCQGaCCISGBzQ4Ajj5XymH3fcaeecyu+d6OMRKMJAMBbrwKzFoSP4qKujli9mlixwsGcOQJ1dfrr0OxatrVvfNl4ABxCSnNc2EYAyC/IkPvX5eK0s4CqRQLPPw/n0y8/Q2amYCIBCQGadHnfISOJrKzPMg4/7k9YOPO1LcsPv6ugosLslVdf1Y1nnFEQ33fhOfjz3S5+8yeo7ZsyRFY825mx14F46SVg/QdmviiN2Eo9hbAb3MylJwRcmvz2APYEzC9s9V76mef8ZnEYQxFv8hYbI5Fj6MjmubQCbKiq+q697c6L+ITg4rCSUfr/LQMy0DUcBm2WR+oHUoBX3vB9lpYZuIiltWI8Tp5+6h9SL3fFpacQoLIU74HRSDR7FCv13CtHA9gloDP8vX/V5TcxHmeohXWnpvdt6Sm/zYjhO7x33phEQDSDpIQVypYcOYnllR0OHGi4QSAlk0I28Mi6MgDojmh+W3NH0uX9z9R4gwZN45CBC/2Cgr35veue40knvq7rlr7Oxfu/zhETX9OLFr+mDz3kNX3cca+oW69/TR289MzGWGw2+/ffz58xY7/GqRPncviccbz8mhqSNSTjAKw/NQJEOo4DpkExuEStyzVr3PTKfe18/uvJyFmzxtAo3f/4JSwpV0rAD0TTWiBAXVb2Ocn+zT6/9tGxnDRhu4UJ+RoIGM8g+/bbwIvOm7KzezZrtvgOybE87rgav2bCzO1jxy7yy4r29qPRfXzA9GjmPn5Z2T6JQ5ft7R209F1abdI+p/HhXfqddxGNNtPw9KHL/0bZjPHcQKNcRyNZO/coFhSmTFoNU4g3cdzRzwM7F3gdmiDXAXJyjOPdcUHSIelw1SoDUm4NbzFl16IxIBYFIlHznY+/mpM8/cIfJIYOVSrNCaqFCChEkJwwOcVVyvySkczMChRC1dtGnopKyPprfgOgQyXwaMCW2V6/Pi/RcegJqbuzFOK3pftS+HQE9aAhd0HKVpRWKd/IjBnTWVKcWiu7FHhOJNBCUNfO3kKbItjdm5r19S5b5gvvTFvqpCZlD904gRiBGCsq4qypyUwVkUrvt98eSQmHtnCeYUFx1wVJN/mXvyxPrPrjxUwkFiIeD4HXexznmqLoP+qE3zAv3+wNO2dKWEBvTkG4/5vo4XKy4ZWVPUqAzMykLizReuqMH3P9a6MBgNV1UTsfrREG6243EKymOjUde09ptO/Efb9bzCFDPA0YRUdIY9Ked97biLQQeEuWvGI5/qzCY1ALiQF9levULZb47COITRsBIQwWGkDs4892+hyAUTh5xoXz8dHrccQyoT79aJtb0jsHDQ3AZ19J/PeDQA+r7qunjF7Ox/+xRXy4MSsYM7aKGzfBadiOIJkApWMSvQHgvr8gKO0JGY97/vjJG4OJI/4mXnqzLyr7TQ8athdGvYSb3LYdkAIiMPzCAQRkQb6IHlz3GZ77p7nOrddl4Ee3CT7znDlNtDbLb8sW4PafGDOjI4zCdXVCCLHdv+6K8/TVP/ij2LI1SgEhOsca9a1uAgIkHZWTF7gHHvADXH018PzzbZucr74ZoGFLh1+e9AOHkCoufiWBRhrygaC7np11dQ4uu4wAyPr6KJ59VuDhh31BBiSLsPSoWmxaTxQUCfgJ5T/+zGfYtlFFxowX/pgRgAtE5u4HPy8PkareaOjfnxEgFgGeFVJqSAGhgwBAkxvk449Nb6udcELqny0pnYg6R6xerfnkkwX46S++rwcPXhjdtLEUkSh4fgw86IB/olefpeKyyz4l9iAlFGDWvhBQf/h10k36gDVP0x4W2HteJlavAkijlV96qcDVVzM4ZeVb+O1vo5g3911VmHdD7Pvffx39hoOAFG+s9nBZO/ccd4Lf8kdctcrB6tWGsKO9tnQpsHq1wH4HP+Ofe/F7EWBokLaGgqLibMgWOLzX30w2Gz1bJkAMGS6h/vPW4cHkiSTgBybDQlEI6sHD29fwbH4byTxv0BCP5b3IXhVkQQHZqydZVkrm55MZ8V0432Ed9LK1Y7jZ741aqgGlHZe+MNE4LaUmoPWI0a9awkQTffrb33qwV+/XKUSqfCCl8ChAD+4vrFnRIRaR8P1VXd2jxG5kXnzLuoZgYGnBKF0m5827t70IKi0xp77myl8QoJK7TiljqFWX9iT32edYAGhJFtDV1lad3NTvyCjv+9VItfzQ19izN1lSQvbqRZaUUbluUgns0JmZDapHjwa/qEeDqurfoAYOavCHD2/wJ03c4U+b6rOo6J8EHmRGxoMs7fkgi0seZHX1gxwx8n6Or3nQP+KYn0F0XBEL3QNb1zy6P2vGv8VIJHTaB54JkJi1PnjIf/i7X0wh0KlIdmcbARdCojEW/RWFoI+mNa0gFKWgHj/5RvtZo92H5jiZTbI8JABgHZzdrU2902etrzcpdieeP4t9B1FDKIsVVBSCXFZ3SVjInSaXPKILS182gRhj4flu1FgyK09LYj2Z7xcV2dxIoQkoQlBnZKxLf+FmD2FVYn/x0iuYnekrYIeyCb1h6Fk1haF9ncZ0bLFTbebdNfUUs7EihDJmq8Vqh8LP+OV8ZmVTzd3nBLgynbcrokt7PWlzbpWdSI+OYALO7fa9OibwzOaSfOwfffzelZsUoHw3qjvKM/dt7VpI+q4T+IDm8OE7+NzjY+zYtS3wpISaN3cNgWZsNe1fXwQElBo+7BNu5+j2rt3ZljKFolF43799GjMypnmuO43nnLeSB9Rd4u+97xO6tLTRHpIe06AQuzx82+rSlth0HNNdlyo/f0dHfZGhMPAff2Rff+yohPVD2WLiIvQvUwvhUUrqBXNfse+554SIZWDZ4UR/Rlc0K6KuBRSlpJoy4cz2noOAYwXRnje/H3wwBseBv3Tf3xCgcoTdz1CUoA8sAZpkEsnhfv9+m8zBbPx9yhGKEGycOvkqAIAS4u+WME+FIWbVq/dnjaHTMn2hmrw1l2TcGzr8Li0Etev64cQ1L0zczRtViLDUnh8COdX4Kf8Mtbs0ssGoGj78MSvEzQA5UhMI9Iza90lW2s91aMK4Zo0L14H381+ezSGDqIGk73SNVODb0rXJNfaZn0dectEJkLJdv2a4sP2ckicMJGXXmL8Q0uEDj6dfY3cabXlQ3vGL+Zwx7SW/oEfCd92EL5BgzwoyLz+Fe9RhLnFab3aoGu2/qUvZ1A32rlWpAh2WBgQ+6tDz0gi7He+9WeNPmeQrgFq2bSFY/JqmjL1Ksl0NdrfHcNUqwzyU5GjO32ezBpRy0ko1CEvycP7K0wDRCoe7x1NIWzwrAPhvvrgXqwdRAYEvRdP6koIqI7IcSBN4H7w7zC8v3xRq0ARMHrep03wESAodz3zCYnGUgq3/kJe/IfHjXwwE0MyRmmIU+fTTYdx/P5Ok7nQT4NMkGFMLoZWANlqe1EpK7VuMFQHSlWRuLjll+mt84YniZs9lMUN62MifMBZrokgy6VaKffuRK06eBgAdZSJOgV8B6FPOuoJ9q5gEAt+VWneybsE3K+QElRRUjkMP8JibS++44+6ypmyrgtup9w+puvr0f4/CgH07JPAiEfLwQ55jfb3cXXM2BOXyqOXHcfCQdoGtynE0hbNHDiMaZSDwe1d++SaZE66NnawZQTKX4yY9bV0B7WIXw7XtZ8bf/dBGhveE0EuZqIvqallUwmYRd5MlolhSHnDpwRNT4/4NNFogNkmpFy/8A6NRrYXwNNLWl5RBsqD0YPt5I/AOO2GUl5W1ORBN+FtfCJ9uhF525goAQDIj/ne7aJQ1RbTq0WMbL7por5YvHZ7UiR49hjAa1WwD3KelDLTjBNp1Axu+bhOZnoa6bgYCNYvYUskIu6izssnK3kzuNX2TnjHj7uRlV1xKMgtCNlt0Kd6uq6/4IUuKjcCzE2rMdQQ7gEn2XTo8mQREWMxE1V9xnu7bv8FqML6Wzv8EUaUG6Blhl2RmJr0jDrs/zG3d2eZK+UbzCt6yPp+OCDzNaIT87e3XtVxDnW3rw0pzRxx9BEuK6AFaSanSNbavI782hEIk6g5+dGdaGMlws7rJE0/6CbOyQ3/zzscLoIpE3uHTT+9xgbcFmEKjATUJYZNiqjmzlnzq2dHANyjwQgXmn68O5ZTpvvXfB5SOSdsz9T7Y0KPH4QDA2lqzRq664gRWVQUqbd9rCJ8yxsZYzjEAgMSECQ9RypS09wGP/arIC767EkDzJPKmMPUQWm75EOeihdSpOgLpXYiU/yNFDJiRQWZm2gpPrtHYevUkhwylzsz8gIWF73Dg4HdUn0F/1Ref82cuXDjfO/yQyQlyEGIZSHueZosipQb/8JZ9/MxMxTReLh06OhcuqLPf7fRkpjBpj/xjlpo9/yWWpvJYA3tghHxd37iACzuFmR/PcQMFaJYUUZ1w3P0kM1YZf0y75iZJIczfeczO/iAQklrsWsDrpnXQN33ddGW8+eCDMX6nfojuXZnwgCDpfP0HjBYyoBA++1QmE3f+diGkwKp2hAFXrXJYD8nVv5nC6qEGxrMLItkQ/+qbPPFmlQK7s9HSiCWuvep2mzGTGsvQN+sPq37ly1CD/ZqwgW0+JwCW9x/bZkAzGqXuO/DLxn0PXgBArA8F3t5LT2FxGb3QsjPyTLGojA37HnwkAEDf/NNHGImkcCtKCI8ZGWTPshPtzdNYM6zkra0dzrJyJl3HT0j4XugULqtgcurUr9TSJV/qk07fosdP/Llyoxeq/PyLVGH+hezd50L26XMhBw78DkeMuJDDRp7DvNKjkvstPKbxlhuPb3z19ZM+JOOwGRSpSvDNB8NpzwRLJf8//0FPnZW91WquzcCKPPW0d3bGtrzLyQjrX5Iur732JD1t5ivMziEj8dC88pSQyjf+oG9W4AlB5TqBktLXAFVej0Cfdtr3QkDtrqKBIa5sx9q/n8D+/ZubQLsSeAU9NOfNG2DmrGtRx5T/sG//2ygcqi6Wbtzd7gtXMRKlXrzvD9PXQDvPbNbgjNq1BAK/A88cBnlYVbXZX/fiTADYE9FPGmyp0Acd+p5dqzrtGXwKQd27713IzPpG00pD/zpfeWqyXn6Y75X2/SI5YOhX/oJFm7hy5fqGGdMu3Ej2gRCoN757F0KA+cWnMhKhD+mFQScPUJw8leq99UeZiy89eCKdSOjUpe9ETHWpZYeuQn5+MykfCoqGjf+t9GdM+YAAGcsmi0qoRo/6jzrwoOXbPv20hGQZyVLkZHfthZtAi01c99am7+CAOZw1d4MJXMhQwzN+EjfrLbRXnq7jz9fk1ySzeO6FY/WifR/2Bwz8gEUl6b4lk1TdiYLYuy/kJGlyYw1QEyAjMfpz5zb4F191IACwZkWHOPjCrIbkqacey6IeZAcEnq34FvDIw0nSCDx2XuClDq8n76/S+QXbrdb4tQeLaPM4/VEjtm3jttLQp9nOeEVJxtSPvn8Gs7KVL6UO199O72E2pscJE8gn150NoEPg+C61aBRayrdaCTwgyYIe5PEn3gEAe5Khu6ONZFbiq63VPPqq4q0/X1VMsoRkfgggD+UEACA7G9xr5h8JUDuOoWQDVCBcJnPzn6GtlAcCVYxlmBoOsPUYACb79r0H0dZjHsI/viwYelni5BOeY7T/fol5i5eSLG312aYiHKa3hVAHTCpafX0qBacbBiqqLzr/MwL0bRSKodkQz1rP7lDZaTnbmt+3gtNnL/UOOuROXdn3K+bkklHXCD8B5UuplehEnYz0SKOUIa+aUoBWQoaBHWWuDaUs55pxJUiyZ0/qYaO38tTTb9tB1gBos5J8u69oIQyqd+8TLUvKLrUV35GKwqGaNPFPJDMJOOwCWJu1RtjqhUsuY3YuPWHe62sVeCH8qaSY+uJLrkI00krzCvGL4VihRyH0fkssNKKDARRpcYujxgR8bM1JQPcLvHCtb3rxxXyVFX8/MBjX9MLWWmdm+clLr1gG4Bvz33WkrQHc+tDaDDVqUnhDqv5O0YTOMHtBMhGNP576ciKnaKCORJt8XY6lChow6MVULmGLRkC8Vv9atGUFopD9OOx77I130mjhC2p67TmMRkghUva8Bjz2riQv+O45JEVnNn+797P5kc2EX0bcpA9dfPkRLCv5kR406DNGU4BTXztOCrMYdjbHjbXXNYU0wRzhGH414ZCuIG3tBw4ZRr143499ODfx17++pZGsCjXazi7iFLZx6MALGc/YZSU0AvSF8Cgc+sCldj66FKFNRd5Ke97ASMw4or9mgZfKLe1V8Sl3fNWLLUDBzYSfI5FcddfBjBacr+Akgs5w9Um7NkfXkH9/9BRgDwi8mpqICagcdo6N0KY59o3PVWdk7dh+ww0pyqruvH9XW1vFv5r9PhR4Wz7uoWdMN1jHJip4RYBeds6jqe9tOvvsfo19+wQMB17aCOnwkeS55+5SE0rT0LoViBhihjr9vdDHdtE5c/SAfo1awA9EOADCswzP59ln795FZSEYzZ9bgH/+cyUvv/giPXnaf9ijNEXz1MoZm94jEbKgB9mzJ9l/ADl6DDlmDLXAiwkn+qrnxl5tcJxX/L79X+BlV7zA711+RhIYxe9eU7OD7NnsuQC5qgs+IcLAfFhRebHV8HYpdHwpPEKSWfnXwRwGuyXwdGbmj+hK7TvCa8sn2jJAFGbndEfecwoKNXX6C3Z+o7aGSGqOSTr+r26ft2PvOS+wfxUZjbNTwu7rEniAa3PeLgwzYcL7q7DQ1d4LP2F7RZa+pS01D6Ujs1jWK2nkmNMk8BzJHfP3eiD1hU1k38ThhxjyANcNT+qA0Zjvr169F4A9ltScwisBMsW2YhZTl3FbKd8PGfcyYi8b5gRjpvuuayrNL1z4L5K5oRO3+96oxbPUrXKaBX3IfH3B5dfwqBWvMhq9wMvI/I7Kzr6AeXnnez16nN9QXHy+isbPIHAqCwtP5ZyFp/L4E07lDTecwrVPnsrNGw4GADgScCPYmS+SQJfqZbS8BgBQZpxt/by7FHhKOB4hqOPxa23aT9cEnvUfet859xKWFNMHEr7rKCWdIC1zR2vpaCWF8qX0NYSvpPA9R/i+kL6y2T27reFNnLghQQ5s9nykVG+/cAiXHvAYq/rRJqzrjozR1y3w0nGBat68FwIBKicSlkBgMuIoAkFyxvSbSYr6b6hYV1daKJv8m26dyUhEpft5CShGI/TuXf1n82GTNSE5cOCP7cnoBbAo5WiU6pBDToIQ3W7Pt5e3mWpSYAc5fvNPf1poPt9xTS9lYpKCg4b+i45LbamiTPlEQfYbSNZf0xfA16K6h4WP0p4xA5EIkJ1totFSGqIDx9klowebiqMLAmJVGuPMqrQawN3y3DY/0Rs34afGD7nrXOLuEngAwhzOKM8+95fs22+npKjGxE/XmpvKAnY0utyqC0EKoVhcym3X37CKbJzpf//G+apmcp06/PB1rOxLWuiDkqJzleLaEnhjxpGP/e00oJsFXqgFnXv5QFb0pYakDhmiDSDdY34OWV19KIBuy3v+Ohpra12Swj/8mKuZkWECFeFaBAJmxMilS8cAZiEKIUSwXcoPsxwJXwXCFYQgAkjhiE8/rQYJ/Oc/EoDe5c3r6yXeeEOkGBDq6oDVqwLRxOwHmJsSAElG8bufF+HHv3b0WWfN5n/eq+XNt/iOl+jtL9h7UuOgiVMBbMSlbZZWarMJIci6OimECLxDD70vsv6dGujA0GkGAQhJrH+XeGldXwIfAB2/dlebuOyyALDapyHBTBBw4PtAC4H7PCBqwv/U1Jge/nvQIIqZM1tWZWo+Lztjn+hEIymEEHobUJQxdsQhWPccIKUDvfNlIATtaHaPkiCE8Egev8VTf8hs2Hpg5KsNc/HyS0EQjTnIygLGTYF+7MEfeF9u2BbtW+lGCvIAlZT65Ve3OhOnHhO8926t/PRTN/B9CClBBi1W404aCQrh6C8/Z/aVl9Xhj6vq3M+/BDZsAJ7/JwKAkAikkA5C1p/deFVQE7F4Yncv1EaTBAL12j/7yo/fDySkYKAtxSwDEcD1Y9FPI2cd/zyOOxMoKSHQtF5hGEqEXRR7dK+01QgI1NVJrF5NYeSGA0ALIYgvv5RCCKVnzOgHEAEMbShhqF09imDHPfdsNBeyTnvv/PMvZLGpDGVPNZ+OQ46duPYdMmZSe3bxUB2BOdjPvEUWeWdfU8Mjj30yOWzoNhYXGTByLIOMmKimqh7xchhK7qzGQrvbkuNrRzMSa6rKZE57n9EoOWPOQ3Cd3dJeCYg19fVuKuJcV+dYM3anOL9vKqDTmRY+47Zt20r1rL02EaDuQA6xljZoEYnttoZnniNtHCMRw60YasSuC2RkpBh8UtpyiOGMRMBNn+6lli79E0t7al+KQDmdiJKnaXrNcnEBT++ORtei0xbP0lnxD7ddf1tJ+vh3R2NdnYNIBJxS+7DF3DYRBkAqCpcqK+sZRGNtWzyRSKe5BPdIc4wYWLduXSQVHDWB0gI9ruYZCkFti4SH9aj1+AkNDc+/3gdAkyAhE4NUQeEmbRhGgjAVRg0b9l+SleYzO0Hkh9fZ9u9SHnDADFZVTWO/ftM5Y/50PvhOrvm+Bfs6LhKPPriv6tNvm41a0jdd+yaft5EZcV+PmXQrHNkl9Tr1PJ9vL1PTajcEIm0AhDA4w7zclxgSU3a2LuxOKIqafS40JQAnBb2xhbNZX286KbuCU9vTLYyKbT/nljLVs2qTHbtdCjwlhUfpUsci3wvJJnb7WcKFnY5/bDLnIwSibDLtW4HSPyWz/LnzvyAQKNftWqZGmDYpRPdX4bKQKU+It19DdTR8v90dNwBgvc1aIOMqP/9VM49NZp8GFOMx6hNX/BECKRPRrs04L7pgeXLurLsbzzjjBtbX54brojuebZfPToTuKcl950zyv3fDlds//nj0RjKPfC2a8tcntgxUw4ZuJEDajBFt4XX6gP2bMHjpTef2+JC2pGC4sL3ioq3bVhw1AkC7mlCKQun7PxrEGbXvsbyczMkhszLJqoH0Dz7CgF1NQELCjaBx6oS1lA6VkEktJNMjahrwmJNLLlx4CwHRkoG3w4MFSMQy4JeX39rM/2R8lSro24c8/ZS54bN1+LqhtpmRAb74Yr538aVncs78n+sFC37j1ex1gn/nPUt4U30uyUxIafx0u6hDa5/X2eO9rq6pt/0ZmRLGdr4ba+f3ZWae1zIa2q7AE/AoJBuBK+17dQ8PXhMjjpPuDwVgTv68XCAWg7W8oiRz+NVXudy4MU+fs/JW5mSHa7tbhVW3CTzYXNr13Gnt5E6PW22tCyHgn3/O4qCysolJpunehhThvLP3tvdNzT2vv/5Y9uqVymf3zz79ZmTG9ygzcyhsVwEOa0zFNH39lVexuIiUcSav+N7l/yZL+fTT8ZRiM33+WJVf0EAgIFI08D5dh3r2rN+SjDVbMySFGjTyNQJkUz6oz/Ke5PzZewFtC7yU85wUauKUFwjQB5KeIQJooBA+Ixkho0Eq+qqBh2noqJJtqPces3PJ+fNu3S2BZyilBb9z0XXs2atZhFEL4ROCurb2SjhOx3I907QVklW84Lxf60FDtzI71+QFZ2WSkSiZlUP27LlDj6v5JJGXd5davO99atSY8zhu2tH8znnH+itWzGTfvn02/+CCAVy3rj/JATvIXl15xz3dSJZy5sxnteMGuoPlKpUQPgH6ZWV32HoDu7U52AbA2/48K3nzNaN4+cXHcPb8c3n08j9x7JjVRPxONWbMa3rBPjv09Gnb1MhhO1hYZJ/v2yfsmgm8zPi7ZDcLPEAgI4bGk05cTbRgbTFA9oBTa8kHnjBlGVNWH6Oqb7/XCSgtHY+AStTUfPbfPUDXzybGnuZrxRTgqfKHDEz4gKIrlOrV97nw/ikI2oQJs1hYaEx1K8wVhGJWnGrIgJUA8Fp1dTTFvy8y49RnnvEFrn5lmBYCMghAISU++wyJgw/dH39/8nGsXs2WD2nIqCm2XnHdHdn/em60FlBSOlGACAK6MifHRXmFg7ffAGprzRfXrgWqh3+EbZsd56OPHSUQSCGkCMzlAwDSSwJvvRMIo411rc2ZE+COO4Crr/y1vu2WYx0hChRAx8B2Dd3Tfz89gkpdJYRo5C6otUk6q0kmHnl8UWLegp9lPLm2VCYSCMwjBwSgBRzH94SzY1um/OSTzBhwKO77CwDsh7x84KuPILdtC4LNWz7PvvxWR0d+RpEZlxlgkhAfwRFAeU/jpwKAQAKFeUCPQhOa6Kro0BrIyQbKexJCiEAHjXzogYf0tm1bnKoBTjCgFzB8FCJP/uslNGzdhDNPdXHgIZ+rgw69yH3hxQkBAiU7qKkJx3ECpSjnLziMv/rl5UKIj1lfL8PATUebXfyhk1yRFPjZj8brh9eOF19+tjfKygY4yi9FfkE+PvwI8D3zRSnhvPgigBebXh8IhBByN1bT19O8wAPgAa1p4rvaBEA2JqK6asgoABDNC6xrSTo6ykecfaZ/YIWYCVIctHyZ88Xn1VqIwAm0CyGE89q7mT3NgbZbwo6kwOrVEgcdBBEGHwCFeBxsaMj1Lr26b/DVRxOcF17uEcyZsxJvvRsVrhOAgcNPPpKpYMratQEiEagxo5a5zz2HQErpBAFoGNkFCgq18+uf7sCkWRh2662Bfek6B1KC+y49jNE4lbAFfWyhDH/OvOfbstlT9vOqnxf71UO1D+Mns98NFBCoysrtm+9aNcF8blVToeF4HMmbrztMVw97lQA94aRYhFO29+Ahz5LM64rPgOlpJ44DvXi/90xxbsO0QSBQABPxuOY550yl5d9q82LCXG89mZH4wQ/2UeUVW0NNtD1fjhaWZNLwdoWEkmFGxa5p71t2Kbunp5h7HXttx9QKFfbn0iWLCskpk5gcNeL9pEnC7lzxItfm0h66nAxJZDtTfNtYDW64Tr56550KfdKp13JAv4c5cIB5D9dJh5yEzNrKkncqCqHTCD27Jf82LWChm+EAzXGSylTq4rUVBajLej1vx6BbYGDhmvZWnjvdy8oMLJ18EGq7GvBYXh5w5TnfBQDeviJifWYZasz4v9JxqIX0aTQmrYt6KPXqPw6HEOBpp8U648tmiLdNrzrnSCAex453nqlgff3pevT4O9Xw4S+xakAT2zRSZrciEHiHHHFv+hiRFP7EiW/SyqwmM11Q5+V9QrK5hRgOytZD6mrZu1fKxtcQpoJRec+P4LQe//BFidISX8Y8X4AKaYykjkM9e9YDiESam8NpTCUkx3jzZ71Kx6Unbek1IQIFBH5JaSMnz+yT/nKdbQxZF+YuOIywFbrsIvMAn/EMcvToG6y52uY9VtWZ51a/UAAAfr5JREFUDIX//Hz1RK+4YrsG6AlXsbO+oJB515ZF1KLVxtlJUeLu7QpQWkBrKbSC0FpI7QuplXC0Agz1O0DtoPPs1YZqLGDtrIDPvVIF7FrghdZC+ubZdu21w/QxRz+gSntuYH4+rbtEaym1Cotu74EAQlvvwxRP4667tsKk0wJPCvKEI7qV4p11dQ6iUbCm5ibGY/TRtP5D5modjX5Gsof5vFnrXL6y3O/V+ysNBMoSqmopNF03UIuWftbSBUPATVVuW3e7+du4lNpOIsjPRXLt08u9GbNP1tOm/FX1KNzEoh4WSxkW6ZY6KaB9Gw0noFlSxu3XXTcaQCoYA8eBLiz8wOTQ2ncSZv0mRo99N73ouV1sKZt9iD9xsmEYkTJQRuiR2VkN/k1XzUwNYOp7qYyGTL33nBcJBL7lKlNAwMxs8oxTU47QNiYjCgCJlx8b7A0Y+iXDBQxhqKajmUz84JpLiPZreba65qpVJpf3sstO1/n5T3k9S/9EMos/+slkjhrb4CMtzcx1TT3WGTO+IjnQ+gua5+nV18s1BpzdP1E792M6DrXjqI468L+tXQEm/Umkp2YJBiGA13GoHak7nSKFNIE3cxb5ytsdEnipFouCDz9cqKuGXq2z8z4JhYgCfFMLonmAa092DdCTkj6gGXGp8/I26x6ln3pFRa96Iwc870+Y/KIePeFFr7TX86qg4COdn/d5wo0klbEkOnUvhhreNVc/bPfLbgu8cMy3kD0aR436NADINC5BX9iyB0sWvWj92Clmb/XDH57KjEyqZoBtkaJNV7HsV/zjVtzGdetGICcXLSuHNWvSAUmHP/tZT55++niefMaduqLiKY6b0AwcrowS4GspNO08h1ZfoxA+M2LUc2b/iWSUtbUuVxlZ5J971mydldWo0j6vpNQUoL7gnNXIyGjtbyQQgZDQffrebel9fG0ICX1mx+kNqT4LQOuapStWRCAleMIxJ7OoKEV2qIGAVf3IY47pGWY+tDkpFgfYMLn24BAlrRFCRyS94dVr7PPtcsOQlDT4nKiaNOkFCkH2rKC69saT4DhQJZUP0VC9p6K1SkrNSJSJCy48HRG3Je2TeW4hoBbtex/dCNnBmqz/T3eTNRCwehh5zQ07FXghVOn97V+Uv0RmbV64cD5HjdxgzGxQuY7SjhN8E8EGLSUTgOKoUfRPXfFTkj1p6iYLRFzjZ41EAccJD1rHu+Cc9emmVYfvZXF4jSUlcwC0qiXRlZYy+WbO2YcZUfpS6ECmR2elz0gGOWXmfuHnw+8k9ltyJ4FACbQ63LVAQCnJjDhVZRW9abX3q2j0HLX00DO56rcr+eqTK/nkoyt5wXdXckTNeczPv9hbtGgNh4/UXsQJmJNFwlpYUvrWumnXHaCFoAdo3avS9z5/byoAm2dvZJHXs/dZzIjRF0irvgaf2TmBP3L8AvtuLUg1w2jHwUtvC2mANEDlOppSUp106jski1r601J2+Tvv5OrSinconDCfMGBuHjljxoj2FnxobjZseHNKAzlVVw/bSCHoSxn4UgYeoDlkSILvvrUgfMk2JrU1RdNjj43SQwZupxANlK7WxT3vIOn45551NTMzm4hOkcLkBapm3BNkc1LQEI+kjlxxtpKuTgrp6W9plO9b1S1Il5V9yKNPqrLz1KbAW3f77REIYNvGbSP14Yc/5AtsCQB6Uvie4+hvbLyN60Fx0EDy7w/diOyd8zoSEIhE4V940e8oQC07ZwWEUVp/4ui5QLcJPEnS1bPmPk0JUkL5jinPqYUIfEDr0cM38W8PjmEa5AcAOG3avyibQLythZCjlN1HRkMTZFEJWT2EHD+aHDOS7F1JZmQ30+ICadmCREQFrtMhkoWQuNc/5OC1gLmZdX/IdWTEmzP7z5SSvhOmj4pAA0FyUD/ypmunAGiNMEk5+VetmsW8fJOZYIGWBOiPrvls+/rPy1KT22JgAcC78ML7rA9DWz8VvVlzXiLZizupEpYa5IWL/kAh6TdxWXnMziYnTz2bpOSCBTHW18v6ECuWxkqyhnS3bv1vkX70r7cm+g9+kQCTUTfQQMBeFeSpF/WD60L3rNwW+gkDICzMonT//oprntjforedlLl+0UW9OWI4lXCoTOWjb16gfNt7KPD69yVXti/wwjW37ZVXSpMjav5DGIqrr5Ustf1NZsqV1oz/c5rw2BljkEPS8S8872aDAegEM7Nh79HMzAq419yJ6Xuiq41r1rgEBP/5z33UoIG+qeMqm2cbZUQDb+DQn9r7RdLeQ+ri0hfsXt75e9hcY41d0JpJ2Uy77ExXgM9ITBOYxHrLr2nnYsdfHu3lDR22MXTDpeZOSqqRo1+0SprTau6aAhDIUCXFG9OFgtHWchWLikKerGaLN1VR6umnJ3DocBO1chwqKX0WlbDh6usuCpHybU6OAcEK/uGXJzIni54QOoCklpapYtTI99sTlojHwQMWL0uccvK/vZweW9i7gnRA7Tj0hGBSSkUp6Y2p+ROkBLOzzwsje6nJl8JnJEq/7rC7kJnZBAAms3X/oc9qwFfSUd9GwOq3socCLz+XHDeuTYGXOmDXvThPZ+f8iwA9V/pJy07yTb9DeNCrxYs/JlmWbtnQ8igyndjWUi8lFyz6mAJkZwo7OY4ReHPnkk+vHZvaU7vRDNhYghNm1DMrmz5kMwYXEwBydOPJZw4I3y20oEhOUYOGNKYLkY7OezpR7U6DSaHbrEUZTC2lDlyXgeMyLJdJoJEA/ROOvwLRSEieYVEYReWM56hQQQtghXnEpe7fp/0a1GyKmmb4U6c+S4BhAEIDmpEI9alnX9neZFjzL6KnTr2X0Ri1gK9MdSGdnDvvY7g7pTEyD798SbkeOMDzgSAseqIgNIuL6d9156V8882eJHvvuPIHvbj8mMHeUYf+sTEz+1kWFzWDKKi0QjpKCFN8paxsO+vqBvPKyxbqPhWeD+Fry5vmh8js0rKPedtdBQQcRCPwVp7xKPPySddRhnDz/xd4HRYYTUV8Wgm8FIqfLG2cMSNJgIxE1LfJXRDSQqmh1Y3bybJUNlFbEAwhAEdCrVhxmsrM2kEJFaL9O9KVMdkCPXnSv7oKw2pnLxfowUO+DACGpSs1QN8I80DvNeMTkgXms2gSeH/8c63q2UuFSo+WklpKlQSUhlA+LPRHik4VpPekoC+gktZfx5Zdmght0paaMD8D2aOIHDDov+r//OpMRCJolgV06OHX0nFTVPXa7HvNWIzexRfUtwdaDwfKRSwGLlx8BeOZgSFytCFz16E/uPrp9nIjU2Zp3eGTGctIaohUziHz8xu9D18YHyb7tvqu/dlmstAbMer1dKevFoLKFUGQk081adL2xP57b28YOCjBeCYZzQijO56y5mtbp4oWQtF1qMdM+APcCPw+A5+n27wgjCegmJVF1i29AgJQBxxwrB+LBaYM47dnI/6v9BAH1VLgWT+pQ9L1TljxiB+N6oTj+F2JerP5vy3uUfhaCEWR+rtL5rE2OE2tsuOeuu1HpyAeN0EKUxa0jCefea7uNeAKSreebvQSXdHvJvbsaQ/FTkNSfLvPftwducesrzepZCuOu5JZcZqazpYwwdSe9ZifQ2/BvNMgRJP/PsTsHX7yNJWbn6AtsapCSI50TCaRG0mRrJrgZscycALAVCjMyyH328fXRYW3+zk5tyQLC2/VOXk/SQrnOjVr9jM8/iTysCOoBw24J5mXd7N/0qnXksxuJswBF0LC7zfoGRrcp9nLtk40i0sV//b4eDsebVuHISBwy48u3y/o2dMsWluVPRCCHDF8R8PWrdMIiJbsuYRxJK4hXa9m7Fv2dNAEfGZmkwuXXgqg7XoKQpifZ2dDT5/+c1s+zoKfBZXjpsLh4UL3hAiSgPKFVEq6DOROBtpiCr1evUgmBnFc7RxCphUwkVTS0VrKwB8x/AP/jp9drnONH7PR+RZUHvsf7O0KvPp6iYwMeN+75mL2KGYS0CE7bWe7MuzcodnTPi5uV+ZVe+8gRaAjLnVpeaNafvg/9GGHr9E9K19iUY/PWVzStPGFIF0DX+mK4NZCeHQcsqTkNnsgdJkHj7Ze7g6yQk2b+jmF0J7jplUmk4EvheLo0dvZ+NU8q006ALAmFHzzD53DTBNJZTyLHDuSfnbOCxxbs1avOHENDztkjerZ83G/V68PWFDYVLZgZ8JeSvr5ucnGE459knfcNotkH0QjgOMaJhZbmZBkBskqkn2RmWl+3ySfZGh6ExD+Vx/M4ZhRO3zRZBHSsckSUya/QzKTZPuHRxilJFmqhlZ/TKseWvyNz/wC+n377gegzWR7+90IL7jwZmbEjA0upaJ0qPea9Y9NZD5hH7qp8ImTqpvAHRV60uQvfCBoq9KTljKg4wTtntqtKXyCFNhXIsmcbM3a2bdsJgs4Z46ngKDlZmNWFlnZh7693rfBn/SNdTueXRIWbQi8cMF6f31gnB48xNMGltBhDSwF2Aa0Eq7yQs2jMJ8qK0v5tTM/9/sOuFrPn/19f8a0a/xB/e/SvXsllXToS8dgSrswDm0K0bTMGR1Wh+vSwWizHXqWkT+56QYAu0X8mdLSrrjuHGbnWs2n6bmsthaoM8+8P/3z4RzVk9I//fwlnD/37/6IUZdy8eLT/KceXkrSaYm1I9lTLV58uBo57GXm5xscXViaNC36Gkag9ZARr6cnMDCsRpjGctOGTHFCtETqZ1b2+OW9FzO3gH4KKiaopOMzFqVectAPSLYmmWjjBhIA9P6LH6JNozEXkj4jTqAXH/RD2mr17Q02H147xetVkXJ6+kCg+w0MePUtxkFqi+ammhDgq69O0dNnvGTDy53jGbMQAt1G2la4IH0hG30gqYYO/yfJQh52yPeZnR1o0ZyOWwGBB6iw0tn/U11Io5UbrSmVBqdbsGt0UuD1S1vcAq4Lr+6ANQSonI5h1cIUvVbCp18V1ZBB/+Jxx/2If1k9nWQ2HAckcxrI3oi44Mb/zFBL9t/uA4F2u6ZJasOw0iyNrLuyOzREEMClikW3Nf7t/s6BtFvv3VBhydATp35kzfymMRaSPhCwupp84tGRodLRci++ZphmRHo9aHttI3xsGYbU78gs//yzfqLKy42218LEtf5crfIKPklcXT+IgBPWO271DqEitJOUNZqIeSQ5d9HNlCJQwvEDCBIGjqJyc4LGOXPmm7HcBQuSvZhQP/z+d5kRS9ElM4SnVA/bmj4ILQfL+mcy9fQZ6+i61MbsNELzwKV/DpPiSUb4y9vq9A1XXO0v2vf/cOjQJKWk6sDm0maz0JOOTgBahRugqJBeTq7SGbGtfsTdkszJDlhZSWbnkrkFZGkpg0X7c/vadWO55Y0eesDgRkJo5cgmYKsQDDpTRvEbFVCizW79T4HdqIEWJqdUCaF8SF9B+D7gKzN22ge0shkXKWHiumR5T+qs7G3s3ZvaLtxOC7xBg4aYhWfcJYn3P6nWpaVJtqfFC0HtOIHBgUrlwwQPKARVYWHAktJ39KSpj21fvvy73hXXTqNl7khfv+G/V1l6+uTpJ60nQOV++w4xDQR0JZWUX+2OKZsaYynhXXzxGczL0V6aj1oLQU9IX7tuoKdO+S3J6K58hSkNzKIo2rhfs0p9/omnzFf9h+wwio6jfEdSi9T9FTNi9A6uWyOKeqS+3+l3THsOf9DA7WZtSBsEEZoQVJUVn5I0ELpdBX/Ch2i8+gcDVL9+W7XZOClzgrm5jerZdXXpYexm3w/9AOedd7vN2FBKCPpCUmVlMTF89O+4fOn3Ve2Utezdm3QkaXx09AV2eeLbDazCXE9GY/z/2rvuMCuq8/2eM3PL9sYCC0tfemepUpZeFBTFBQXEhigWNEZjz4qxl0SiUbFGY0mWWGLUxBZMNFZMYmwRe8OGdNi9M+fM+/vjzMzebbDAAgu//Z5nHhTunTv1O195v/fVPXvRGT3iT5x56Nnu3JMmJkoPHsDivn3dWbMm85Kyszl26nkcNOhcnrhoCcsuH8rH7swAAD1l2q8YjdIRQu3SCNVOOKZqqbYQHgX8aEFUn6eVsmqr3bZv0La9ehalTUajhllaSjIaIeMp1PE0rQb085wu3d51xox9nv37X8YTTjubZ507SP3t6VM5dLAZ+5MNWwz8+i8TAwb0BxDWbjc+/OcFzMrWSgithPTCNFUIzSoYgjnWWJTMyqI7oN8aLpj/QOU1l818h4yG7MbBM7doUSQ5IiDLJMvKogDgvPTCCLZtV2k6/02vFhvAPjj36O9rDbnvjCOogsxkuUOHfkqAjhUO0lP5AkMsLCTvf+gI/11vHJ5CUrCXT1p6z5+G6wEDfiBAx7a0DoMHYUb0YnHy9NPvok+BtbNKesHoqHrttdk6M6PCPDsIOtCKANWQEQ8DaBgtWdKFy3BHlfyXMHNpWvhA4JRUuiPGGmVy/ySrfT8oLF5yRQkzMukCnickXemH05ZF5uSEg+AJS2otpNoeMaOWpqOqAicH0CsopJ4w7n01b875FS893wWZGTtz3cAySJ5+UScWtFurBdTOdJpqv9yCWhipuxp6s0EKpLfrhBqy2bbh20tNJVPTyJRUMieXbJFPtmhBtm1DduhAFrajknKTY9vr3Zzc9apVwXrVred6NWToep2R8Rxzcv7EAcWPc9LUPzr5Bec7M6edre649WS27NSK99zT+pv/fJNG0qpJFsGp03/O1DTTTGpAOhc6vIED+wGoKndUVHTRbQrrH8TPyabbrn2F7tX9FX34EbdzxYpj+fl/c0CKMtJmADoPVO6Sazs1JCETr7/eJzFs2GeEgWLsa+dWz3VyCOk5/fqdsjt0+EHDIXHTL3/DlGAGNvgd4XPgCaoxwx/zGxuNTuAZqswtu/4gd0Df9R58WJn/jihLml5Abjb1yaf8nmTA7Nxgpxf4HHfYmDv8qamQmFYDipZNdcrZp/kpeK1zrHVxhRBcWVZii1hssztn/j/w5ht9vcoK2hCgFDYqtnl2mpxUSXaFEB+RlEIIL9zBUkAsFdz621s/ihd1rhT/+U+UljSDKIDwtFZYv54QQlqAQfqhjnjZ8FlpDxDC09ICLGRlwmtb8I08aPjKBNPviN9582oh5Ro88AdzMYqLI+jc2UOvXsTSpUBpqUBOjsTtHxDFWwSKi4H16z2xYoXGCyVS/P2KT/Xwg+6RP35zjucoXe9FBgjDeVeXCV8WSFr0BMyIkYQdBVQCSEsDMrPgrV+3EVakAulxMjtLiITezM8/+xhtugDtW8NrkQOZng2vYytAeR7TMlOjf/97OZ555ktYlkBKCtGqhS/XYxk32rYtkJoKQAOtWgCZGUBCaF3+4JebMzJ09JDDEe3aBzh8DpxueSIzLfU9bN4MrH+z6ugf+wZ47C/mv48/PvmcbSxaJPDSSwK9e2u9YsVXls99WN91SjZp9oGtwV+sWEECQqSkfOwed8J98t//nerpSg+RmMU1X3zqdW6/UYybstZ+9tk/cP7x38gli/8thPDw6CPhPi8FPAF4JAVmz5ZYsQIQQpYDKAUghNAwvHl53vnnnKkPm3lC5Js1bT0BWp7XBAQZqhsti9LzpNenn8D1167C5MlAaSl3VoSJhmnGIykSrVqOQMU2TyTJUlEAnufB6tgF1qgpVwshPJaU2fj7zvET7sjE0qWKxcURceY5L29beuXB4scNfxVffpnuCeEJ0nAhAba3boOS99w9x33m6QqSFwjL+paeZ4FkNV9S8zzLyiSWLnUryC72mIMmetu2EZZlCa2NhonnSd25E6z2Gc8KgCwrE1i6dMcHHqLgf3drL5WX63gCVCJJ2DYvl1sPGjIYqO2dyRD0aKuevV8kUE3wd0cbhfT81MxERZZN1aWL4hGH/0OdfdZCktLQePu/54+X1Vfg3N45EhB8amWh27Jgg1/grTMKCKEHNaMRIQxfV2YW3Zwc7Q4s3qQPm/kuWxZcx+Jh16n27U/btORnJzr/ef8Mbl1b6HenzYhSQPluWaYtH4sZMZrUVLOlpaEuSq7dMT8yspMKz8l07yJ5C78TdNB7972IKakN0qX1zPXxKAQ39+nTL/ht/0/hs9JIYdvmZZUSiNhASkr14/XF3RlMAtQCkfqH6ae4JHPU6aeU6TGjfmRqGimrQOVNbWPAKC4k1dhJZ8PadTEplpVJRCLQ5551E1NTwmgujCKDefGS8U+TzAiysF35rQYdj8+CxBtunMWOnX29jqr7oIVgwrYMsHnUsE3bfvOb+YE4D6tkBqzksoXZr/E1WyceNJgtW5IQIZOL9kXHdJ++T5NMoU/6sXMWjcIdP2E1Ac+VEc9DEir8kkv+4h9gfSwYct1FP+2gZx/1D+bl0rWEdurAW2mA2rYN/Y/Bxplh486dyB49X9MXXXBZ5cUXdyUZejn6ZJ27hUYPXiBSOIvPeJKRCB3bDsfHdFBzSE2hzsz8jwv8QQn7McIq1/ktV7JF61fV6DHPVV568bnsVdSrcsyYrtv++WYHktkNPoYaTqaOLRCkqXsLHFeNrTx4aIJuVxllvaN5OzrGwOF17Xoh4/EGO7xg0iLRqVM1hxecd73XoqTEriNVrZaCkRS84orRlQcNPUx1bDenMit9lpoy7RL26PkFc0NcmNbY9TLFntg0wIQAlbQ8DZGgFHQWLXgvOL9deZ6N8yqTfP2ffRJ9+3iq2oiVoGP7tbv2nbjh948ZJpZG1piu87hKSmxEo1Annn4yU1NMECOTFh9hfIkGqFrma15/9bVbyAJYlq9KJ0CuzQRQVWYLFs2LL3iagKfC4QSfASkrixWnnLoUQN143+0esP/QceyYM5mRTlf4EAUhNC1JnZX3UX3wFP/gBACsI7N43LyXdSym3RowBArp+aMmirZNpqRQDR6yRfUbdIF66N45iNYgKm2kImvS/kz0cPvtndip6DuD75JVIzi2pV3b8tx5c1aFAMYGrBoEjGQjYFTKVq609+SKuidtTzi8nfr9oJNnW9hMtnLmHfNzFhU9z549DfJfBmzQSTCkplivMxMOnrIsvQ3wmJ5Onn7i2yQ77o5wenB/9JiRv6OUXoVMEkoXoCOlYjRKd9Lk+0jKxn6HtntsgIRtQQ0fvpDxmMEA1qj/atv2HIDs0J6JqZM/17HY/czIeNg9dOYdde2PZIRZuR9TSAYLmoZppqn8Vg4furtdTSLZhh1sUIB84c+jVfeiLRpQwcSFAhx2KFS89urFQP3eNNjH1gvLhnppaaZpgXAkxTg9SHLCRHLYqHL3uusO4eq1mSRTSKaFKdceDMGDNELNmXMe09JDGE7wkDqAYl4eefLiM4NuFLen9LWfOrb6bLcdXtu2u+zwWG46rRVkR15Zdi1Hjtzk3yO6PnW+ElBKQrkWlEbj6cTubiSnATMgL6XSkI5K6j4nCju47pnn3E/SYBR3MfoOIrWKp8oXqcyshAaUskT4bqlAZqGo89bKR27vBp8Cald+a1eMpFhVXBxBTjYSN1z7Klu2MgtSNV1gEVBVmUaWT+nOrj3ItZU9AbPoBWBs/vaWxSzq6GrACRAD2szse+4RM/5dJ9lngw8YsMpIqYuLX2XEZsB/pQNVqvZtr/ejvPpBhKTYSObpqVPXEtCeZVPblsdohPqoI51ts2Yd7Xz++WjEosm/u9M1uV21YBCZZK4aNfIz+pCQMAo1tUTldOr4pZ9Kyr350OxrCx1ez547VcMLu7TZaTvt8PzRIZO+XH7NYM45eg2zMoPaqdJCqH3u2AKN2lr0+dLTsDwdzHTC77B37Ejdss0afeapT/OcyweE57p7IGOL5S+n6DEla0z2VR3WpSypGE+h+5NTb/a/s8dT2ZpWZtJ16zsyXf/y6heZnRXM39a6nqyCYjnMy1HqnVdPAwB/YsImaSeK2t9AGIaj8DyFcJjfkmr6YQu3SxawIwvZEy699Cr68ArPX7koQPYdQP7jX/nbCyEDTUw15YifMT2TWoptBCr1gOItJCcEKaKf/lUrUO/aJd6F8ywrswEB9eA9P2Vei1rjOK4llQY8Tpvw12Du8P+LBYuZys493WelaBDPWwA8TrRpM9DfT0MYqwVL/JQrMxNqyeKf6ZT0tQToAE4ism9TVcKfuAheysChAWauNjXF4ByFMBjC6VOoD5v6jJLRS9Rvb7+QZB4iJhlaVVwc2eVnXAhw5UobERs8/fRbGYlqLaVbbZzLDAood/yk9SQ7kBR7o3ZXlyVD3fT1l7/M/Ja+oLmskwpMAR7TM6guvPgEAGEGyeeea8X+xaQAg6kZn0JO6c5FP/DDzwy11k5i+6oO1F993GdXjmXPvqwAPDcY0vXFe9m9nxnh2E4tz8+9cxPtOj5PgOzYgRWnnG3S4V69ort8gI1o9NlTKzp1upeWpBKWS4QdIBPptcilM/Sg0SSzd2fecX+ywOGtb9HpRNrR6in/Dh0eWAF08fezfRGfpNqSs2HN4C09+zzEgtZmwZFGTErtQ2fnUyJVObj2naiHDXEo5Qs6t+U/eNiRz/LhFc/y2LkjKzMyunPUqG7ctqZDzQWSjZBWBsGFc/vdo3V2tmKNUbdgYokpadxy9nnHIS11R7vc4xak7SRj27p0mU1hVWpAKwntCdC1quacXQiPKSlUh840Di/o+g4bP81/rrwgKlQCijLicXTJSwDqnPFv+EFWzeal8Kgj/knLohPQKAsoz7Ko+gz479dk6va6TMEN4muv5alOXU5TZ522iGQLlpfvcrG2sS2MZl94ua/u08cxNUuRxDLhr+wDBvxIcvQ7ZaXRnUWJ748WPECbZh+9kFnZxuE1DHisGY0wccOvrgFQL+TCj+oDcfOo85vlZ3LieB02IJJYcvZpdBePUeVluWrU8BcT2Xnzeeq5R5McDimrNITru4ZAZNXyRbse0dXc33XXpa0hi53efZ+nEdIO0zstBBOWpRiL0j18+kt+yalJ1JWrdd4nT5il+/XzvKhNbUkvOTp1DOEwt951i0lpS3tFSUbcvn1fDcZVA4enAc30dPKBe88mUOf0184dpL/y8qyz5rmZmQkVpHtSUAm47NpVu9f98hBfu7Ve70r4J1tTMq0JGUtKbEgJ/uKKy5iexfBcq7A+ipZFt3v/38Kyd7nzuD9Z2Hi6446T/Zla1RB+QA0oxmPUN932GlD3yhu+iKkpcFf9c7o6uvRV5hcYSIll7fs6Har0FHSnjg/y8QdG+CDf5HMwTSuDGaw+CbIHmlgELNg2eNTs5fTlNkOnDFBJ4SUAh336fs///bcftiOtsC+MPls0LAt87PcT3Y4d12vAVUaHgn7tU7NNodq25osS8yUIXnfdDN2ti1JJrDTasg2iol//z/lddb683TtIn/ZJ9TIzckEtT/ncU+qkE55BLLrDHwsLrTXoXpqKMVApi8Whxk1cxXiMjp1E7R50qFvkkVdf/AuSkst3Eu+zn1nAarH58+/nsKirMmnIjudpNaAYiZAnnPQ8UN3hJWEgo3xqxWR13AnP6q5dqvBzTQhWEs5nnrl4DoAk8HaZvbdLMcG9SNx12/Hs2J4Bs3fwbPqsQZp5eXTOOeuSMlLuLlX8njL6RAmJ4cMXMhqjIyxHWVIrIRwKQffQmR9CWj60xYY7btzVBKiEDB28ksJlSpx6YPGl/lhe45wrAQnLBs877xYfi6f8H/QoBHWH9ptIZjXKj+1jC3VtV60ar9t0rHAB1016wVUk4mkIxW7dmLjhhv4Adlt/oKlbsODpeMonZrqkASQPvhA7h4z+m7+PKocXlA/eeGMoe/fSgaNL2JZuKDlBA52VtzMML/XswxBKzj7yd/557JNoKZx+Ijvr7j3XuIBy7YhOTvd9MlRPjxvz4layzZrVq/P97zS94KKsTPrvWpbTq8+nVc0fm7pfnzW84aa+ASB7I5nn9O+1iULSCXGyBsTsZGdt5cqVfdhYkawf9Yhy0uI1lw9i504Vyl/lfbyRq7OztF56yZWIRsCXy1N2vNembYEDS5xzzjK2bk1XWlVhtHmwtAYUR4x6j2QrALveGdoPLIjc3aysDwjDmdcghycFVUbWP2Bb1VZfBpxtffo9ZYgl4OjwedqdNNZEOa5lea40tPEaoCOlp3eRDScccRw95mOaWvVeRRAA4Ttok0x3Jkx4mpZNJWQ1USllCY8CdAYM8Da/8q9JSV9ucs4uMJaWWpACiZuXHcPBxavZrcsH7sSJ91Y+91QvAAiyJ95w3RU6O1u7yemsISXQetLE1wMR8cY7MFKUmaZEVA0d8ioty9OWcQKhZmSXov+QzHinvDzaFFeUnTFW6S5kc9ykZ7ykqNakD6CyLMWMDOojD3+KhlusTs6wA8Hoz7/qDh0+pJBUDRCZDlLBRGr89WDRBAAuWxb7hkxzjlu4nFk5dIVQu+qMqv1eQBsmfAclBJmaTrdNW3pWhM4uSmz6Yj6em5e/hf94xUgo7u1UtqzEhm3DXXDsDUxNpSPNta16HgUJODoaTfDnF58J+M5kP3gPg+diE5lPMj+A7QRgY5L5us+Af/mZpU56vlxmZpMnn34cpGh8jGFwk9Wvbz6JmZlUPmmkB58CJiWdPPuc4/yT2O+jneBGbLjllpzKjh3WUQoqmUwUKukCLuMxJs47+zbEYljZRGuTu2v09UrcFq1eorDpNjTCA6iECISfQplOXn31NLZpRw24rqyfFmz7jiiMtr2QQ09IMi2Fbp/e37gTJvxh2+GHl25d89ERqqjzFxpGGErv5O+EFOx5eeS8Y86HZe0e9GFnr33QNLx5+TFs05YacFUN4lQthMu0VOpZMx4FAF9Ccr95DpORGmGzBwaT685ZMJnZWVSiihhYWZamEFoPG/IlyXaNAfWp+8AAwVXLI7pzp/c04CUsK4APmIe7d/EbrIs2ej81lpXZsCR46pnHMSW1UgGJKtYHQW35L1v7Qk/dfffJ4XcOMCMgISWccaOeIUQtCu/6UkEPoM7Je49kdhjhkXl69JiPNeDpndFurRHRuJDKDeT+UmJkuzYbdFHvP/CGK4/nO6+1RnZ2ePzOA3csZvuOdAFX2RZ3VoUuyGKcHn3f/doIw+yVSaDgPXJeeGqI6tlzMyG85CkgDdAx7NDa7dnvq83kRAJyf4RLBUQX4f/7zQo9auTzhKCG3zeANJjIiFQ8/PAr/c/umfOlr/jNYWNPZUY2lZABoYDnAEq3zK9g2UUT/RM4IF784GI6Z572OKPxUFKvWioFkL16Keey64sBHHBNDAISkQjU9Vc9aaAPDdCiMDU5l6NHk+98cHSwL3XZxQuZm82EgBdKBzY80gomHRSFJONxOiNH/sgLzr2OLzzatwZcRLKszGZJib2KTHXOv+QBRuNUAmpXKPwdAc3MLPLsc0uBPX+PA2WuBNlbjx25RqN6Skc/ulWAwx7duOHxh+Z8YiYq9vt57jCqfbp8PDt1SLj+HL/JGAxNP9t2JB95LW+PLj5+10Q4ztphuke3TYFmgqlpCUXbpj7ssBfWkPkHyiB9MJu3jWy/bcbUTxmNGIHyagVjE6m4Awd95dAxTu8AiXKBKqfPzt3G04pQJQFdtxeFKcBhm44e5yyaG+7roJKrmZ7pKcDZIc7Ob2RQSq2SR7naFVKXlPxdHXvCPJIZiBtNKJ/Xr9pzR9JwYZKpzpQpqyilzxe3cw5PSakopadGlrzuNy92i55sB9fbwKPiceghQ56kbVFJEWr3aoCuEHSl1GyZT1503pVlTQhrt7vm30Ob8+c+wYhNx7KU55OOuJalKCX1yYv+wR0MPDTOwQQMDSef8ECQzpoVx6zA7NiB6j8vGczSfhha12WB8/r8mpvaqBaFX2rAdWpgxbT0MYnTp39PsgcBecCcP/zaW/GwUczLN9xjDZm2EMKlsMgeXU4PdUdHj1vG9AythKjf4fnNMGWAtUbEJyeHqmXL752Zhzyw7ZorSsqTRraCuk+9xx/AYFat6uH0G1Cht0P2ugPnq9iukO4tN82CEHskykvqyEo9fsr9TE0NpBWTnC/oSOkqQG3r3PU3gAzEs/Z7pxdgNH+46aY27NTFRLNJWEMNKBYWVmx46LeTAez5TDLItTfeflM3duxkZBwDmhYhFG1LJ+bPfYFkZHdJOpuSceVKGwJIPPHIfPbpYbpiNWpBWlouIan69/1LAJrcn4rH9VmIAevbd5BOz6ykSSt36DC08JsJrVv/JHB4asK4nzAeowYqtTT7YShuJL1AIpKAERtKibNyQN9/c+78C0i2T57U2RmHw7IyCSmgyi5boNMztDasKw13eoYdxSASDpv+LtJSGxcKgaTIzo7AHTXuJubkUgGJmguDK6WmEHSmTfk66GoeKBbgNd2OPa+kISypUl4zjl/rKVNeRcTee6UjGqaHiB40+F7Gop4SwlAGSUEFKNWlyHMfKz8E2LmHskmbEFhVvChC0uIvfr6MrfLpAq4TsUIpOk/47XLLJjsV3Regv/d3pxc4vMpTTumuCgq2BHXbHTo8aZno7Kdnf06fsZqlpVF34oR/sk3bECaiAVJYVYP57dpTdWz3np577F95yy2jSaaFxwJIlu5aOkmY7qpecPw9TEmlK2UtQsrtOz3/pctvSd6y7Bj/2jSa8tdKwIZlITFv3i3MyCQBx5PJ11PQtSytAE/36b/BXfniRJLWAZNJmDKY5Tzy+CinZatNlKIqEheSSgjFnFw6555REnx+rx0YAFT+7OKeFVnZlYaHyzw4jm06t2rmjDcQjGodQBacz8YRE29hWgYdIWukZj6MISWFuk273wG+Vu9+XNMLUqVKsqseedCPhCFd3JGDoLAM4WvPnltCp2W0JzJ49pmlavLUZ5nfoqIyN0s5EN/pgw9eq5csuo2z58+irysaHsPu0ClVnUfA3CP14MGvuUC1rmdDNldK7VmSeuL4/5JMbYxadYD7hGXBveicZczOIgWUtmUSEFvQtWzPFaBb0NbbNmvOaAAHBAQssODd0gtPesPU6+wwlXeFdD3LYqKo+3Nf3FCeQsNNufcCCXNwAm63fg8aBgPTNtZm3EypgjbctOKRI3yYygHRsQWSHk4h4BZ1uc0fizKEhskztxYcxlPodOj6+0CMZ3+O9MIOfUrKfYEAzQ4L/TCjhxXC2rau7Lz2AKqPOcXj4Kuv9ue/Xp+40tStUpBqBnU+vacszrKyaGOXBYLhfz7/RAe3eIijAe0I4SnZQKcnBLWAYn4rJu65/5hkfOGuHg9RJpESx7YrLvsNCwuNlKEUnpH+9LFnQnou4DAjc+va4mJTv9pZ3YYmbGHZ5J7bBzC/xXotbKVgFlUtwASgdGqau27ioYcAVbKUe81WGtUrycWL++m8llsNVMCEn1pKRcuiGjPmFZ9y+YDo2AbGJPUxPXnK6wToWLabXNPzVc5MpFdQeC/JdPpaqvv6+HfF6A97s03hvbQjDXJ4vviyq/LzPfX7+8sICC4yNElBelnH7+w6Y21DzyUAQD/w0GJ27kpXCKWidoMcnhaGGo2Ap0aPfx22veusxWVlkiUlhsjz4nOWsU2BjxWMMJmA1pO+nmteHnnIoQYW4zNRHxBmon75DhlVxx7/L8Zi1LJqsinAQapBw1fBtvdd4MDSUguRCHT/Pr/3I50qJgNAs0ULOuXli8LPHkCWNMzd15088UsTgsuqYW4/4nMAh9E4KwcNfXalLwS0P6a3IdX7sMG/9bUtGgBNAZWULuMx6vFTH0ZqaiicFO7XpIRVEo5741xIwdJSq4yU7uy5VxG+RkaDHJ6ga/BvHvNbruevbh8AYKcRCQxkDOwI3PkLbmWOoSPTdsRTtlXt9wi4zMyie/k1D5GMs7jxuPWagoXv0tPPHc62bamAaiwwBFxmZXs8+ugpgSTDvjlQ/6ZVXnxuV9WqFV3TafNvlNQa8CpmzPjhM7IgiIr2yYHuIQtu1FZn61B31KjPCTNjmzwqlRQR0D1sxufbyJEAsL/RSgXdMye74AJKK5yk2HHjQhr90W5dVwV1vKbwsoYOJx6DM2f2CmZm0AES2k5qQm3f8bmMp5KlR12OWGynamkBqJikpSccfDPTM0nA9SxRPbITggpSMT2d/NmS+4Lpkf25NFLTghLRd2T6thmHrNKAlzzJ4whpOrPFI18mae/zbJFlZbKMlM60Qx6mbVfxVQlhuiqZGeTPLjwLOPCiPADgqlWpH23e3JJvvd9dDxj0aVBsrVa8B6j8EN0ZO2b9988/PQYAWFa238zeBmmmOvywcxiLNdjh+fg1zT59yDtuNc6+iTwHPpDeIlnABcf+l9EYXYhq2hDbceQeAc+ZMv0rsuHkk2E6TQpOnv4HZucaxqGajjaIbGIxVh591H1JL/uBFTT40LVNy+9YzFYtmJDVOf4SEB7z88mlv2kaqI8wHL3jt/10m7ZbNKCDcSvXyKfRHThkM8naResDwYQA33nHcO4/9Y9eHDjw02D8SkvDDB2uVtJ0sCt79Vvv3vXbIwEEVElN/poEjSd1590XMyur4Q4PoIYwNa8pU07xiQSahMMDkp7fJ15rzeHD32YkQhfSNZF5/ZAV+qpsTmpqBYEGObygyeA4G4o5ZOiTTE+j60NPNKoaFNrAu1ympFDPOuLeYMJpf3hOdtYICKSkwhkz/gsCXjC15DdqTC9g0NDnaJTLmoazDx5gPevQ++gj0pNCf8VIhO6hpb9GNLJXmSb2poUr93P/6KUGDvqSABNWpBpNuT//aOiLevcmL7xwyTuGWmq3On17w0K2nJVvHsPMLMWdc3iaAtQnnvQHCNnkqPGDa7/ld8sLdPfu7zFi05WW425n5paBiFU8XsHH/9gDQL212bCzD8BZ9bdhqmTkt36UXFuYOpjoiMeo58y5N4TS7Id13x1Z2AM448xLmZJCJo8s+kgAtmqd4NKlk8LPNwUL6Vze/rAd+/TdTCFCmm4thKcArdp12pJ49Mm+NVkRDiRjWVl0Lddmbv7ww9567JgvTU3PVjVTJNeSngt47NCBXLT4oVWkaQg0lRtahwXRC4EoLXuzP1bYoEmF4MWuyMo6wd9HkzvPcME644J8NWjQ67RsujsYoXMBly3zqR9/6nYAWFWHkl34rEsJ3nnvCap377Umeqnd9PGprhympVOftfjBVUaA54B8XwL8Iteta6/79Nmg/MwwjO4ATSGojzjiCb8z27SugV+PkvqkxZcyJY1OEmFmQvpCKKWzXwDQ9A6+EY0rV8YBgOvXD0rMmPY9zcPtOEKGivDBQmCYVwTV2PFPcts2k/I3QWcAJDm8887LYuuCbQ2dtggdHgRV//4n+ftqmufoR7Ffb9vWXo0peZexOB3AcZO6pjUdnpeRycozzrkVAFbVwMWFeqpkSuL4E69jx45hlJ+8HyUFlWXTkZJs1YrqorI/hmnsAejsgKSssGTyzbQE3SQYiistzwUUu3beyFde6NkkKeeC+gLJTDVyxA9MGtA2rXzh6pzcSt730CKS1r4SBd4bFtS7fiAHu0fP/oTxdCohaqlwUUo6llSMxch+A77iE386ESkp/gxu07rBocN7+uk03a3r2l1yeN2LmmyEFxgB+W8yewOZo2fNe5Qt8+kAngJcLYUXiuUYaEoFc3O4tfz+B4HqEV6wqJPs5Bw641GmZ9A1UUw1Z0eArm1pF/BUVrbLsROOJRk/EBsUgYX0Ty+9epju0s1TAq627PB6JAQU09KpjztuOSJNuAxGQMKy4Nz1u4uYmUMlhHal8DQEHWl5FIKcNo0kWxIHBn1UfRYydJCtnVETH2BGFh3Aqc6aLKikrMKAFRZSzz3mavpMIE0xxSUpVH67lYQRyG4Ig3CQ0qoePc4KalL7+jy2Zxs2fJ4DACRtnnnOWapbL4+2eSEdXxpRwwjOOF06e5UfvnGY+bzRWWZZWRQRG/zTivns3v1DWpbR2E2qCRp+u6prqNoWOhunT5sGYL9pZO2qsbTUeodMrxgw4A2TAYmQo1AL6SkIql69vyTZFUDTxa0GD/P3ZEHl1BlvmhpWRCvhF+wNeabnLjjudgAHFJ6oLgujWCHAWXNvYus2fgpTe35TCaFdwKNlkdMPfYd/e9Hw6pm0psmscCSFWnDsyz78pmFYPL9pwblz3wD2j5JGMkCa7/5vGqdOfUb17e2yVRuyqIjOmJGViSnT/lLx7GOG8DYpGnuZTNGHTV3Gbr70ZBI9edL9ZmWAUezVb6s7+xiznwNUJiCw4Fl2rrr8dublUiUB2H1+TcWsLM+dN8+gGJrgol/NwuLvrbf21x3aaQUoz5J+bi68hGUpHUtdV7H0iknfkekB19qBaiSNGno0Cn3H7dexS4/NZipFVH8JhKArLSakrShBFhRucC48/6KA9417kHCyweeCEhvRKNTMQy9mPO4r3jdIlNvUcNsUfBnQve/rc9mehccmRFU6FbHhvPXqcE6bO40Xlx3skIMDhmWWl0WDc2L5IyXs1/8pWpIO4NG2dU14ixbSU8JEve6hU7/gF5+MAXBgjYvVYSFB68rHe7B9u+8JOMkaxFoIRUCrocNeW03GaMZXm+xzYkwIk86lpcI989SHmJ1FbVmhF1dSehSCalbp5q/JFgAOPGxeDfNR/RakBItndtGdu39EYbESSNSiG/fJLz0Y0kunZ9e/8i9PHBHuax9Ge8ELqSZPn8OC1p7TUCJQCI+AVm1ab+HfnioBgJVNKGrdkfnRXq2FmcXFERYVGdorMsarfvEku3QiI1FqIVQtRwfQsS1DApCXx8ouvW8NlMWabNrWSJb8Djj5bZYzJUbXLw34foGukJo9e/LHF14xqX1Tj+4CS6LhydH9BrxHU8PRSZ7c1UAlF8y+6isyjyUldrIewYFqwXjWls++L+Dco15mTjaVAbDWohzXQphOlQDZtQd56PSrSbYDzJK3Lwq5QV3SeepvJaqwvRMc5w7TWiPt6LB1S+pFpyzdXxl0WF5usaTE5qJFkTAaEwLOXx9ZzImTPmIkShoy09oU8sKw6hgMZk/y5xf+AtGoSWH3lxd7N4zl5RYsG7zllxeydUtqwAko/AOfoKyox6OPuU7sZWW4RrHg5ai867dHsk8faiFcV/rtfSnpSulxYH86N/1yMHDgr3CBJTUz8tRhh1ziFbY3nTohtNF8FQwBr0JQSUu5gGZanBw+8mt1100/R2am2Rdg783rFixkm8gWus+AjyglDRfijut4ysxEUvXpuQKxKNDkU5XaVs1Rx6Lgu//qqg87+F7dMp8heUaNMoUHI5KtAcXUFOoOXT/knTfOQiwSNCcOfGdnImTJdes6sKjbOu2L8nhCGCaYQB7h4Bk/kEwL55z3JwuwMyQjztRDH/QAKtuMjRCgY07S5ZgJ75BstR8CLBt8Q4I6HleW2WR1bBVvvmaC27b9G4xE6QBK27ZXK000gjiKANm6NVXv3o/wkktKEPVFi/ciXiuIRtTceY9S1hPN1JXW+qu57tm7kq/9p1twXfbGMe+u0RdySvr/VJ7z0+W6T99tTE2hCuAmSQBzhuUJ/76lp5PTJvwuiNKDaP//g7GszIYQSMya/jyFRSfpmXGl9JSAq+KpW9WdDxzlf35/8gNVFjzQm8h8d+wYnyDUL1JKi8q2FLMy6Zxw4r2Ix/ebnD159dlex7E+CAYBwZUrbS5bFtR/MtVpZ/2duXlVkUId2qmOHfESgEsBegUF1PPmPFrx7zfGIjM92K+1p3VEArYKHn10CXNbNHym1jhtj3aE6uKLFwJNv0ZTs3ZHMkffd9ftbvuObzESpwLoGHxejfMV1NKP6gBy0OBtzlVXnfcxmQUArGMi40C14B47R84+WctIpSOFmwzPcYV0GY/TWXTSgwD2f3lXkgLxOCouX3qKm56mtZSq0pIhk6kCFHPyyKuvOxIQYGnT5uenz2lXTlphwbkGKy8BEVAA+d+Juf969bAtf/3zgvVkNiJ21eeClz4jA7zogpPUkCEb6RM+urIOGnXT1FAa8GjZdNu3d/WceeVbHl05ANauCdzs5PkLAKggi9TQoWsIaDaQJl377B+6dNYKAE22TsNkElIhsJbMVBdecpYeNvgDpqeHi5IW/nOcfJ5SMmEU18g2bchpU15w/v7yUEiJ1WecEdtvo5ddsKB8s+XtVyezW+dKCkFzzURQt9O0BJ3Cdqs3B1nefhL1b9dMd0ZAzTz0UQJ0bBEOTSvL8lwhtDt02CZu/KF7Ux6nWb16dezzrT+0WUu2VWed9YhKS39cX7X06kCRCzXT3LxcqIcfOI9jSr7wCtuT7Qup2xZ+rY897m/Oyy+P9GtZYY0DADaSXTnp4N+zQ2cjaCNEqApXq6khhKoESGnTbddhM/sOupp33D8yGRO2J6iwiVLrHTLqjp5wIyNRNjitFUIRgrpb9//4DNBNB54iakd0FWRHde215zhDR3waRN9+Z7FOB08pPRcgbYvs33+Te8uyW78nCyAE2KtXNNhvU540aSwLcIwks/Tw4f82Qk2oRg5AIKFy81x32TKDuTtAxIiqit0//K+H6ttzDW3LSwbfBiSRzrDhj8K2wNLSKFeubFKrf8jKS/ZQU6a+TyFJAbKwkM7pS35KMorsLCA9zTQk7r77ZDX14D+zRV4AuvYCPBoBcsgQ6l9ddxlJI/CTrHMaj0PddtciZ+TorwLAthJSaSGSRF1QNalh8EuklGTf/kyUHrmSj/5xVhCNlpkI1Bep3v1icCji9MwzPdmixVbjzOSOVcz883fz877ivfe2B7ZfEtgbFhbUg8VKSmzc+FUeFy++lKMOWuOrh9EFlGtJXZ0IQpjuq5CekgZioeOpCc469C/8/tOBwfkFDu47Mn0tmQnUnrs9kMx/38UqMuKcevoDTE1jQgrlBQMIQtAVwmVqKiuPnvMHWNaBtwiwvNwiKXn/vXOY10LpJOV5hgjrHKqTTvwZLKtJ5fJJc8I5idFjXjLq9XC00WdVzMmhHjL0TWf+UQ87E8c9oXr3/Z5ZWaQIRoj8grahvPG0JbULOGzVmiydeyJQld4lRxlfkXmJWXN+w4EDTaPHj4jrjC4MGYFyAE0hyYJ25JTJL1aOnXDYRrJbtfNpBDS/GSOUYEnJnQS04y9aO6rjaUCxRw/P/eUyI0Szj1Z1/zpXPWMZ6eAt9/VRPQedq3v1/oFpacFCVQ1SVb2mKukIgzFlLEo9fsrWLb/6zQVJlPXGqaWngxdfeJwecdBTLJ35P+f2W85aHchWNpUItxGNpEXScpffNMvNyVbJejd+o0IrCHLUyA9JtmkKoPo9YgQkhIA++/RHmJlJLWXYxvdppJRu066STzxhZhObSIjrO4h4YtZRt9GOMSGFoywruRhfFbn5WwLwEhCKsu7IJ2FHEoTQBC4Ekl6O4DeDAWtSui/9fbI+fNYLXkYaVRgpiVq0UyZatugKoRzD10ZmZFJ36/ohFy28rbJ0XndkZlQ/N7/RsdPXJKApX716OIcOMzWtes412eE5gMsuXckzzz80uLa7fGN25nh9HYtqcAchse3Hr9rxsMNm6KlTX9Z5LdYzFgsjOmVbtUbCkh23C5CRCHXXog38yZKbSXZfTWaG0UpGOnjf3TPcQ6b9m60Kqp6Pbl2p7lt+DmJRsLxpN2521kLY1ZoNxRw2dJMyUphVz4VhDVJOYRuXKx6anvydA85ISl+1qp0uGfeuBrRrV81jhnicvgO+2/Tp/7ZLqrjXjjlgvbhs2UB2723ouKWkh6CuJqiFRVcKTWkpLaXSwva00aet88V3BehI4WghPQLn+r9Tm0stedWLRlB5+01n65lHVPgAVypAudL2dLUanzBU4ULSlZYO02gpqbNzturevZ5SR885m6tWdUE0inA8CrBYGqS9O15tfY0SQTLmnnfelbQjrAS0rqPemOwoXMBlxyJy4VlmUdtDDi8EvyellACAWAwkU3jRRWN0cfGNlUOKf2RKPHRGCsLVwvaq7m9Yf6QrzX1WPvtLIrelp8eOvTvxZHnfmsB5d/0PY3nsiX9im0L6spZKSaFc29YElOrRfcu2r98xaX0TrVnvrJGUfnDQPnHU3DU00xNVwl5S0BHCZTyFqvTwC5s0E0pjWXBzt51wagfduXM1hSItBBNWxDi9Q6b+ewvZel8XtkOH13dYMdOzzbDz9l7qhmxSMiGsBNPSyOGjLoQlwRtuSKnz9wMMH2AhEsF6spMaOWa226P3W4ynmQfJ6OLWGY0QwgtT7yDCyEinzsrZpMdPfJFHlC7iE38rpp9iJZ238IHN9T6QQa2GpMWj5qxiSowVtl2vJoTPAah0566V7tIrxgFo1AiHpGDxokitxcOSIJnOExZM5rw5d+vBQ7+rSE9PBI7OhdDKsJbUHaEKSUdIN4yaO3ZhYuiIh3+Yd0J3REIsZMB9l8tjjjlD9+nrMBKnA3huDYyePzPKzUNHXeUzQB8QEQ4BC7YFHnfc/bRtJqSsNnroQigKsPLgqW8k1cQPvFS2pnH58ghJ4Z615Erm5lIL4WghqKVFZQk6UiimpJInnXQnhDRNjH10YQLoCF96P8MdOvR3tCLUhuZJmybCzjs8bVmaEHQPGvNZBVkENOzGJ6dj35Hp7s8vu0oP7L+WOdlBxKeVqD/KUkJ4SlpKQVY5v9QUOl2KtrCg1Qv6uDm/4vDhRXxqZSFSUmr+tkyOmAK8X5ICVwc9asznhKASwq09MC8CfVFPpad/uW35jbsc3RhyzFLLb8TUqXVAMs6rf9OTM0tHccyEv+pW+W+xsDCM5DwYDJ2ybM/XkEhurvjHKz1t6KA0Icm27agG9n+S55w/Eekh9tEsCHYEfPjxUzlpwntskWcwegJKWXV02AFNaXmJ9OzVNe/r/mjBwoe0VGxd+osrmZ5OJaBdIY0uiDDPnpaCqmtXl6+9NJhkOrf+UOx//4CIcLdrwR12+wy8g5aka9lVw9aBnmt2HtW8eScDwMomgkzfdtyJv2a/fuG0iLuT0Z6fYrrMzvvGuXOFGavbiU5lUIsCANgWSLZ1TjjhPA4a+DZzcgPH5/hykfXU1AR1VeTnhs4vFqEjBfWIg6j79bqDvfpdwl9ffzRJAQHAslAzdSMQIRAlIHnFLX3YZ+An9JXiVXKkJyVdYbmUgu64if8lmUp/usaPJuveVq40s6vmd+xa0ZsQ5rhiUXDdx1lccNI5Cjif4ye9wbbt6UlJ2nbYgDBD/UaPor57pGzL04CjAdKyyG7d6Q4bdj8feHge0tOC844SkJASfP7B3hw/5m7mt6qiQdvOjLHv+HXizMUvNUn68p20kCHp/f/OY7duBlsrq8h/lc/urTMyt7j9+48FYBjSffGr/xdGfpO2bt3H7Ul2c6ZNXquloPbreRqga1ueArTu1slNvP/qCYjY+5YpJKCZzsmC88AjI5yZpZ8yHqdbT9e0vhoWgQS7dyUf/t0lAHYZdV9zioNkNm+78Xh96GFvsV+fMJLR5k+3plhMXammAdMKJkIHGCcL21Lb9mrduuBt3njlu+qCn/zUAYbygQdG0IdYwKrKyLjhi1z34HHvMhIxc7b+77rC1Gf1QSO/4fJ7enz13nt5ZTsb3UkZnGtfTp85yrHtkVx07BIuOO5d2vH/qbTUL9iqtYHnGMfvO3e4ug7G6WrXwOhJVDn/1FTq/n3oLF78PMvvH4CUuPlt43glAJSTUX35eXfqLh3XMxYx5KD1lBaSHb8GXLbvSPf+FYdVgyPthxbAxxxn7VA9aaJSgE5YkaqutvBr87EY3UsuuAtAk0Jg7DVbu3Zt5ubNn/cGAF63dAgL22/VgHKl5QVydUoamUc9bjw3Os4wYN/TCoU1PbKNmnnomyqJyn5Hzk5L6TIjk3rJkvsQiTTKPGVN5hGSVsXvf7uwYvzEZezWZxujURKmO+oY4K+msGrP6yZHf1JSSaE04LhhB1okdaEFWTyYesSIt2iJO5xY9F7docttvG3ZPXz+6fH87D+d9FVLP2JaltZCaC2F51pS8+ij13DFU/1IWuvIvj+8/34GXy5P4csvp3D48BQCKSwoTmVBQSrz89MJpPCJF37OhaffoVOid1RG7Xu32fE79MQpLvNaVeuKEwiaA44WwtHS3mEDxUiKSk0I4+jiMWrLdtTYMWs4atxi190wMem+h7XBT8l4Yv6C41Xb1v+gZYVRXX3XVAlQG2II7QIJxmNUx530iBmU33+Zv0OJy/IvUtyeg14z76xUnqjSAKE019bpP/gZcnWMxcWR/T2F3y0LCrbOzbcsYfuOZoDeUGL7kYEwbCHtu7zBqfMy2QQmMVjs64seMXck81vXZsmoY6PfNNB5BXf5SvWN+qBXS3UBICUFvLo8i8cdM0f37/NX9u5pnIK/mLiGfHH70UiyYwC0FgiaHyokMxDSbJE42bIlmZ1OV2Ctysuv8HxadA+gysykM3hYpdO+27fbRo3c5E6d8p3q0Xu96tZ1g+refYPKyNngCnuDY0c2OtLamLDsTS6sjWxZQGblkNI4FtoiKA2opC3oRu/4fKQkDT2ZEzrKaAo5sP82p1vPu3nOOV3W+TOvAMCpU2NhJJ2RAXXFZfP1qFH/Y0oaKYIRs+0veAkhzfUSINu1p/uT0+4PsZ376cufhE1N5bRD/8pYCh2/GZMcNROgM37cBpJG3Go/Pd/dNh/SIAHg07KyOMk05+c/Ladlm05oUufWtSxNy+KWkSNfDi/cPix0srTUFO1POGYwC9ru0OFpy9JeNEIec5xD03neYwItJMWq5csj75T2ipYFv5GdBV5xSYkqnf4TXdz3Ize/xVZmZiZPgHiuwdHVOcZW52ZZ1FJqU+uyXQfGiXgAKSyy2ucFFWSQXte/SWE2IYyDE5bBwwGOEpZrmiHSUdb2ItQqvQjPRFbaFwJX9M+VAFnQhjo19StdOvNf7Dd0PD98t3e16wjYgeoY0tKw5ZHHTlBTpr3GVq1JCCYAT0EYkoc6sXqSykBY/N8roOrf62V36SWHBZRQ+22x3k/D15FZ+vrrnmZONiukdJMjO//Z0G73rl7l6reORDR64OLtdtlsG3rEyD8xLYMEnGDI2KQqwmF6JvVRx60MIBT7KtILUtFtRxx1t+na1ibwDCMbX7xIDxiU4CeflASdzb1wmCLsMAerqm0ZfdS3Xz9IT5qwVI8avZIdOpCWZAC41YCjLOlqKZRf29upGqXvcLw6oSmmU+tpITwtpRf+t/87OhC39red+u2qSNpTUnoJ29Iawgmj0GiMtARZMoHu0OL71dk/u4RkRtIcNIJ0Kyl6Ec5lly9in76Ps01bUviztNsDWAtBTwoyKAXk5JED+j3BX119MlJTgudHcuVKO+xw72f8bzzjjBgAqEsvLmPb1lRAoprTl5IOhGbbQm676JLzATRK+eaAsqRh43Q9aNA/KUQtJXIXcJmRTn31FY+RTAGqQuu9dpzl5RYsC4mrriply9Z0IbQWdb+YNJGTo2FvYunxswHsE8xV0pRBdVYXMsqzz+9WedJJh3Lq1GedLkWfcMigWpGXnzY6WgjFnYkC9+Tmk0cGneYwukzesrOoWuZ/xxYtXtInLLwjMWHMQL79Qc/kaRPf2VjVOArLyiSkREXZZSewfYdg8kIrKeuEmdRy6oDL3Bw6Awb+m2ecUdLQZ3R/0HAImJ7dMcOmUaRsSpiGUNLzL6gAhxlZ5FFHXQA7glUHuFbHLlvY3ubaQtV/4HcEqCwriRre73C1bEHn7tseIZmxN1Wegodx8x13tHLbdviKJq2pPWcpzIiXA7jMb0H3+l8+AEuGwsz72kjKugRjSBbwkT/MTrQqPFEPH3677j9wnY5GtzIvh0xPS5pGMDU8JaRSAkpJoV0htJKWDiO3IELzdVyrbTUdV9LmjxiGkR+F0EpCKyG0ElAaUhG2UiE+znduuXlkejq1Hdmg58//UZ2+8I8c1H82H7inR8BKE54nIPyJnzqfGwICUqKye783CbiuZTlaWtTClFjqd3YwQ/Ed2pM3XPMYyTx/fxIA1pKZW595qU1i5RPHJZ7887WVz/ztTPbqlctf3ZPNJOZjBkQPTWwCI5z3PuOnM9iusJKWpJJVzk4Ji1paLqVFPX/uCsSiBwyoeo8Zy8stSAn3L49N1IVt19ec0aSJ9BJs1Yq8+aY7gaoQe48eFxm8JFE1bPjL9HnpWOeDL6jsiKIVZWL6rL+RzFwF1PuCNfpxBjVGX3uBixZFAu2E5GOoNn6VPOIjJRCJgGR80xXX91DXX/EzPW3KLaqo25Pu0KFfc+gwMpZGwjIQECFqdHGrRYfOzmy1ojT/nhN+bU8IUkTI1gVkyWiqvn3/7Xbq9pBectYt6qqrSrf88pcFJKPISK+6JoAMI9wGOBECApYFNXyUkaOUllPf9Ejyps14IZ1TTliJrEyzr9JSa/Xq1bGtZJvKmbNuY48eDtPTyexsMiOTKj0j4XYpWsfj5r+oFhy9gDUo35sKRi90dg/+7lD2G6BDUoyk83d9Gn930uQX6GvV7K8d6L1qQaTnnnfhYSzsSA1olRQ2K0t4LuDSjm1URx65AMAerxHQJz5wfvKz+w3GTNZRt0siNgS023fAR9y6tQ0AlO/huh3LyuTOPFk107hgHywrs2kAvrV3l50Nkp0qX3huGkeMPkhddMHFTn7u6frI0sc5dsJ/mJX1nurYcZNu0WKDjsfXqcwMzc6dyMJCskU+md+SzMkl09LJ1DQyI5PMb2H+rWVLsnMnMjubSoi1Kjdni+pa5Om0tA91bst/66PnvqWHDr5ejRn5U3X+T0/llCmD+O/XBqwlM5GaVvc5lpTskuaHL00g3HfenKoGD1njE7LWklus5uz8KRKdnfvFxtUfTy8vLbX8aylI5nPhwpfpz+e68AWaknj1ghScLfLf01OmrHBPPm3slpvvae3fq30rzxkQWdx333iOGO4qQCsrmfRVUEG4tCyqPgPeXEd2+A+/SQtoz5ptBxZGHmQkceOtN7OwrRkDqq5h6VEKMr+lyxMWzwRQ5wB+oxxPebllCCKvPtLJyfMCgG4dDz0dy/JcQLN/H/LpJ8aY7+9ZYGn4UqcZLj7eeOukxJjhC7ho4TJOmPIrzluwzJk+/TT3rDMmc/36TojHq77rO4W6XioCoixwgnXWYfyvBAQEpEiQAxPPPtuXc+b0dOfNmcDrrl7Cn/xkCWcdtYSlc5dw0sFL2KffEvbst4TDhi1h6awlnFW6hPOOOoPXXbmExx8zfWM02nXrHbcUb/n688nhjG+1F6fWtIchpajJhrIbFuxn69q1bTlj1rOMpzBhCS9kyal57wPYUTT6AmKxoAEiYVnQsw7/PdPT6Urp6jpqgDRNnOrzznn51F27faFOPfU4APuuQecHH5uuuL6H6tVrLWtGdkIafRoB6lFjN/Lbb/slf6/ZGmgkY+WABVuChx9+CbOyqWqQTGoD5PRYVMTK886ZBaDR2RdCcOXGHw/ipAlUltSubdhQajs8aRor2dlUp558MqTc42wQQY2Eq1b1UKee8ih79/mxMiPDzCLn5hjxmJxcMi2DidQ0rQrbbVaTp/6b06efwlde6VltXztIP4JpE9+xWOVJs6x7MvUiqs/xlgezvHtavyO496TkwuOfpGGZrpMbTwOKUpKtWv0l3EEsBvfY429iaiodQ9m//dlrH/OoAO0G887Dh5Gff7RPlP3CNPbtVV3coqL/1XJ2MDV2WjbZocvabeWPzv2UjPOpp/Z4iemAM5LRMjJ8kTh48C8IOAlY1fA+ynTpNLsVOe4FFx8BNJ7TS4o0RaJPn5XaFNNVcvpa7eZLW1NaVOec/XdEons8FQnSeF71i7F6/EHratTOgnlQR5ktVIwjQKZnUnfsuE4feeQf+dLTk5GWGuxz11dmIYxzMFGhDOuIQS2xOPizji34XFKtjSzf58SQ4Uv/q18NY8vW1dh9aiy+ngcw0bloLe+7exLLy9uq449/lNnZxonJJDox8xxtX9PX/LuZUphd+gxJe29SKQW/VfnaP7rpAf0/8J1dWMZxLElt2WYuPCvrO84+aQgAbHjn5dyVPtN2s+2CERCrihGBAJxjFzxOGaGCcGo+bBrwVNeumicumgEAnDo1tlv1AyEC4k/LufIXjzM7hwnbrpN0M6mGQ3XQiA9JtmZZ2R7VjCVgQ0rwyitHsEePTQRYaQlXyfqxcwG2TQvhOcHcaCxGdi0izzy9fNu6dR18FuN9WmwmIMp8CA1LSy0uX57kNIsDIgGzLVoUSRZMavRj8e/h5leea+X26vWtBqhl/Y6KliTbtafu3pWM2Ez4tb+kRUgxmFzxiSTqc3yE8JSQSrdpQ1533QzWkIvcUxY6+Vtv7aq7FtVydh5A14p4WwGXRT3Jm2483L9W/3/IAPakBZ3HCrKjvuiCDxiJUEvh6iTno4xSlGbLVipxzHHHAr6Wg5noiOwsqj140N3TTj6cbdoYAker7pREmcFzz+3Ww6285x5DXLoH2/HBwDb//Oehun//bQqgKy3lSLF92ESyg5bCP25p2JGjMXLEsO95zWXn7qnj3uF57aYoNQHZ2KDuJM6/qDr66OcYiXjV8KE1NlcIrxLwFHyCVktSQ1D5eg6M2KQdMeWGglZkSkqo81Bn1mBJRSE8t0+fF2FZexx3Gjq7h1aMVb17f0MYzZmqyBP0LB9y1bUbE3/98zKSES5aFPEj/OYuRWNY4LC2ke152hmrKSQd26rWPAgiG52R7vCSCy5LQszHd+ZlCmmqE4n+unfPHxXg1CdFqAW8hC21jsZYccLJJyEW36MjNGFdafU7vThm5FolBbWwG6QatoPakYn4olHy0Cm/J9mZe5F8NbxmGRngU09lVp5+bI/NSGvF39w2gw8/fA/PPvtuTj7kHha2v4ewzZbf+k7+7Kf38A8rZrPs5nREfRW4Rh7ZCo6t8o8PzPIKWhkt3h0QE4R6LQBdaWstQadd4fpE754nbm3Z7rDKBfOOrDxr8Qw1atTRqm//jzWg65Ll1Ga6QzM7izz77EkA9pwEp9+Y4s3LpvKgEYk6Izs7xgTgsKgr3T89fCvSUvd5F/mAtdARkZ31TxZ/QimppXCTV0YthOdCeCxoRWfZtb8nGfW/0zC0u0HeS5LSOfaYL2hHWL0FX7PDZjpr7hFH/gNC7NnILiyiV3TmpHHvEqBjWUn1oRqbZZmtgVGfI6VXYcNlZib1FVf8078ee7zbFsIe3B8m8KJLHlU9um5Stl2hpb3Ny0wjC1ob3FpquuG2E8KMi9kpZG4LqowM6g5dNvKwQ2/iOysHJF+rRjtGQCAWg5o04Q0/6mmwALkWULpNoccLLp4NALBtJNe5Kh99agb796NbD5u2ktJlNEp9xIyVJDMbu1lDUnDqVDOuedLiiezXX2ujRaFrPk+VgMv27cgVf7jNZ/zZ53XWA9pIWj889lLGRnKEPv30TwlB17KUZyUxc0jLU4DLtDTyoov+WB4Ma+9gZQw57+IxcM7s212TmtQdPQXAY0t6ul3HDyu+22CYi7EHu4Z+TVGPHXUHI1G6Ak5NnjsFQSWFdkRYt/NrS5anZN2QiqQImcqAqR03lvq/De+8nMsa42iNfk5Bep74di6Pn18LwKwAumZ0zFX+pgHXEdX+32dSiZKHH7LJ4XejWFJiN2akzdJSC0KAN94ynW3augpwtNwev56R0FQwounOWWfd5S+IEb+zbYDsHTrESWaqCZNXeXakVkTlAaRhHfHcrt0red39HYDGc+hByg7442KFBZUBbVa4EFqSyooaUt4unY2zi8f2ea33/40F6elWcmjFuT95n9KiC+FUi2SMmpjLtHTqSVOe++F9ZgBV0USd+/UdorrlptPYpYj16UQk7V95aWnkbbecRlKsW7emg398jf4QhFqwd9/a1e3YyfUnUOqK0kjLppedSy6YRy46gWzdjgpgwhCB7jD91YDDnGxW9B90EgDUjcFrhHPyHZL7w9czWTqTNHVSFcpZhs2XBkSoQtAVMkGAiXlHvt/oBytEAEi29TFz/8l4nGp70pQCVNJyadt0x4//J8nIO0lSBeGfwTjlReeXMhbVuh6Rby2gGE/z1M23nQspG2UCIwl2k6Iv/fkvdGqGT7ZQY4IiaFD06EX95GO/QUpKo9ObNdt2LIjE3r/zzowE2Vf/7Kf/YmYGazoBLX1cXCxG3aX7S7z7oXYA6nxYqsgLKru7Q4euJ+BqWTfmygOoLMtlNMptg4bejWgMLC+Pfk2m7rFz9l8M/atfL6dlU4naMo0BLlG1KfwsMengASTbk+zEwxcWbrn11ls5eXIY8WkIz49S63i5fELMoQN+TTKyJ6ZYWAbJMkiSuU73Hu8S0CoacQm7fqe2nY0AXUvQkdLVMpqo+MXlN5Js0Zho/yAS4ivvd1QtC783dTdZjaoqaE64EV+Br0ffjXxrdeHXZGpd5LVBnfRTIF6ZkVlZnwMNUAD6nCVP+cLVu+XwwsiaTNW/vP4v7NCeCQHPrUkE4Ke17NGLeuXT1/tcjs2R3b6woDi9hWytZ8+9hekZPrFl9eKvCgryxcVfbvn+vZMgBLi8+vA4S0psCAHOnreQuflUUtZKF5MePqO+1b//Zm6q7AXU7UQb9VxNrSSiirq96kMcqkdqBvrgsnMX8vkXFtT8/hdk28pXXj/UOfLIP+vsXE0hWGlZnltHWqaD+djJ47lp09ct/N9v1AecgAUhkJh71JN1Fcd3eZPScOoNGsptH3wwmo1MGBtkCOqqK37KDm3oSunoJKJTVwo6MqoIeCo1bUPFOedM9SOyuokK/GdwM9nSmX+c6djWMc2hfIH1zdnZj/rXb5fOKRnaQjKF0w59mpkZ1EBC18iQHGkpWhaZl/t95bJfzkAsDuxjFcH/9xZ25FJSwNETLmVObp0stMq2TPoxYjjVI38wqVpSDSIoSjslI+4k4LmWVe8LqAHF1HTyxhsvB7DHx2iSCCMP5ZDBrCVubCI2wxzSq98qRKuKyck1GgBAPA732hsOV52LvlaAduvBlGlbUiOSYHp6fnh9Gut8gnrYdb88xMnNdRyBevGN9LUmfHqqejFrdUSoqmLsuBWIRhv9/qwEbMRjcEYMf8w4a5kIBIIcn0lZtS2ku/C4wwBslx4pCdyeytMWP1sLBlL1zGkKQdWt59t+LXC3nLj74ftj2Xvwy7QirKiDnl4BrgeQnbt8y8PnDQKqFqlm28dGM5FhAwJqwaKLWdSNtbpMQlBJYUCfrVpy69gJS8LvBzOYlgW3bdu7KcAKS6i6MHeulIpSaNWr9yvJkxh79Pz8FTkxdcI85uWY6K5mOutTJemibm+TjK2qQUVVRhrSScCClKicddwROiPLUwK6Zo1MA/QsSceOuFs65DfqAHsYcdk2VK8+f6eUdOqJ7nyqKNORTa0Sy3YNmYT2P1MrtVVS0hVCMS9vG88rGwM07qIUlD+2kAWJEUO+YsSuarS0bEmnT58vKy+7ZiZiUXDZstgOR/aAqP/nbD96T9R2eEJTWGSf3h/sisMjKVkC+z0yL/HaSydx8iSX0jLXvtrkkqRjWYqRCDmqZOPmJ/4y2z/naLOza0JGUnLRoghsC7z6+rPd3LwNfgE2LCwToLIsugCZmUN96PQHSXYEYCYX4nHosWPu9iM8t5rDE6CWMBMKBa3IG6+ey73EXkyfFCFR0OJExmIMaJTqjALy85m46FITwZaWRlmDTdd/WeXW999v43bt9rVxEHVz+iUs6W5JbWSHFxTpzzpvPLNyqeqZCgkaFu4h09Y7Q4ovYbdOp7mjxt2qBhZ/y1iquZeifk0OV1qaQlKPmvRXkmmNjSkMC/5/eng8u/e+3W2Rf5s7adID6pyzz99CFgBokFMK6bzIdM6Z8zxNVFt3hAdB3bX/izvr8MKUPiUF66/51c3s1Zsuwo580u+IsBHDYcNf4Zef9F9Jxje8805ucKy7dLGarfEsuAnryewNZG7wILhX/2oKO3da50MbwqkMLUDXksZxpaSQQ4b9x33ztQn+QyR40UVHs2Urw9pqWZ7RRIBDk1Z5BKjGjH/Ojyr3FvGoAYQWFixkPKV+h2dGxjy3W4/KzXf8bqz/3SBlN2NZRUUxAuJzMkeNH7Xaj4hqOzwp6FrC3ZKf2tgRnrWJbKHGj3+ethG6rgEeNy9iPM5tY0e9QrIVIn6wmpoGkq148fmXqBb5HxunV5fDFPSEZAJQ7NGV/NsTJwLYZUnM7ZyLuSZSApaNQJwbgNFdbQAAOrw/K1ems6/RO/ZEHVg8YSL4xPzjbt2ZLm2IcSQL3FlzblPx1IQDuI5lex6SaoVGPlIxEqGaOmklSePknnoqtrsTMM22hy0syr706mhdPOhjWpJK+B1cv4vrE4k6BKgHDqhUtyw7DdGI6VqddvIqxqIMGXXTUsiWLalychI8aOSX/PWvRwONmyZt93z8Lqlq3/Ekpqb5eh91169cabqDlT16f8JVH/claSM7u/oOs7OQePDB2ezQcZvymYVr70tSRWWjprQBYFa98MJsduqcqAtao6SvkpaTpdRrT80DABYVxVhcpQcLAJv+urKH26Xbv2jJWgwegdPTQjiMRLQzecKDyEjfI1AKlpdW06UgquP/GADZA4aX5M+WlUkWF0e+IdMSV5TNVZasxpFXrRwDoXRmlsc5s8YG13K7x2XKLRYAJL74sU/lpCn/YXoGXUuSNa65FtJzAMWUNHLxomd/IAeXl8JqFt3Zjyzk8XrqqXyOHvu6HxlV60RpSzJhWVoDZKtW1Kctuo1kGsksNX/On1jUQ7kDhr7Mg4ZfpU455Xz3t3dOJhn5xnxmr1H1BA9exYvPTlQd2rvcDj5QSUHHjngEWDFmhE70G/hs4qBRD7Nl7kXs3/ciDjqoTI0dsyJR0Hq9gXLULSROWIbUsUOHxnN4gEA0AjXvqBcoRJ2RJaXtEYJu5w6byXeiNR0UScFevaIkReVbb3Vnzz4/0gzi1x7L8mecVVHXtSz/c9vg+7t7Hg2xxLcf9038+GMfWJYRKpf1Py6bvvz6JNW1z3rDi1d78QkgKYme/b7cGNDGb6fzHD6bUoJ33DZDjx69jgAdIdyaHWBtWUY0qW0hOWfOJT4t+z6XQm22XbAqjQymOCOH383cXBIw2gu+PoGWoJK2mcxIzyAPGvUin3yoG1Li4MnndWQNbN2GDRtyuHLlXsUhBbXC/5EtnCkz3iNApx6MoBJmlExFLFPwDzbbJtPSyJTUquK/NA6ybocn6WS3UJx0eEtg9x0eSQEhwM8/76LatN1CwFN1RJbKMlqmPG3xhyTr726WlkYBYNtpZ5zt68PWfT2k0IxGqE456Sj/PPYcg41xEoJkT3fShB9UXt5Gjpv0oTN71nI1+8iFvPnmMV+QKSQlSMHXXhuwZdohC9zWbb4y6bld+3qYiNdhTjadyy47d0dd55UBZRgZ51lLbmN+S23utdCeFFQQvnxlFd5SFxU5zk/OPNnH9+0x5plm2wuWhCa3efbZ57NNO3oQdCIRXXMygz5eT/fttZFHzz8eccNjyA4d4gFX2746hyCt3bKFg9xuPRMJAU9J4bGOlzy5LkMhlBZCVdOOMH9XP7zDjwLcBXMTYS1nNx182GkeP/5EpsapAK1kXQ4bLgWoevZcHLyAde4vTAvP7sE2rc1URl2YQghFKT09euwjft11zwzeB2OJkQj0Scc+QyviLxzBJsh+/ejm5L6hU2Iv6Gj8eV08UDEjI6SOqrNEIaTLWIzqhIWPw7brx/P56TFsC+7/Xp/Gg0a+ysysAK1QtW8BKiE8V0DRjtAdP27d5k/e3WeKes22Byx8WQWgfn7l0bp7t2+DZkb11FDQkUYljVk55E/OfInvf9oR2LORwXaPvaroLPn8swt0vwGXq979tCOE5+1IMnAXN3/l9/SQgVcm14J26zwMLtDiiIPuZSRCVwq3LuydgnAIm0rKuf736pzyCBeyZ5/sxrElpttbx/VQQmpC0GnT9muSBRC777zrPB5Tn5Tq/HNLdTTFc3yeOy2EVkIYdbcAAA9B+ueegFB1Rbq+3KH5/PjxT5PMY3ndhKjhsykEWHrUSW63LlspBZ06BOKDhY7xGJ2BA54mmRPcn8a+Js22D42kYLHf7fz+3YEsPXI1o36kYUkvmVtPS2l0Kewo2W/IGj760DlITzer6N6UhSwrkxAA//RIKUvn/JcD+pOWpCGhlNQw0Vuj6sQKgwNjdg6dvoPOAgD26rVbxI5JUXYLd+LEzwlQ18NAQ0iHQpLxyNFAAxwe2YEHH7w+AXiOLWtHvKb76Oru3St5xx0H+99t9FG54IGo7Nr1bb9eFkJLdLVjEcrX+VVa2p4y0qM1o1JD8S4E9byjPyLZLvmcw2tgiE8lbBvOx/8bkjj8kKd0NBRUrwarUlLQheHx0xmZle5F598bAtqbnd2Ba0kRU65bcvBdbNPWPBw1Cugagq4wHU927shE/77LYNnJ+9kbo2SCcxdOZ8t2LoVgAnCUEG4w8hakS9pEEw2aQthxdAdPA1q3bvXtlvdWDWqMAnaZH4FsLruupVvQ9jOitjZCNYcnQUrM8a9D/WQPgIQdgZuScQchqAVqE3Oa5ojL9HRy0SmXIxZr9O56INJU8bcVE3Ru9hZXCF1Tf6VhWxIvYU4u9bSZj5DMBFCL4y902rYNfddtV3LYENKy6VjC0zV+m8kM1927b3WKh40KsHzN9br/BxY+8LYNdceNP+XggSRAB1CBqpQWoCdNc6DSh6e4HTt/yXPPnUcyBdhzK2MVkQFbc8F889tWRHmWpIY06VtuLnVOzqts0/of7Nc/mU5Ja8CtC8vVkE1BKEpBnZv3ZmOdY5ByfQO0VEJ85jvp7Tg8i6ohDq+01EI8Dvbut5x2lG49Dk/7YFp9yNT7kNr4hJUBtblb/rtl7F5EF9jm1KNuVmdELW3P1x7RFIJs1XoNLz17aYD1TD7e5Og08ds7+rFF25uYk0cCrtGFrVr0fIoqrQCP6Zl0J016k/98YSCAPS4u1WxNzMIZU8uC88wjJWr69JcYj9MFlJZCVasHmZfGRHsdO5ETpjyz+aP/9EF6mimeGwfauLOmALh48RCmpzMh4YVRnbQMzdOwIeS3n45Aizxs/e3vDlcHTz9X9+37DfNakNIO6JV0mD7VUxSvFdUaLJinbln2jO94d9vhlYUOr1VLV8jtOzxhOUSE29Li8/0opH6H5wOJeffyC3SnTtqBcFhHXTCUP2zb5oFas8WNYME+SRbpPn0+p5nmcZOufZ0bAwEqwGj1ti1kole/K3j8WZ0BhEwqQLgIWgCwmozxuqvvZccOm5kSpQbcWvVLIegKE9Ul2heSR868wO8Qp+yJlL7Z9hMLHiKScV566XIOGhSmiXUVfKuYVwZQHTHnXKSkBPtpkKp9g46ptNRCxIZ72lkvMBb1NCzl+SLOGmClLTUhqU488c+w/J+MRExj48Zfn86OHe9RhW3NiyQN0HS73dxgkxZdAc1unbnll2WDAKC8ER3e5sMntVTZmZ+YlLYe3jdYDiFJRILOYf0Oz3cGm8qfyld29HuaelideDwC5IxDNwYwoz0Q5Zma4hHHdWX/gfeyoFW1a19rCxhp0tPoHjTiWw4b80t+/+GcAK8XLnomwguvAZ9/ZnZi8OCXmZMVzBUb8HYyvlSYhY5pqeTIEf9zH/39LFi+dvDWNcXbg/s02/8DCxTikZGGyjdfnsGBxe8wO4cu4CWk0NUbGoJamoI0o1FW9Bv4rlq+fC7ioeOzdheUTMCCJaFl/DlCUEOoYMBfwxSgCbjs3InOr6+/0I+EYuFLHIuBixf35OQJU/XyW1/hzb9apX965hqVGjcOoR5mEiWE60WjZPfuD5OMbc/Z7NT5+M5gC9lajR+/xn/h63Z4tqUJQS45dRXJBmHCSFrMyfyqvshRCwPf0YMGbyK/3iMOzz8Oc98jEfCQSX14zVV3c8FRrzMr4zVCvE4hXyes19mu4FVe+JPX1cIT5rGwsA/JwnAfgf5ucndcAHzlha4cOfHX7No9KF242ijUmaaHlHSE9BwhXQqQ+S3pzjvq3hBWhGZ24mZLsuRUh2Qa58+9ys3LV+EqWrMhIGUIeWBhITl29J+cv/1tGKJm8dwdAGfgaNi9+0t+V7auYXJPAVplZP9YuWTJwUFDhWecUaejcg4+4iJmZNU7h+vvU7upqZpTZjXq6FzSgHyKnnbwnxiJUNej/EUfW+h2bL+NP7yf4V+P7V/HWAx64YmfEyBFbUcaOrzCjpu4fPkec3hA9dRzp75XXBxhHVIE75BRfdZZl+vevTfTENqq5IZPELkrKY0ofUoK3fbt3lY33VQasJskE4/uzQmhZmvqJkS1h42P3H8Ep0/9gFGfmkgI16cfp5KSWgg65kFTtCzqjp0czj7qJq5L9Atep13B74XpzDWXX+fZERoqpLok/GxPA/SKujFxVtn1wWpea3+Vld2Zlf1XWna9Gh1KmvGlrd2LnkWkfoDrrhp9uipOGf8zpqfXWTLw0zHTdW7ZSqvXXrwYQMjOW+d+AQlpwRk3+lwT4dWmmgocHlsWbuKisj3q8JKPy1/0trfJ5FJI0KwCgJWkvXH5nWdWjpv0NVNTg2fOaLckNaSUtMLOrs7McfXik+8jGXAYNgvsNNuOLZkVdi3ZtvLe+17RHTttZTRqdBek0NUEXHyZQw8wmqMDBm+oGF1y3Kf3rIwjGglS5gZHfIGT5NTj893WBc72ZAF99mUyPZN67PjVzq13/IwLT+/EM87I51VXdVZXXDvfGT3qK8ZTmEAdc5oIKbNcxtM9Xnjt4Y0FNq5xTSWEgPviC9N0y5aeC1DX00nWAi5jceqSkt8n34t6rpXRxQCODGuv9Tm8gsJNLNs7Dq+hFnIq+vf8CzKFL754ROLww15lQeugnlznZIwCjKZwSio5Y+Yadc/v50H6tbrmLmyz7ayF0V4kCl5545DKTt0eYixeb1NDWdJzhVQaIFPTqPPyXt54xQ2Xv+zDWIJ97uhlS0oBpXvi8XcxLY1KWvWKPys/1SFghJ07dKTbpuBL9u5DpqSTABMG8V87hQToQDq0LfLsRU+StBtTB6KWpcShRo1ezbpkAIPNFPq1Lirawnf/3ZuArC+9JmCxrEy6KdEjKXbg8Hr02MDHH28yDi85okM0Cj722EB18skvsmMnEmBlfVq1BkxtICx9epPzF9xAMgsCzXoTzbZ7FqzAAAApUXn2ORepzkVfMBJjAvAcadfgcxNUUnohtVRGFnWnrm+4JdNmJtdPdtTcCPBXJNOdTkXvGyyepZ368HVmRlL7UJRwPtN/MbQ/QRF+3pWC2rKohHBoWVTHzf0fycJkKESjX0ufbVnNO+YsxmPUoh4JTOOkTP104Qkvwqqf/42lpRYsCzxm3kN+2aG2zKEwXVo945BKkmnB9d0T59gQ8yckzO+npcF99tmx+uRTX9f5Lbb4DQnD6FxjgQp4HF3AY04u1bhxL2585V8HI2KCucboqDdbswEIV2MJAFtffq4t5x6znD16kCadVXVNDgQ4OAJkVi7Zvd/feehRR5LMDvfr13Lq/E0/qnGvvWqWzsmrdICEazUAwW/UyLztjZxpS2qTxsaojz7yHZIBfdKeZhMByVzdpu0nBLz6ZCO1FF5CCqVatKzkn31evBoEngGeLPHPlX0SnTqb+d86Uj/69EpO377PN7TzuyfMX8SMU8rMBD/4YIA68+y/uO3abTNwFWFYX2rS1pvpF6UAMjWVnDaNPGvJsYjHg/021+qabc9YmFpFI+A/X51ZOX7Ss2zZKoQKKGl5NSM+VwrT2JCCjMaoZ87cyIsvvIBkl3C/gF0Xji+gQao4/Mg/Mi2FLuC6UlaLKhu6mXqdDKMnZueQ8+c9uY3sAAB7ha7eV4dzTzr+CkYjdOtpyHgQVJbt0bbIaVNIJvqG1wmQvKcsDgAkC3TP7q+Y+eK6iUBdIV0Ki3rg0N/siYbMds+XFFy0KLL6qadikNJw1P353oO5YN7DukdPxWiUHkDHsrVGMquJoBam+6p9Z6i7d6/gsSdet548wpdLlHVJPzZbszWqJUd7IIUqK1ugBw/+kOkZ5uGVor6IT9GkmWR+Ptm717e85MKH+OwfO4f79qOAINIiwzGzzjzr1Ed1mzaG/cPsx92uWHiwmY6y1oB2YLjudEHBd/qc868IgdN7ifAxKVVv6/bo8Z0CdH0kpEGUTMBT/fu87bz/9kFISwPS00Ayi5cvPcTt1PldRqOhY6gdKdpmMqVNO5cPPXIEpNgrTNUsKbGT4UGbyBbuwlOm6JEjn2anDkn6wKYhweTjFoKOUUAz2rZ5eZozZz5R+Y/negW11V3p/jdbs+2WJddiSEbdCy5apvv2X8t4VWMjpONJeqCVHTEvIUDG4kx06vgDDxr9G77wl0OTUxP/pamqqQkB3vmbyRw77nHVpj0Zi1WBUINNSq2l5WnjAIK/N4rydoSqey+lzjjjCZbf2x4wUxB7Ox1iebkBVl995VK2aUtHSmd7Tlv7DM6JPn28ynbtHnLatb1f9+v7ctDFdAFdX8TrWlLRjlEtOOF1P53dYw0ZVtG5VwGQyQx90w1XcMCAN5iVTQqbLuC5QtambgKChUlRCEMgMHX6qopfXT8lydFZzRoTzbbPrBqEIxoFyZbuCadeyS5Fn1fh9+BsqxnFCEHlC3oHjk/n5Wo1btzravTYOSR7V/ud0tJoMKSO1FT88PdV4xOHHfaY6tnzA7ZrR1oWKewa40sWGU0hBxWTI4d9oMZO/Dn//vcCZGcF+9wn9Sx/KF6uI9snphzyBlE/e0pSE0N7yecWRH91RdJC0JWCtKQm4OouXdZu/eijwcCeiWS5fHmkGownHgd/ed0MDi3+me7b8we2all1vBDK0LhXOTsKSVdIlRBGJIrZOeTgg/7OG+88iqRJ3RtxdLHZmm23rVpBGgDf+rKQhxz2U92txwamZ1WlL0lFaVa9oJ6J0oR5mdMz6Q7o+6MzfvwfeP31xSSzwv0WF1cTsyGZz6Pnz6AVPdht22mWe9HF/3CvvWaNuuSSJ2mlHsIW7afzwfJDSLaodrz7+OUJ0krnN8uHsG9fj0I4dek51JGaB1RYtSKkaoV+S5q55zZtqc4/9xgAjVajJCn9xaIKVhKPgQ8+2IZTDpuie/d9nj26h0zHKig9oGYzQgTNCLPopaZRFQ//V+X8o2cgLa3WtWq2ZmtyVg0oKwQqya6J4VOuYpeiNYxGghTMUZbtub6DMxGf/wJIv3sKkJEImZpOfdihH3H6pHNd150IIQHbHyMDUqr9uACQmgpkZpo/ax5boJrVRDp6qxYtikAKqCkzT2FKGrWwXQ3haSFZF137Dpsyvk6JZ0lSIMH0DDpzF9yFaGy3gbgEBMvLLRYXV3WKLQtISwPvX75E9+h2HQcN9gLCABdwE1K4lLIa9bwSklrYVJallOlSk3ktqLr1enLTIaVHIhKt+r19FIE3W7PttNWcqeTDDxfwjMXn6AED32drU3typA+UrQM+4ituqTCNa9mCbqfOle6kg9/lsusu3VRW1iOEJXz3aWs/2ogRiISNAdPRtBuqkboPTBAQZaR0Tzz2H7RsKgMtUSoWpa6H5KBehyclzUICh1aMHDTyQV+Fa5fSQZaXW0Edtdrfk505sWQ4L734GZ2V+z8WdQoXLr8ppXyNlGolDG1Z2vEhMgTIoi7k1Mkv86LzRgULVFLTqtnRNdv+Z4ZavioqIJnGpeefnjjy8M9ULO4yEqE2QFOlUbPjKpKdn6NMPZAUgon27beyZat71bELz+V3HwwgGYVVlfn4L2rIvLFPTr4BFuDifiCHOGcs+X1lVq4XNHx8ASJNCE1Aa+EL9Ujhj/MJn/NPeEoIT1m+HklBO7rDJ/wOdgTlDYySAhEe+lMdyR1WpKSCL7+cov72t3kcN/lOPW3yt2yV76esls+YLVxtW9Xp2oOo3TQiwiaVLmy/VS889kn3kRXTQ3ovNKeuzXYAmUlRkiI+MoULz+rNoUN/X8VYLAwbBiyjHyrsai+PgS8IHeLoYIgjNfCdOmTSZ+zR9SRedOmcZLqhpN+P+HocTfKlWv3qq5kghXrlP0fpufNf40EjkhoU0jh64wgd3/k74b+FnwO1Hf9GX3XtlbCtHVKY+06uGnwk2So2fzNe9R1wdGLiITernj03etnZBvgLM8dqJluErsYuLURAK+/5x2qOLTObesiQNe7kQ37BZ1dllQWwowBX2Jy6NtuBaLWG4YUAH3l8BMePP529en7Mju1JATO2ZplJjTrlB03B29WADkkmhSA7dqbq2f2LxIxDXth04dLDOGVOx899ZapqxxFAKEpLLZaVyaaQ8gYv/adk3H3mqQnO8SdepKfO+EBHI18q217j5GQn2L0X2bUH2b0n3aycCsey1rgZ6d/qYaM/0rfe8Laz5JJif1/JjR0/eiu1wjpm7TRVsvy5tmzft3Ni/rFX6KJef3cG9FPMzE7uCpOAoy3Lq90wEcE9USGLcXY2Vds2rpo05XUu+cl8ku2r/WYzaHivW/Oqso/MvHBlAlgqBaAgJai10L+/5zTrlzcP48Zt88XHHwFawYczUEphmVerxstqupKA9jQB2IANywZsCZ2Z67ndun4Q/+KTh7d1av+NePCBH1M7dvsDQBjdSpW8HxslJUDLlkRpKTB7thf8m5lL3wvXpbzcErNnawAIUnQqlbZm7skpOcOKe6R0LhirKyth2anAxx8+u/HZP3yY9fQrURGLfwtBwHHAkxZFUFCgX3jhBTl2yxYh3nzTrfYj0SigNbYqVRi5a/l0nH9pqjViyBTv48+H2J99moNEJSA0tPJAQEFIIUEJUIikq+AJQEBQCknlac8GbESiQEocXufOH8v2hQ9i2XUrRVGfldDmlIgSG/i73pvXtNmarUmZH3VUpZqpqeCfH+7jjJ10su7Y5XX27kUKKwSnEnCUZdWasNAAPRFOVaiA/Zcw7MxMSyU7tCM7d/3cGTf6WZ5/ztWcMGVs5fHH9yLZFrL+bJeAZHFxJBAk35NRIUkRSBDuKNVLbkbU91mSscqvP+3BkoMHcMyYSdtOOulONWjoW7pD+x9Z0Np0w6uiOE8FWiChgHWNaM6wlShTfvChRC1a0u3ZaytnHPI0y393FjdsyEk+LvqsLo13lZptV6w5wmtixpUrbYwbp4PVn6TEPXfMwIpHBzvKPUW++nquTU9iyxZ4gJYQ8EABIYQABMggdjMmBDwpPWitLUAqQNoQIozwWuRDC25iu/brZWLbv9C93wYWFf4Hs2Z+a/33f89h4cINACjS04it22ofr/mpBr/IKwCUVo9sdvwMlpYCK1YI/8MqOC/Q340UQHo6uHGTwGuvZeAPf7BVu64D8Na/x8lvPu/GDes7cdvWrvzqm5SIFDGsWxfu2gU8IQQpJCxQCo+i5uERJrzz/FsCQEpAIDsHOiV1i1cyYrVMYJl31TXvRwf0fgOVlebalJTYOO00hhFrs+1za3Z4TdRYViaxdKkQgHlZIhHQcSJb7rprTPrv/3i4XvvtROvb77vj22/MXSShAReWJQlIS+uqETUAEP7HIPxgRoA0HsMKokvLAiJ+QzkWA9q2TXhffPYSe/amSM/4RH7y1Vs4uAT46tu3MGj4eufSCyOxWOwtOM7euSixGBKVlf3wyX8ZPe0SrVrndrU3bmuLV/8Z8fr3Hq/f/m9MZOf2sTdtzcd330SNIA6BykR4HWjKB8JcCE8ICCFIUAgTqwGgFBAAPCEIDU14lh28K9KGV9QZMhr/i5o0aZU9pvcdmHn8V8JPdllWFsV772msKPcEkhPgZmsK1uzwmriRFLj0UgtLl3oCCGtqG8m8yLln9LA263nWSy8Pwfrvu1uQGVjzNQDAAzzpp2CQUgpShhFRshkBIEIIwvOC/UsAQtZ8PlLTgNwsqA2bE7CsbSI7yxJff/eZbJGp0LGzh979pfrs43+rN9/+T2Ro/5iXnkUZi8Iq6ohtwqKVnhmLffjBe7jjt58jNVVi2zYPF59X7Eo7LwKlEtu2Ce+TL5FiuahY853gK69Vxucdcygqt7WQ775L79t1EZ2T0lFUVJLrNniR9LQcWDbw49pqtUggjF+1Z85NQAgJjxDCRMG1L4OgB3iSpDYxo9EPkxaQmwsvM/1L5rR4E4NHv6Db5z0fu/bad7BxY9Lvldgob47mmro1O7z9zFhWJvHEE1a1QnwkAr61ahBuvHGU3vjjFO+/q4dEvvsxH1s2GtFCpeABHgFPSCnh+TGfgBB1OcHAjDP0aBI4D0rTz1+TeOkEwmF8P9KsfsBBZa0qiw4zRun/O2t+P/j/4L9F1b6S0k1l/kYJWJCWkPAUKKUUhKFsqO8amnTYdLUBSNKjiW8FbD/KTc+m263jJ1ZB+ye9Fm3/Yd/6y5eEEN/VuBc2li7VNXLgZmvC1uzw9lMjTd0u+P8w+iMFn3suE3b06Mrrf9k5/v5bnVRm5kj7ux8KsG4DkKhA4HUUoCiksOh5sCxbeF6d0U81E36ZMHBGrO6FJACvJuQDdT9owZdEHZ9N+jf6+4SJz0z9UZCQxtMIwe17HB+245Gk8NXp7OS6Y3oGVJuWkCkZb8otG9/WpYd/Zk2f8SRGjv1EpKWtw7ZtwbGZ75SVAZdeSiGaU9b9zZod3gFiZJnEyd9Y4vbb3Zr/VkF2xvz57ePZKd2cSr0w+uTTLXSiIstKSc3FD9+bnqQfEXlhqau6D5FCCAohsZ3IaZ+YadWAHutKJYVMdmxSAikxIDcP3qYt36hOXbbaU0r+K//60nIce+TWz35y7pudhKgMPh4ID6GkROKFF3Szg2u2ZmtiFoBqWV5urSwpsVmclH5KCaTEDesu2UbddsuFzMn7Gbt1vVHNnv2D27aTYiRKRiOkbZPSJoUVTjm4Rk9BKQhXA64SwtURm55l0ZOSrsBOz7/WuwkRwD/8/45Q2REqKZQr4DrCcP0pA79xCbtq6kJKMmKT0RQ6kSjVkMEOp0x+jt26LVNDBp6nXn7uZJIR2DaCeeSk62cHsJu9fe+abc9bc4T3/8BYVibx3nsCK1Yg7Pomm22BriqoXHJ5avzeXwvnmiuG6O+/OiF2xwPg+u/j2kt46NihezQeb4X/fQokEoDwEYEe4cGknELUMcKwO2ZqiACZXMkDLAkIy7RlcrKBrkXAO+++obVT4WgoZ3C/ROSUY5D6yjuXb3zw4W+z/vonD8OHfykiEV1Hc0MAsFBaSpSXe81R3IFtzQ7v/6mRFLj9dhsnnwyYtoGq84M+3q2S7BH784OjnMUXV2LtmngUgIYHcdkl18qPv8rR77ytvY9WC/nDOmEJIVhXLXAHDZI6/hLaFp5u346iZx8pizq56vVVN8g3Vn0SjaULxxVaTxylrGuusWIjBt+DzVu3f86AjeJigeuvpxg3ru7zbbYD2v4PNbjxqk2euuMAAAAASUVORK5CYII=;" vertex="1" parent="1">
          <mxGeometry x="720" y="840" width="160" height="160" as="geometry" />
        </mxCell>
        <mxCell id="r685xKDaXecrk-LamKXd-7" value="&lt;font face=&quot;Comic Sans MS&quot; style=&quot;font-size: 41px;&quot;&gt;&lt;b&gt;AI Design Lab&lt;/b&gt;&lt;/font&gt;" style="text;html=1;align=center;verticalAlign=middle;resizable=0;points=[];autosize=1;strokeColor=none;fillColor=none;" vertex="1" parent="1">
          <mxGeometry x="890" y="850" width="310" height="60" as="geometry" />
        </mxCell>
        <mxCell id="r685xKDaXecrk-LamKXd-8" value="&lt;font face=&quot;Comic Sans MS&quot; style=&quot;font-size: 20px;&quot;&gt;Fudan University&lt;/font&gt;" style="text;html=1;align=center;verticalAlign=middle;resizable=0;points=[];autosize=1;strokeColor=none;fillColor=none;" vertex="1" parent="1">
          <mxGeometry x="955" y="920" width="180" height="40" as="geometry" />
        </mxCell>
      </root>
    </mxGraphModel>
  </diagram>
</mxfile>
